G04 #@! TF.GenerationSoftware,KiCad,Pcbnew,(5.1.9)-1*
G04 #@! TF.CreationDate,2021-10-30T12:25:48+01:00*
G04 #@! TF.ProjectId,stepper_driver,73746570-7065-4725-9f64-72697665722e,rev?*
G04 #@! TF.SameCoordinates,Original*
G04 #@! TF.FileFunction,Copper,L1,Top*
G04 #@! TF.FilePolarity,Positive*
%FSLAX46Y46*%
G04 Gerber Fmt 4.6, Leading zero omitted, Abs format (unit mm)*
G04 Created by KiCad (PCBNEW (5.1.9)-1) date 2021-10-30 12:25:48*
%MOMM*%
%LPD*%
G01*
G04 APERTURE LIST*
G04 #@! TA.AperFunction,ComponentPad*
%ADD10O,1.700000X1.700000*%
G04 #@! TD*
G04 #@! TA.AperFunction,ComponentPad*
%ADD11R,1.700000X1.700000*%
G04 #@! TD*
G04 #@! TA.AperFunction,SMDPad,CuDef*
%ADD12R,2.000000X0.900000*%
G04 #@! TD*
G04 #@! TA.AperFunction,SMDPad,CuDef*
%ADD13R,0.900000X2.000000*%
G04 #@! TD*
G04 #@! TA.AperFunction,SMDPad,CuDef*
%ADD14R,5.000000X5.000000*%
G04 #@! TD*
G04 #@! TA.AperFunction,SMDPad,CuDef*
%ADD15R,1.150000X1.000000*%
G04 #@! TD*
G04 #@! TA.AperFunction,ComponentPad*
%ADD16C,2.000000*%
G04 #@! TD*
G04 #@! TA.AperFunction,ComponentPad*
%ADD17R,2.000000X2.000000*%
G04 #@! TD*
G04 #@! TA.AperFunction,ComponentPad*
%ADD18C,2.200000*%
G04 #@! TD*
G04 #@! TA.AperFunction,ComponentPad*
%ADD19R,2.200000X2.200000*%
G04 #@! TD*
G04 #@! TA.AperFunction,SMDPad,CuDef*
%ADD20R,1.200000X0.900000*%
G04 #@! TD*
G04 #@! TA.AperFunction,SMDPad,CuDef*
%ADD21R,1.060000X0.650000*%
G04 #@! TD*
G04 #@! TA.AperFunction,SMDPad,CuDef*
%ADD22R,1.600000X5.900000*%
G04 #@! TD*
G04 #@! TA.AperFunction,ComponentPad*
%ADD23O,2.300000X1.500000*%
G04 #@! TD*
G04 #@! TA.AperFunction,ComponentPad*
%ADD24O,1.500000X2.300000*%
G04 #@! TD*
G04 #@! TA.AperFunction,SMDPad,CuDef*
%ADD25R,0.650000X1.060000*%
G04 #@! TD*
G04 #@! TA.AperFunction,SMDPad,CuDef*
%ADD26R,1.500000X1.000000*%
G04 #@! TD*
G04 #@! TA.AperFunction,SMDPad,CuDef*
%ADD27R,0.900000X1.200000*%
G04 #@! TD*
G04 #@! TA.AperFunction,SMDPad,CuDef*
%ADD28R,1.450000X0.600000*%
G04 #@! TD*
G04 #@! TA.AperFunction,SMDPad,CuDef*
%ADD29R,1.450000X0.300000*%
G04 #@! TD*
G04 #@! TA.AperFunction,ComponentPad*
%ADD30O,2.100000X1.000000*%
G04 #@! TD*
G04 #@! TA.AperFunction,ComponentPad*
%ADD31O,1.600000X1.000000*%
G04 #@! TD*
G04 #@! TA.AperFunction,SMDPad,CuDef*
%ADD32R,0.750000X1.000000*%
G04 #@! TD*
G04 #@! TA.AperFunction,SMDPad,CuDef*
%ADD33R,0.900000X0.800000*%
G04 #@! TD*
G04 #@! TA.AperFunction,ViaPad*
%ADD34C,4.064000*%
G04 #@! TD*
G04 #@! TA.AperFunction,ViaPad*
%ADD35C,1.016000*%
G04 #@! TD*
G04 #@! TA.AperFunction,ViaPad*
%ADD36C,0.600000*%
G04 #@! TD*
G04 #@! TA.AperFunction,ViaPad*
%ADD37C,2.032000*%
G04 #@! TD*
G04 #@! TA.AperFunction,Conductor*
%ADD38C,0.203200*%
G04 #@! TD*
G04 #@! TA.AperFunction,Conductor*
%ADD39C,0.635000*%
G04 #@! TD*
G04 #@! TA.AperFunction,Conductor*
%ADD40C,0.304800*%
G04 #@! TD*
G04 #@! TA.AperFunction,Conductor*
%ADD41C,1.270000*%
G04 #@! TD*
G04 #@! TA.AperFunction,Conductor*
%ADD42C,1.905000*%
G04 #@! TD*
G04 #@! TA.AperFunction,Conductor*
%ADD43C,2.540000*%
G04 #@! TD*
G04 APERTURE END LIST*
G04 #@! TA.AperFunction,SMDPad,CuDef*
G36*
G01*
X110100000Y-124355000D02*
X110100000Y-124655000D01*
G75*
G02*
X109950000Y-124805000I-150000J0D01*
G01*
X108300000Y-124805000D01*
G75*
G02*
X108150000Y-124655000I0J150000D01*
G01*
X108150000Y-124355000D01*
G75*
G02*
X108300000Y-124205000I150000J0D01*
G01*
X109950000Y-124205000D01*
G75*
G02*
X110100000Y-124355000I0J-150000D01*
G01*
G37*
G04 #@! TD.AperFunction*
G04 #@! TA.AperFunction,SMDPad,CuDef*
G36*
G01*
X110100000Y-123085000D02*
X110100000Y-123385000D01*
G75*
G02*
X109950000Y-123535000I-150000J0D01*
G01*
X108300000Y-123535000D01*
G75*
G02*
X108150000Y-123385000I0J150000D01*
G01*
X108150000Y-123085000D01*
G75*
G02*
X108300000Y-122935000I150000J0D01*
G01*
X109950000Y-122935000D01*
G75*
G02*
X110100000Y-123085000I0J-150000D01*
G01*
G37*
G04 #@! TD.AperFunction*
G04 #@! TA.AperFunction,SMDPad,CuDef*
G36*
G01*
X110100000Y-121815000D02*
X110100000Y-122115000D01*
G75*
G02*
X109950000Y-122265000I-150000J0D01*
G01*
X108300000Y-122265000D01*
G75*
G02*
X108150000Y-122115000I0J150000D01*
G01*
X108150000Y-121815000D01*
G75*
G02*
X108300000Y-121665000I150000J0D01*
G01*
X109950000Y-121665000D01*
G75*
G02*
X110100000Y-121815000I0J-150000D01*
G01*
G37*
G04 #@! TD.AperFunction*
G04 #@! TA.AperFunction,SMDPad,CuDef*
G36*
G01*
X110100000Y-120545000D02*
X110100000Y-120845000D01*
G75*
G02*
X109950000Y-120995000I-150000J0D01*
G01*
X108300000Y-120995000D01*
G75*
G02*
X108150000Y-120845000I0J150000D01*
G01*
X108150000Y-120545000D01*
G75*
G02*
X108300000Y-120395000I150000J0D01*
G01*
X109950000Y-120395000D01*
G75*
G02*
X110100000Y-120545000I0J-150000D01*
G01*
G37*
G04 #@! TD.AperFunction*
G04 #@! TA.AperFunction,SMDPad,CuDef*
G36*
G01*
X115050000Y-120545000D02*
X115050000Y-120845000D01*
G75*
G02*
X114900000Y-120995000I-150000J0D01*
G01*
X113250000Y-120995000D01*
G75*
G02*
X113100000Y-120845000I0J150000D01*
G01*
X113100000Y-120545000D01*
G75*
G02*
X113250000Y-120395000I150000J0D01*
G01*
X114900000Y-120395000D01*
G75*
G02*
X115050000Y-120545000I0J-150000D01*
G01*
G37*
G04 #@! TD.AperFunction*
G04 #@! TA.AperFunction,SMDPad,CuDef*
G36*
G01*
X115050000Y-121815000D02*
X115050000Y-122115000D01*
G75*
G02*
X114900000Y-122265000I-150000J0D01*
G01*
X113250000Y-122265000D01*
G75*
G02*
X113100000Y-122115000I0J150000D01*
G01*
X113100000Y-121815000D01*
G75*
G02*
X113250000Y-121665000I150000J0D01*
G01*
X114900000Y-121665000D01*
G75*
G02*
X115050000Y-121815000I0J-150000D01*
G01*
G37*
G04 #@! TD.AperFunction*
G04 #@! TA.AperFunction,SMDPad,CuDef*
G36*
G01*
X115050000Y-123085000D02*
X115050000Y-123385000D01*
G75*
G02*
X114900000Y-123535000I-150000J0D01*
G01*
X113250000Y-123535000D01*
G75*
G02*
X113100000Y-123385000I0J150000D01*
G01*
X113100000Y-123085000D01*
G75*
G02*
X113250000Y-122935000I150000J0D01*
G01*
X114900000Y-122935000D01*
G75*
G02*
X115050000Y-123085000I0J-150000D01*
G01*
G37*
G04 #@! TD.AperFunction*
G04 #@! TA.AperFunction,SMDPad,CuDef*
G36*
G01*
X115050000Y-124355000D02*
X115050000Y-124655000D01*
G75*
G02*
X114900000Y-124805000I-150000J0D01*
G01*
X113250000Y-124805000D01*
G75*
G02*
X113100000Y-124655000I0J150000D01*
G01*
X113100000Y-124355000D01*
G75*
G02*
X113250000Y-124205000I150000J0D01*
G01*
X114900000Y-124205000D01*
G75*
G02*
X115050000Y-124355000I0J-150000D01*
G01*
G37*
G04 #@! TD.AperFunction*
G04 #@! TA.AperFunction,SMDPad,CuDef*
G36*
G01*
X117375000Y-127950000D02*
X117375000Y-128450000D01*
G75*
G02*
X117150000Y-128675000I-225000J0D01*
G01*
X116700000Y-128675000D01*
G75*
G02*
X116475000Y-128450000I0J225000D01*
G01*
X116475000Y-127950000D01*
G75*
G02*
X116700000Y-127725000I225000J0D01*
G01*
X117150000Y-127725000D01*
G75*
G02*
X117375000Y-127950000I0J-225000D01*
G01*
G37*
G04 #@! TD.AperFunction*
G04 #@! TA.AperFunction,SMDPad,CuDef*
G36*
G01*
X118925000Y-127950000D02*
X118925000Y-128450000D01*
G75*
G02*
X118700000Y-128675000I-225000J0D01*
G01*
X118250000Y-128675000D01*
G75*
G02*
X118025000Y-128450000I0J225000D01*
G01*
X118025000Y-127950000D01*
G75*
G02*
X118250000Y-127725000I225000J0D01*
G01*
X118700000Y-127725000D01*
G75*
G02*
X118925000Y-127950000I0J-225000D01*
G01*
G37*
G04 #@! TD.AperFunction*
G04 #@! TA.AperFunction,SMDPad,CuDef*
G36*
G01*
X131430000Y-127200000D02*
X131770000Y-127200000D01*
G75*
G02*
X131910000Y-127340000I0J-140000D01*
G01*
X131910000Y-127620000D01*
G75*
G02*
X131770000Y-127760000I-140000J0D01*
G01*
X131430000Y-127760000D01*
G75*
G02*
X131290000Y-127620000I0J140000D01*
G01*
X131290000Y-127340000D01*
G75*
G02*
X131430000Y-127200000I140000J0D01*
G01*
G37*
G04 #@! TD.AperFunction*
G04 #@! TA.AperFunction,SMDPad,CuDef*
G36*
G01*
X131430000Y-126240000D02*
X131770000Y-126240000D01*
G75*
G02*
X131910000Y-126380000I0J-140000D01*
G01*
X131910000Y-126660000D01*
G75*
G02*
X131770000Y-126800000I-140000J0D01*
G01*
X131430000Y-126800000D01*
G75*
G02*
X131290000Y-126660000I0J140000D01*
G01*
X131290000Y-126380000D01*
G75*
G02*
X131430000Y-126240000I140000J0D01*
G01*
G37*
G04 #@! TD.AperFunction*
D10*
X101800000Y-134320000D03*
X101800000Y-131780000D03*
X101800000Y-129240000D03*
X101800000Y-126700000D03*
X101800000Y-124160000D03*
X101800000Y-121620000D03*
X101800000Y-119080000D03*
X101800000Y-116540000D03*
X101800000Y-114000000D03*
X101800000Y-111460000D03*
X101800000Y-108920000D03*
X101800000Y-106380000D03*
X101800000Y-103840000D03*
D11*
X101800000Y-101300000D03*
D12*
X135986000Y-101277000D03*
X135986000Y-102547000D03*
X135986000Y-103817000D03*
X135986000Y-105087000D03*
X135986000Y-106357000D03*
X135986000Y-107627000D03*
X135986000Y-108897000D03*
X135986000Y-110167000D03*
X135986000Y-111437000D03*
X135986000Y-112707000D03*
X135986000Y-113977000D03*
X135986000Y-115247000D03*
X135986000Y-116517000D03*
X135986000Y-117787000D03*
D13*
X133201000Y-118787000D03*
X131931000Y-118787000D03*
X130661000Y-118787000D03*
X129391000Y-118787000D03*
X128121000Y-118787000D03*
X126851000Y-118787000D03*
X125581000Y-118787000D03*
X124311000Y-118787000D03*
X123041000Y-118787000D03*
X121771000Y-118787000D03*
D12*
X118986000Y-117787000D03*
X118986000Y-116517000D03*
X118986000Y-115247000D03*
X118986000Y-113977000D03*
X118986000Y-112707000D03*
X118986000Y-111437000D03*
X118986000Y-110167000D03*
X118986000Y-108897000D03*
X118986000Y-107627000D03*
X118986000Y-106357000D03*
X118986000Y-105087000D03*
X118986000Y-103817000D03*
X118986000Y-102547000D03*
X118986000Y-101277000D03*
D14*
X126486000Y-108777000D03*
D15*
X147475000Y-97700000D03*
X145725000Y-97700000D03*
X145725000Y-96300000D03*
X147475000Y-96300000D03*
G04 #@! TA.AperFunction,SMDPad,CuDef*
G36*
G01*
X110100000Y-118755000D02*
X110100000Y-119055000D01*
G75*
G02*
X109950000Y-119205000I-150000J0D01*
G01*
X108300000Y-119205000D01*
G75*
G02*
X108150000Y-119055000I0J150000D01*
G01*
X108150000Y-118755000D01*
G75*
G02*
X108300000Y-118605000I150000J0D01*
G01*
X109950000Y-118605000D01*
G75*
G02*
X110100000Y-118755000I0J-150000D01*
G01*
G37*
G04 #@! TD.AperFunction*
G04 #@! TA.AperFunction,SMDPad,CuDef*
G36*
G01*
X110100000Y-117485000D02*
X110100000Y-117785000D01*
G75*
G02*
X109950000Y-117935000I-150000J0D01*
G01*
X108300000Y-117935000D01*
G75*
G02*
X108150000Y-117785000I0J150000D01*
G01*
X108150000Y-117485000D01*
G75*
G02*
X108300000Y-117335000I150000J0D01*
G01*
X109950000Y-117335000D01*
G75*
G02*
X110100000Y-117485000I0J-150000D01*
G01*
G37*
G04 #@! TD.AperFunction*
G04 #@! TA.AperFunction,SMDPad,CuDef*
G36*
G01*
X110100000Y-116215000D02*
X110100000Y-116515000D01*
G75*
G02*
X109950000Y-116665000I-150000J0D01*
G01*
X108300000Y-116665000D01*
G75*
G02*
X108150000Y-116515000I0J150000D01*
G01*
X108150000Y-116215000D01*
G75*
G02*
X108300000Y-116065000I150000J0D01*
G01*
X109950000Y-116065000D01*
G75*
G02*
X110100000Y-116215000I0J-150000D01*
G01*
G37*
G04 #@! TD.AperFunction*
G04 #@! TA.AperFunction,SMDPad,CuDef*
G36*
G01*
X110100000Y-114945000D02*
X110100000Y-115245000D01*
G75*
G02*
X109950000Y-115395000I-150000J0D01*
G01*
X108300000Y-115395000D01*
G75*
G02*
X108150000Y-115245000I0J150000D01*
G01*
X108150000Y-114945000D01*
G75*
G02*
X108300000Y-114795000I150000J0D01*
G01*
X109950000Y-114795000D01*
G75*
G02*
X110100000Y-114945000I0J-150000D01*
G01*
G37*
G04 #@! TD.AperFunction*
G04 #@! TA.AperFunction,SMDPad,CuDef*
G36*
G01*
X115050000Y-114945000D02*
X115050000Y-115245000D01*
G75*
G02*
X114900000Y-115395000I-150000J0D01*
G01*
X113250000Y-115395000D01*
G75*
G02*
X113100000Y-115245000I0J150000D01*
G01*
X113100000Y-114945000D01*
G75*
G02*
X113250000Y-114795000I150000J0D01*
G01*
X114900000Y-114795000D01*
G75*
G02*
X115050000Y-114945000I0J-150000D01*
G01*
G37*
G04 #@! TD.AperFunction*
G04 #@! TA.AperFunction,SMDPad,CuDef*
G36*
G01*
X115050000Y-116215000D02*
X115050000Y-116515000D01*
G75*
G02*
X114900000Y-116665000I-150000J0D01*
G01*
X113250000Y-116665000D01*
G75*
G02*
X113100000Y-116515000I0J150000D01*
G01*
X113100000Y-116215000D01*
G75*
G02*
X113250000Y-116065000I150000J0D01*
G01*
X114900000Y-116065000D01*
G75*
G02*
X115050000Y-116215000I0J-150000D01*
G01*
G37*
G04 #@! TD.AperFunction*
G04 #@! TA.AperFunction,SMDPad,CuDef*
G36*
G01*
X115050000Y-117485000D02*
X115050000Y-117785000D01*
G75*
G02*
X114900000Y-117935000I-150000J0D01*
G01*
X113250000Y-117935000D01*
G75*
G02*
X113100000Y-117785000I0J150000D01*
G01*
X113100000Y-117485000D01*
G75*
G02*
X113250000Y-117335000I150000J0D01*
G01*
X114900000Y-117335000D01*
G75*
G02*
X115050000Y-117485000I0J-150000D01*
G01*
G37*
G04 #@! TD.AperFunction*
G04 #@! TA.AperFunction,SMDPad,CuDef*
G36*
G01*
X115050000Y-118755000D02*
X115050000Y-119055000D01*
G75*
G02*
X114900000Y-119205000I-150000J0D01*
G01*
X113250000Y-119205000D01*
G75*
G02*
X113100000Y-119055000I0J150000D01*
G01*
X113100000Y-118755000D01*
G75*
G02*
X113250000Y-118605000I150000J0D01*
G01*
X114900000Y-118605000D01*
G75*
G02*
X115050000Y-118755000I0J-150000D01*
G01*
G37*
G04 #@! TD.AperFunction*
D16*
X107100000Y-104400000D03*
D17*
X112100000Y-104400000D03*
G04 #@! TA.AperFunction,SMDPad,CuDef*
G36*
G01*
X116215000Y-113040000D02*
X116585000Y-113040000D01*
G75*
G02*
X116720000Y-113175000I0J-135000D01*
G01*
X116720000Y-113445000D01*
G75*
G02*
X116585000Y-113580000I-135000J0D01*
G01*
X116215000Y-113580000D01*
G75*
G02*
X116080000Y-113445000I0J135000D01*
G01*
X116080000Y-113175000D01*
G75*
G02*
X116215000Y-113040000I135000J0D01*
G01*
G37*
G04 #@! TD.AperFunction*
G04 #@! TA.AperFunction,SMDPad,CuDef*
G36*
G01*
X116215000Y-112020000D02*
X116585000Y-112020000D01*
G75*
G02*
X116720000Y-112155000I0J-135000D01*
G01*
X116720000Y-112425000D01*
G75*
G02*
X116585000Y-112560000I-135000J0D01*
G01*
X116215000Y-112560000D01*
G75*
G02*
X116080000Y-112425000I0J135000D01*
G01*
X116080000Y-112155000D01*
G75*
G02*
X116215000Y-112020000I135000J0D01*
G01*
G37*
G04 #@! TD.AperFunction*
G04 #@! TA.AperFunction,SMDPad,CuDef*
G36*
G01*
X109575000Y-110674999D02*
X109575000Y-113525001D01*
G75*
G02*
X109325001Y-113775000I-249999J0D01*
G01*
X108299999Y-113775000D01*
G75*
G02*
X108050000Y-113525001I0J249999D01*
G01*
X108050000Y-110674999D01*
G75*
G02*
X108299999Y-110425000I249999J0D01*
G01*
X109325001Y-110425000D01*
G75*
G02*
X109575000Y-110674999I0J-249999D01*
G01*
G37*
G04 #@! TD.AperFunction*
G04 #@! TA.AperFunction,SMDPad,CuDef*
G36*
G01*
X115550000Y-110674999D02*
X115550000Y-113525001D01*
G75*
G02*
X115300001Y-113775000I-249999J0D01*
G01*
X114274999Y-113775000D01*
G75*
G02*
X114025000Y-113525001I0J249999D01*
G01*
X114025000Y-110674999D01*
G75*
G02*
X114274999Y-110425000I249999J0D01*
G01*
X115300001Y-110425000D01*
G75*
G02*
X115550000Y-110674999I0J-249999D01*
G01*
G37*
G04 #@! TD.AperFunction*
G04 #@! TA.AperFunction,SMDPad,CuDef*
G36*
G01*
X130385000Y-126760000D02*
X130015000Y-126760000D01*
G75*
G02*
X129880000Y-126625000I0J135000D01*
G01*
X129880000Y-126355000D01*
G75*
G02*
X130015000Y-126220000I135000J0D01*
G01*
X130385000Y-126220000D01*
G75*
G02*
X130520000Y-126355000I0J-135000D01*
G01*
X130520000Y-126625000D01*
G75*
G02*
X130385000Y-126760000I-135000J0D01*
G01*
G37*
G04 #@! TD.AperFunction*
G04 #@! TA.AperFunction,SMDPad,CuDef*
G36*
G01*
X130385000Y-127780000D02*
X130015000Y-127780000D01*
G75*
G02*
X129880000Y-127645000I0J135000D01*
G01*
X129880000Y-127375000D01*
G75*
G02*
X130015000Y-127240000I135000J0D01*
G01*
X130385000Y-127240000D01*
G75*
G02*
X130520000Y-127375000I0J-135000D01*
G01*
X130520000Y-127645000D01*
G75*
G02*
X130385000Y-127780000I-135000J0D01*
G01*
G37*
G04 #@! TD.AperFunction*
G04 #@! TA.AperFunction,SMDPad,CuDef*
G36*
G01*
X129274999Y-135225000D02*
X132125001Y-135225000D01*
G75*
G02*
X132375000Y-135474999I0J-249999D01*
G01*
X132375000Y-136500001D01*
G75*
G02*
X132125001Y-136750000I-249999J0D01*
G01*
X129274999Y-136750000D01*
G75*
G02*
X129025000Y-136500001I0J249999D01*
G01*
X129025000Y-135474999D01*
G75*
G02*
X129274999Y-135225000I249999J0D01*
G01*
G37*
G04 #@! TD.AperFunction*
G04 #@! TA.AperFunction,SMDPad,CuDef*
G36*
G01*
X129274999Y-129250000D02*
X132125001Y-129250000D01*
G75*
G02*
X132375000Y-129499999I0J-249999D01*
G01*
X132375000Y-130525001D01*
G75*
G02*
X132125001Y-130775000I-249999J0D01*
G01*
X129274999Y-130775000D01*
G75*
G02*
X129025000Y-130525001I0J249999D01*
G01*
X129025000Y-129499999D01*
G75*
G02*
X129274999Y-129250000I249999J0D01*
G01*
G37*
G04 #@! TD.AperFunction*
G04 #@! TA.AperFunction,SMDPad,CuDef*
G36*
G01*
X120655000Y-134500000D02*
X120955000Y-134500000D01*
G75*
G02*
X121105000Y-134650000I0J-150000D01*
G01*
X121105000Y-136300000D01*
G75*
G02*
X120955000Y-136450000I-150000J0D01*
G01*
X120655000Y-136450000D01*
G75*
G02*
X120505000Y-136300000I0J150000D01*
G01*
X120505000Y-134650000D01*
G75*
G02*
X120655000Y-134500000I150000J0D01*
G01*
G37*
G04 #@! TD.AperFunction*
G04 #@! TA.AperFunction,SMDPad,CuDef*
G36*
G01*
X119385000Y-134500000D02*
X119685000Y-134500000D01*
G75*
G02*
X119835000Y-134650000I0J-150000D01*
G01*
X119835000Y-136300000D01*
G75*
G02*
X119685000Y-136450000I-150000J0D01*
G01*
X119385000Y-136450000D01*
G75*
G02*
X119235000Y-136300000I0J150000D01*
G01*
X119235000Y-134650000D01*
G75*
G02*
X119385000Y-134500000I150000J0D01*
G01*
G37*
G04 #@! TD.AperFunction*
G04 #@! TA.AperFunction,SMDPad,CuDef*
G36*
G01*
X118115000Y-134500000D02*
X118415000Y-134500000D01*
G75*
G02*
X118565000Y-134650000I0J-150000D01*
G01*
X118565000Y-136300000D01*
G75*
G02*
X118415000Y-136450000I-150000J0D01*
G01*
X118115000Y-136450000D01*
G75*
G02*
X117965000Y-136300000I0J150000D01*
G01*
X117965000Y-134650000D01*
G75*
G02*
X118115000Y-134500000I150000J0D01*
G01*
G37*
G04 #@! TD.AperFunction*
G04 #@! TA.AperFunction,SMDPad,CuDef*
G36*
G01*
X116845000Y-134500000D02*
X117145000Y-134500000D01*
G75*
G02*
X117295000Y-134650000I0J-150000D01*
G01*
X117295000Y-136300000D01*
G75*
G02*
X117145000Y-136450000I-150000J0D01*
G01*
X116845000Y-136450000D01*
G75*
G02*
X116695000Y-136300000I0J150000D01*
G01*
X116695000Y-134650000D01*
G75*
G02*
X116845000Y-134500000I150000J0D01*
G01*
G37*
G04 #@! TD.AperFunction*
G04 #@! TA.AperFunction,SMDPad,CuDef*
G36*
G01*
X116845000Y-129550000D02*
X117145000Y-129550000D01*
G75*
G02*
X117295000Y-129700000I0J-150000D01*
G01*
X117295000Y-131350000D01*
G75*
G02*
X117145000Y-131500000I-150000J0D01*
G01*
X116845000Y-131500000D01*
G75*
G02*
X116695000Y-131350000I0J150000D01*
G01*
X116695000Y-129700000D01*
G75*
G02*
X116845000Y-129550000I150000J0D01*
G01*
G37*
G04 #@! TD.AperFunction*
G04 #@! TA.AperFunction,SMDPad,CuDef*
G36*
G01*
X118115000Y-129550000D02*
X118415000Y-129550000D01*
G75*
G02*
X118565000Y-129700000I0J-150000D01*
G01*
X118565000Y-131350000D01*
G75*
G02*
X118415000Y-131500000I-150000J0D01*
G01*
X118115000Y-131500000D01*
G75*
G02*
X117965000Y-131350000I0J150000D01*
G01*
X117965000Y-129700000D01*
G75*
G02*
X118115000Y-129550000I150000J0D01*
G01*
G37*
G04 #@! TD.AperFunction*
G04 #@! TA.AperFunction,SMDPad,CuDef*
G36*
G01*
X119385000Y-129550000D02*
X119685000Y-129550000D01*
G75*
G02*
X119835000Y-129700000I0J-150000D01*
G01*
X119835000Y-131350000D01*
G75*
G02*
X119685000Y-131500000I-150000J0D01*
G01*
X119385000Y-131500000D01*
G75*
G02*
X119235000Y-131350000I0J150000D01*
G01*
X119235000Y-129700000D01*
G75*
G02*
X119385000Y-129550000I150000J0D01*
G01*
G37*
G04 #@! TD.AperFunction*
G04 #@! TA.AperFunction,SMDPad,CuDef*
G36*
G01*
X120655000Y-129550000D02*
X120955000Y-129550000D01*
G75*
G02*
X121105000Y-129700000I0J-150000D01*
G01*
X121105000Y-131350000D01*
G75*
G02*
X120955000Y-131500000I-150000J0D01*
G01*
X120655000Y-131500000D01*
G75*
G02*
X120505000Y-131350000I0J150000D01*
G01*
X120505000Y-129700000D01*
G75*
G02*
X120655000Y-129550000I150000J0D01*
G01*
G37*
G04 #@! TD.AperFunction*
D18*
X113920000Y-129400000D03*
X111380000Y-129400000D03*
X108840000Y-129400000D03*
D19*
X106300000Y-129400000D03*
D20*
X130900000Y-125150000D03*
X130900000Y-121850000D03*
X152900000Y-111950000D03*
X152900000Y-115250000D03*
D21*
X142000000Y-115850000D03*
X142000000Y-117750000D03*
X139800000Y-117750000D03*
X139800000Y-116800000D03*
X139800000Y-115850000D03*
G04 #@! TA.AperFunction,SMDPad,CuDef*
G36*
G01*
X137850000Y-116825000D02*
X138350000Y-116825000D01*
G75*
G02*
X138575000Y-117050000I0J-225000D01*
G01*
X138575000Y-117500000D01*
G75*
G02*
X138350000Y-117725000I-225000J0D01*
G01*
X137850000Y-117725000D01*
G75*
G02*
X137625000Y-117500000I0J225000D01*
G01*
X137625000Y-117050000D01*
G75*
G02*
X137850000Y-116825000I225000J0D01*
G01*
G37*
G04 #@! TD.AperFunction*
G04 #@! TA.AperFunction,SMDPad,CuDef*
G36*
G01*
X137850000Y-115275000D02*
X138350000Y-115275000D01*
G75*
G02*
X138575000Y-115500000I0J-225000D01*
G01*
X138575000Y-115950000D01*
G75*
G02*
X138350000Y-116175000I-225000J0D01*
G01*
X137850000Y-116175000D01*
G75*
G02*
X137625000Y-115950000I0J225000D01*
G01*
X137625000Y-115500000D01*
G75*
G02*
X137850000Y-115275000I225000J0D01*
G01*
G37*
G04 #@! TD.AperFunction*
G04 #@! TA.AperFunction,SMDPad,CuDef*
G36*
G01*
X143330000Y-116080000D02*
X143670000Y-116080000D01*
G75*
G02*
X143810000Y-116220000I0J-140000D01*
G01*
X143810000Y-116500000D01*
G75*
G02*
X143670000Y-116640000I-140000J0D01*
G01*
X143330000Y-116640000D01*
G75*
G02*
X143190000Y-116500000I0J140000D01*
G01*
X143190000Y-116220000D01*
G75*
G02*
X143330000Y-116080000I140000J0D01*
G01*
G37*
G04 #@! TD.AperFunction*
G04 #@! TA.AperFunction,SMDPad,CuDef*
G36*
G01*
X143330000Y-115120000D02*
X143670000Y-115120000D01*
G75*
G02*
X143810000Y-115260000I0J-140000D01*
G01*
X143810000Y-115540000D01*
G75*
G02*
X143670000Y-115680000I-140000J0D01*
G01*
X143330000Y-115680000D01*
G75*
G02*
X143190000Y-115540000I0J140000D01*
G01*
X143190000Y-115260000D01*
G75*
G02*
X143330000Y-115120000I140000J0D01*
G01*
G37*
G04 #@! TD.AperFunction*
D22*
X133350000Y-124400000D03*
X138050000Y-124400000D03*
G04 #@! TA.AperFunction,SMDPad,CuDef*
G36*
G01*
X126755000Y-134500000D02*
X127055000Y-134500000D01*
G75*
G02*
X127205000Y-134650000I0J-150000D01*
G01*
X127205000Y-136300000D01*
G75*
G02*
X127055000Y-136450000I-150000J0D01*
G01*
X126755000Y-136450000D01*
G75*
G02*
X126605000Y-136300000I0J150000D01*
G01*
X126605000Y-134650000D01*
G75*
G02*
X126755000Y-134500000I150000J0D01*
G01*
G37*
G04 #@! TD.AperFunction*
G04 #@! TA.AperFunction,SMDPad,CuDef*
G36*
G01*
X125485000Y-134500000D02*
X125785000Y-134500000D01*
G75*
G02*
X125935000Y-134650000I0J-150000D01*
G01*
X125935000Y-136300000D01*
G75*
G02*
X125785000Y-136450000I-150000J0D01*
G01*
X125485000Y-136450000D01*
G75*
G02*
X125335000Y-136300000I0J150000D01*
G01*
X125335000Y-134650000D01*
G75*
G02*
X125485000Y-134500000I150000J0D01*
G01*
G37*
G04 #@! TD.AperFunction*
G04 #@! TA.AperFunction,SMDPad,CuDef*
G36*
G01*
X124215000Y-134500000D02*
X124515000Y-134500000D01*
G75*
G02*
X124665000Y-134650000I0J-150000D01*
G01*
X124665000Y-136300000D01*
G75*
G02*
X124515000Y-136450000I-150000J0D01*
G01*
X124215000Y-136450000D01*
G75*
G02*
X124065000Y-136300000I0J150000D01*
G01*
X124065000Y-134650000D01*
G75*
G02*
X124215000Y-134500000I150000J0D01*
G01*
G37*
G04 #@! TD.AperFunction*
G04 #@! TA.AperFunction,SMDPad,CuDef*
G36*
G01*
X122945000Y-134500000D02*
X123245000Y-134500000D01*
G75*
G02*
X123395000Y-134650000I0J-150000D01*
G01*
X123395000Y-136300000D01*
G75*
G02*
X123245000Y-136450000I-150000J0D01*
G01*
X122945000Y-136450000D01*
G75*
G02*
X122795000Y-136300000I0J150000D01*
G01*
X122795000Y-134650000D01*
G75*
G02*
X122945000Y-134500000I150000J0D01*
G01*
G37*
G04 #@! TD.AperFunction*
G04 #@! TA.AperFunction,SMDPad,CuDef*
G36*
G01*
X122945000Y-129550000D02*
X123245000Y-129550000D01*
G75*
G02*
X123395000Y-129700000I0J-150000D01*
G01*
X123395000Y-131350000D01*
G75*
G02*
X123245000Y-131500000I-150000J0D01*
G01*
X122945000Y-131500000D01*
G75*
G02*
X122795000Y-131350000I0J150000D01*
G01*
X122795000Y-129700000D01*
G75*
G02*
X122945000Y-129550000I150000J0D01*
G01*
G37*
G04 #@! TD.AperFunction*
G04 #@! TA.AperFunction,SMDPad,CuDef*
G36*
G01*
X124215000Y-129550000D02*
X124515000Y-129550000D01*
G75*
G02*
X124665000Y-129700000I0J-150000D01*
G01*
X124665000Y-131350000D01*
G75*
G02*
X124515000Y-131500000I-150000J0D01*
G01*
X124215000Y-131500000D01*
G75*
G02*
X124065000Y-131350000I0J150000D01*
G01*
X124065000Y-129700000D01*
G75*
G02*
X124215000Y-129550000I150000J0D01*
G01*
G37*
G04 #@! TD.AperFunction*
G04 #@! TA.AperFunction,SMDPad,CuDef*
G36*
G01*
X125485000Y-129550000D02*
X125785000Y-129550000D01*
G75*
G02*
X125935000Y-129700000I0J-150000D01*
G01*
X125935000Y-131350000D01*
G75*
G02*
X125785000Y-131500000I-150000J0D01*
G01*
X125485000Y-131500000D01*
G75*
G02*
X125335000Y-131350000I0J150000D01*
G01*
X125335000Y-129700000D01*
G75*
G02*
X125485000Y-129550000I150000J0D01*
G01*
G37*
G04 #@! TD.AperFunction*
G04 #@! TA.AperFunction,SMDPad,CuDef*
G36*
G01*
X126755000Y-129550000D02*
X127055000Y-129550000D01*
G75*
G02*
X127205000Y-129700000I0J-150000D01*
G01*
X127205000Y-131350000D01*
G75*
G02*
X127055000Y-131500000I-150000J0D01*
G01*
X126755000Y-131500000D01*
G75*
G02*
X126605000Y-131350000I0J150000D01*
G01*
X126605000Y-129700000D01*
G75*
G02*
X126755000Y-129550000I150000J0D01*
G01*
G37*
G04 #@! TD.AperFunction*
G04 #@! TA.AperFunction,SMDPad,CuDef*
G36*
G01*
X122691000Y-123200000D02*
X125379000Y-123200000D01*
G75*
G02*
X125435000Y-123256000I0J-56000D01*
G01*
X125435000Y-125944000D01*
G75*
G02*
X125379000Y-126000000I-56000J0D01*
G01*
X122691000Y-126000000D01*
G75*
G02*
X122635000Y-125944000I0J56000D01*
G01*
X122635000Y-123256000D01*
G75*
G02*
X122691000Y-123200000I56000J0D01*
G01*
G37*
G04 #@! TD.AperFunction*
G04 #@! TA.AperFunction,SMDPad,CuDef*
G36*
G01*
X127335000Y-126280000D02*
X127335000Y-126420000D01*
G75*
G02*
X127265000Y-126490000I-70000J0D01*
G01*
X126205000Y-126490000D01*
G75*
G02*
X126135000Y-126420000I0J70000D01*
G01*
X126135000Y-126280000D01*
G75*
G02*
X126205000Y-126210000I70000J0D01*
G01*
X127265000Y-126210000D01*
G75*
G02*
X127335000Y-126280000I0J-70000D01*
G01*
G37*
G04 #@! TD.AperFunction*
G04 #@! TA.AperFunction,SMDPad,CuDef*
G36*
G01*
X127335000Y-125780000D02*
X127335000Y-125920000D01*
G75*
G02*
X127265000Y-125990000I-70000J0D01*
G01*
X126205000Y-125990000D01*
G75*
G02*
X126135000Y-125920000I0J70000D01*
G01*
X126135000Y-125780000D01*
G75*
G02*
X126205000Y-125710000I70000J0D01*
G01*
X127265000Y-125710000D01*
G75*
G02*
X127335000Y-125780000I0J-70000D01*
G01*
G37*
G04 #@! TD.AperFunction*
G04 #@! TA.AperFunction,SMDPad,CuDef*
G36*
G01*
X127335000Y-125280000D02*
X127335000Y-125420000D01*
G75*
G02*
X127265000Y-125490000I-70000J0D01*
G01*
X126205000Y-125490000D01*
G75*
G02*
X126135000Y-125420000I0J70000D01*
G01*
X126135000Y-125280000D01*
G75*
G02*
X126205000Y-125210000I70000J0D01*
G01*
X127265000Y-125210000D01*
G75*
G02*
X127335000Y-125280000I0J-70000D01*
G01*
G37*
G04 #@! TD.AperFunction*
G04 #@! TA.AperFunction,SMDPad,CuDef*
G36*
G01*
X127335000Y-124780000D02*
X127335000Y-124920000D01*
G75*
G02*
X127265000Y-124990000I-70000J0D01*
G01*
X126205000Y-124990000D01*
G75*
G02*
X126135000Y-124920000I0J70000D01*
G01*
X126135000Y-124780000D01*
G75*
G02*
X126205000Y-124710000I70000J0D01*
G01*
X127265000Y-124710000D01*
G75*
G02*
X127335000Y-124780000I0J-70000D01*
G01*
G37*
G04 #@! TD.AperFunction*
G04 #@! TA.AperFunction,SMDPad,CuDef*
G36*
G01*
X127335000Y-124280000D02*
X127335000Y-124420000D01*
G75*
G02*
X127265000Y-124490000I-70000J0D01*
G01*
X126205000Y-124490000D01*
G75*
G02*
X126135000Y-124420000I0J70000D01*
G01*
X126135000Y-124280000D01*
G75*
G02*
X126205000Y-124210000I70000J0D01*
G01*
X127265000Y-124210000D01*
G75*
G02*
X127335000Y-124280000I0J-70000D01*
G01*
G37*
G04 #@! TD.AperFunction*
G04 #@! TA.AperFunction,SMDPad,CuDef*
G36*
G01*
X127335000Y-123780000D02*
X127335000Y-123920000D01*
G75*
G02*
X127265000Y-123990000I-70000J0D01*
G01*
X126205000Y-123990000D01*
G75*
G02*
X126135000Y-123920000I0J70000D01*
G01*
X126135000Y-123780000D01*
G75*
G02*
X126205000Y-123710000I70000J0D01*
G01*
X127265000Y-123710000D01*
G75*
G02*
X127335000Y-123780000I0J-70000D01*
G01*
G37*
G04 #@! TD.AperFunction*
G04 #@! TA.AperFunction,SMDPad,CuDef*
G36*
G01*
X127335000Y-123280000D02*
X127335000Y-123420000D01*
G75*
G02*
X127265000Y-123490000I-70000J0D01*
G01*
X126205000Y-123490000D01*
G75*
G02*
X126135000Y-123420000I0J70000D01*
G01*
X126135000Y-123280000D01*
G75*
G02*
X126205000Y-123210000I70000J0D01*
G01*
X127265000Y-123210000D01*
G75*
G02*
X127335000Y-123280000I0J-70000D01*
G01*
G37*
G04 #@! TD.AperFunction*
G04 #@! TA.AperFunction,SMDPad,CuDef*
G36*
G01*
X127335000Y-122780000D02*
X127335000Y-122920000D01*
G75*
G02*
X127265000Y-122990000I-70000J0D01*
G01*
X126205000Y-122990000D01*
G75*
G02*
X126135000Y-122920000I0J70000D01*
G01*
X126135000Y-122780000D01*
G75*
G02*
X126205000Y-122710000I70000J0D01*
G01*
X127265000Y-122710000D01*
G75*
G02*
X127335000Y-122780000I0J-70000D01*
G01*
G37*
G04 #@! TD.AperFunction*
G04 #@! TA.AperFunction,SMDPad,CuDef*
G36*
G01*
X125715000Y-121300000D02*
X125855000Y-121300000D01*
G75*
G02*
X125925000Y-121370000I0J-70000D01*
G01*
X125925000Y-122430000D01*
G75*
G02*
X125855000Y-122500000I-70000J0D01*
G01*
X125715000Y-122500000D01*
G75*
G02*
X125645000Y-122430000I0J70000D01*
G01*
X125645000Y-121370000D01*
G75*
G02*
X125715000Y-121300000I70000J0D01*
G01*
G37*
G04 #@! TD.AperFunction*
G04 #@! TA.AperFunction,SMDPad,CuDef*
G36*
G01*
X125215000Y-121300000D02*
X125355000Y-121300000D01*
G75*
G02*
X125425000Y-121370000I0J-70000D01*
G01*
X125425000Y-122430000D01*
G75*
G02*
X125355000Y-122500000I-70000J0D01*
G01*
X125215000Y-122500000D01*
G75*
G02*
X125145000Y-122430000I0J70000D01*
G01*
X125145000Y-121370000D01*
G75*
G02*
X125215000Y-121300000I70000J0D01*
G01*
G37*
G04 #@! TD.AperFunction*
G04 #@! TA.AperFunction,SMDPad,CuDef*
G36*
G01*
X124715000Y-121300000D02*
X124855000Y-121300000D01*
G75*
G02*
X124925000Y-121370000I0J-70000D01*
G01*
X124925000Y-122430000D01*
G75*
G02*
X124855000Y-122500000I-70000J0D01*
G01*
X124715000Y-122500000D01*
G75*
G02*
X124645000Y-122430000I0J70000D01*
G01*
X124645000Y-121370000D01*
G75*
G02*
X124715000Y-121300000I70000J0D01*
G01*
G37*
G04 #@! TD.AperFunction*
G04 #@! TA.AperFunction,SMDPad,CuDef*
G36*
G01*
X124215000Y-121300000D02*
X124355000Y-121300000D01*
G75*
G02*
X124425000Y-121370000I0J-70000D01*
G01*
X124425000Y-122430000D01*
G75*
G02*
X124355000Y-122500000I-70000J0D01*
G01*
X124215000Y-122500000D01*
G75*
G02*
X124145000Y-122430000I0J70000D01*
G01*
X124145000Y-121370000D01*
G75*
G02*
X124215000Y-121300000I70000J0D01*
G01*
G37*
G04 #@! TD.AperFunction*
G04 #@! TA.AperFunction,SMDPad,CuDef*
G36*
G01*
X123715000Y-121300000D02*
X123855000Y-121300000D01*
G75*
G02*
X123925000Y-121370000I0J-70000D01*
G01*
X123925000Y-122430000D01*
G75*
G02*
X123855000Y-122500000I-70000J0D01*
G01*
X123715000Y-122500000D01*
G75*
G02*
X123645000Y-122430000I0J70000D01*
G01*
X123645000Y-121370000D01*
G75*
G02*
X123715000Y-121300000I70000J0D01*
G01*
G37*
G04 #@! TD.AperFunction*
G04 #@! TA.AperFunction,SMDPad,CuDef*
G36*
G01*
X123215000Y-121300000D02*
X123355000Y-121300000D01*
G75*
G02*
X123425000Y-121370000I0J-70000D01*
G01*
X123425000Y-122430000D01*
G75*
G02*
X123355000Y-122500000I-70000J0D01*
G01*
X123215000Y-122500000D01*
G75*
G02*
X123145000Y-122430000I0J70000D01*
G01*
X123145000Y-121370000D01*
G75*
G02*
X123215000Y-121300000I70000J0D01*
G01*
G37*
G04 #@! TD.AperFunction*
G04 #@! TA.AperFunction,SMDPad,CuDef*
G36*
G01*
X122715000Y-121300000D02*
X122855000Y-121300000D01*
G75*
G02*
X122925000Y-121370000I0J-70000D01*
G01*
X122925000Y-122430000D01*
G75*
G02*
X122855000Y-122500000I-70000J0D01*
G01*
X122715000Y-122500000D01*
G75*
G02*
X122645000Y-122430000I0J70000D01*
G01*
X122645000Y-121370000D01*
G75*
G02*
X122715000Y-121300000I70000J0D01*
G01*
G37*
G04 #@! TD.AperFunction*
G04 #@! TA.AperFunction,SMDPad,CuDef*
G36*
G01*
X122215000Y-121300000D02*
X122355000Y-121300000D01*
G75*
G02*
X122425000Y-121370000I0J-70000D01*
G01*
X122425000Y-122430000D01*
G75*
G02*
X122355000Y-122500000I-70000J0D01*
G01*
X122215000Y-122500000D01*
G75*
G02*
X122145000Y-122430000I0J70000D01*
G01*
X122145000Y-121370000D01*
G75*
G02*
X122215000Y-121300000I70000J0D01*
G01*
G37*
G04 #@! TD.AperFunction*
G04 #@! TA.AperFunction,SMDPad,CuDef*
G36*
G01*
X120735000Y-122920000D02*
X120735000Y-122780000D01*
G75*
G02*
X120805000Y-122710000I70000J0D01*
G01*
X121865000Y-122710000D01*
G75*
G02*
X121935000Y-122780000I0J-70000D01*
G01*
X121935000Y-122920000D01*
G75*
G02*
X121865000Y-122990000I-70000J0D01*
G01*
X120805000Y-122990000D01*
G75*
G02*
X120735000Y-122920000I0J70000D01*
G01*
G37*
G04 #@! TD.AperFunction*
G04 #@! TA.AperFunction,SMDPad,CuDef*
G36*
G01*
X120735000Y-123420000D02*
X120735000Y-123280000D01*
G75*
G02*
X120805000Y-123210000I70000J0D01*
G01*
X121865000Y-123210000D01*
G75*
G02*
X121935000Y-123280000I0J-70000D01*
G01*
X121935000Y-123420000D01*
G75*
G02*
X121865000Y-123490000I-70000J0D01*
G01*
X120805000Y-123490000D01*
G75*
G02*
X120735000Y-123420000I0J70000D01*
G01*
G37*
G04 #@! TD.AperFunction*
G04 #@! TA.AperFunction,SMDPad,CuDef*
G36*
G01*
X120735000Y-123920000D02*
X120735000Y-123780000D01*
G75*
G02*
X120805000Y-123710000I70000J0D01*
G01*
X121865000Y-123710000D01*
G75*
G02*
X121935000Y-123780000I0J-70000D01*
G01*
X121935000Y-123920000D01*
G75*
G02*
X121865000Y-123990000I-70000J0D01*
G01*
X120805000Y-123990000D01*
G75*
G02*
X120735000Y-123920000I0J70000D01*
G01*
G37*
G04 #@! TD.AperFunction*
G04 #@! TA.AperFunction,SMDPad,CuDef*
G36*
G01*
X120735000Y-124420000D02*
X120735000Y-124280000D01*
G75*
G02*
X120805000Y-124210000I70000J0D01*
G01*
X121865000Y-124210000D01*
G75*
G02*
X121935000Y-124280000I0J-70000D01*
G01*
X121935000Y-124420000D01*
G75*
G02*
X121865000Y-124490000I-70000J0D01*
G01*
X120805000Y-124490000D01*
G75*
G02*
X120735000Y-124420000I0J70000D01*
G01*
G37*
G04 #@! TD.AperFunction*
G04 #@! TA.AperFunction,SMDPad,CuDef*
G36*
G01*
X120735000Y-124920000D02*
X120735000Y-124780000D01*
G75*
G02*
X120805000Y-124710000I70000J0D01*
G01*
X121865000Y-124710000D01*
G75*
G02*
X121935000Y-124780000I0J-70000D01*
G01*
X121935000Y-124920000D01*
G75*
G02*
X121865000Y-124990000I-70000J0D01*
G01*
X120805000Y-124990000D01*
G75*
G02*
X120735000Y-124920000I0J70000D01*
G01*
G37*
G04 #@! TD.AperFunction*
G04 #@! TA.AperFunction,SMDPad,CuDef*
G36*
G01*
X120735000Y-125420000D02*
X120735000Y-125280000D01*
G75*
G02*
X120805000Y-125210000I70000J0D01*
G01*
X121865000Y-125210000D01*
G75*
G02*
X121935000Y-125280000I0J-70000D01*
G01*
X121935000Y-125420000D01*
G75*
G02*
X121865000Y-125490000I-70000J0D01*
G01*
X120805000Y-125490000D01*
G75*
G02*
X120735000Y-125420000I0J70000D01*
G01*
G37*
G04 #@! TD.AperFunction*
G04 #@! TA.AperFunction,SMDPad,CuDef*
G36*
G01*
X120735000Y-125920000D02*
X120735000Y-125780000D01*
G75*
G02*
X120805000Y-125710000I70000J0D01*
G01*
X121865000Y-125710000D01*
G75*
G02*
X121935000Y-125780000I0J-70000D01*
G01*
X121935000Y-125920000D01*
G75*
G02*
X121865000Y-125990000I-70000J0D01*
G01*
X120805000Y-125990000D01*
G75*
G02*
X120735000Y-125920000I0J70000D01*
G01*
G37*
G04 #@! TD.AperFunction*
G04 #@! TA.AperFunction,SMDPad,CuDef*
G36*
G01*
X120735000Y-126420000D02*
X120735000Y-126280000D01*
G75*
G02*
X120805000Y-126210000I70000J0D01*
G01*
X121865000Y-126210000D01*
G75*
G02*
X121935000Y-126280000I0J-70000D01*
G01*
X121935000Y-126420000D01*
G75*
G02*
X121865000Y-126490000I-70000J0D01*
G01*
X120805000Y-126490000D01*
G75*
G02*
X120735000Y-126420000I0J70000D01*
G01*
G37*
G04 #@! TD.AperFunction*
G04 #@! TA.AperFunction,SMDPad,CuDef*
G36*
G01*
X122215000Y-126700000D02*
X122355000Y-126700000D01*
G75*
G02*
X122425000Y-126770000I0J-70000D01*
G01*
X122425000Y-127830000D01*
G75*
G02*
X122355000Y-127900000I-70000J0D01*
G01*
X122215000Y-127900000D01*
G75*
G02*
X122145000Y-127830000I0J70000D01*
G01*
X122145000Y-126770000D01*
G75*
G02*
X122215000Y-126700000I70000J0D01*
G01*
G37*
G04 #@! TD.AperFunction*
G04 #@! TA.AperFunction,SMDPad,CuDef*
G36*
G01*
X122715000Y-126700000D02*
X122855000Y-126700000D01*
G75*
G02*
X122925000Y-126770000I0J-70000D01*
G01*
X122925000Y-127830000D01*
G75*
G02*
X122855000Y-127900000I-70000J0D01*
G01*
X122715000Y-127900000D01*
G75*
G02*
X122645000Y-127830000I0J70000D01*
G01*
X122645000Y-126770000D01*
G75*
G02*
X122715000Y-126700000I70000J0D01*
G01*
G37*
G04 #@! TD.AperFunction*
G04 #@! TA.AperFunction,SMDPad,CuDef*
G36*
G01*
X123215000Y-126700000D02*
X123355000Y-126700000D01*
G75*
G02*
X123425000Y-126770000I0J-70000D01*
G01*
X123425000Y-127830000D01*
G75*
G02*
X123355000Y-127900000I-70000J0D01*
G01*
X123215000Y-127900000D01*
G75*
G02*
X123145000Y-127830000I0J70000D01*
G01*
X123145000Y-126770000D01*
G75*
G02*
X123215000Y-126700000I70000J0D01*
G01*
G37*
G04 #@! TD.AperFunction*
G04 #@! TA.AperFunction,SMDPad,CuDef*
G36*
G01*
X123715000Y-126700000D02*
X123855000Y-126700000D01*
G75*
G02*
X123925000Y-126770000I0J-70000D01*
G01*
X123925000Y-127830000D01*
G75*
G02*
X123855000Y-127900000I-70000J0D01*
G01*
X123715000Y-127900000D01*
G75*
G02*
X123645000Y-127830000I0J70000D01*
G01*
X123645000Y-126770000D01*
G75*
G02*
X123715000Y-126700000I70000J0D01*
G01*
G37*
G04 #@! TD.AperFunction*
G04 #@! TA.AperFunction,SMDPad,CuDef*
G36*
G01*
X124215000Y-126700000D02*
X124355000Y-126700000D01*
G75*
G02*
X124425000Y-126770000I0J-70000D01*
G01*
X124425000Y-127830000D01*
G75*
G02*
X124355000Y-127900000I-70000J0D01*
G01*
X124215000Y-127900000D01*
G75*
G02*
X124145000Y-127830000I0J70000D01*
G01*
X124145000Y-126770000D01*
G75*
G02*
X124215000Y-126700000I70000J0D01*
G01*
G37*
G04 #@! TD.AperFunction*
G04 #@! TA.AperFunction,SMDPad,CuDef*
G36*
G01*
X124715000Y-126700000D02*
X124855000Y-126700000D01*
G75*
G02*
X124925000Y-126770000I0J-70000D01*
G01*
X124925000Y-127830000D01*
G75*
G02*
X124855000Y-127900000I-70000J0D01*
G01*
X124715000Y-127900000D01*
G75*
G02*
X124645000Y-127830000I0J70000D01*
G01*
X124645000Y-126770000D01*
G75*
G02*
X124715000Y-126700000I70000J0D01*
G01*
G37*
G04 #@! TD.AperFunction*
G04 #@! TA.AperFunction,SMDPad,CuDef*
G36*
G01*
X125215000Y-126700000D02*
X125355000Y-126700000D01*
G75*
G02*
X125425000Y-126770000I0J-70000D01*
G01*
X125425000Y-127830000D01*
G75*
G02*
X125355000Y-127900000I-70000J0D01*
G01*
X125215000Y-127900000D01*
G75*
G02*
X125145000Y-127830000I0J70000D01*
G01*
X125145000Y-126770000D01*
G75*
G02*
X125215000Y-126700000I70000J0D01*
G01*
G37*
G04 #@! TD.AperFunction*
G04 #@! TA.AperFunction,SMDPad,CuDef*
G36*
G01*
X125715000Y-126700000D02*
X125855000Y-126700000D01*
G75*
G02*
X125925000Y-126770000I0J-70000D01*
G01*
X125925000Y-127830000D01*
G75*
G02*
X125855000Y-127900000I-70000J0D01*
G01*
X125715000Y-127900000D01*
G75*
G02*
X125645000Y-127830000I0J70000D01*
G01*
X125645000Y-126770000D01*
G75*
G02*
X125715000Y-126700000I70000J0D01*
G01*
G37*
G04 #@! TD.AperFunction*
G04 #@! TA.AperFunction,SMDPad,CuDef*
G36*
G01*
X128900000Y-121870000D02*
X128900000Y-121530000D01*
G75*
G02*
X129040000Y-121390000I140000J0D01*
G01*
X129320000Y-121390000D01*
G75*
G02*
X129460000Y-121530000I0J-140000D01*
G01*
X129460000Y-121870000D01*
G75*
G02*
X129320000Y-122010000I-140000J0D01*
G01*
X129040000Y-122010000D01*
G75*
G02*
X128900000Y-121870000I0J140000D01*
G01*
G37*
G04 #@! TD.AperFunction*
G04 #@! TA.AperFunction,SMDPad,CuDef*
G36*
G01*
X127940000Y-121870000D02*
X127940000Y-121530000D01*
G75*
G02*
X128080000Y-121390000I140000J0D01*
G01*
X128360000Y-121390000D01*
G75*
G02*
X128500000Y-121530000I0J-140000D01*
G01*
X128500000Y-121870000D01*
G75*
G02*
X128360000Y-122010000I-140000J0D01*
G01*
X128080000Y-122010000D01*
G75*
G02*
X127940000Y-121870000I0J140000D01*
G01*
G37*
G04 #@! TD.AperFunction*
G04 #@! TA.AperFunction,SMDPad,CuDef*
G36*
G01*
X119970000Y-127000000D02*
X119630000Y-127000000D01*
G75*
G02*
X119490000Y-126860000I0J140000D01*
G01*
X119490000Y-126580000D01*
G75*
G02*
X119630000Y-126440000I140000J0D01*
G01*
X119970000Y-126440000D01*
G75*
G02*
X120110000Y-126580000I0J-140000D01*
G01*
X120110000Y-126860000D01*
G75*
G02*
X119970000Y-127000000I-140000J0D01*
G01*
G37*
G04 #@! TD.AperFunction*
G04 #@! TA.AperFunction,SMDPad,CuDef*
G36*
G01*
X119970000Y-127960000D02*
X119630000Y-127960000D01*
G75*
G02*
X119490000Y-127820000I0J140000D01*
G01*
X119490000Y-127540000D01*
G75*
G02*
X119630000Y-127400000I140000J0D01*
G01*
X119970000Y-127400000D01*
G75*
G02*
X120110000Y-127540000I0J-140000D01*
G01*
X120110000Y-127820000D01*
G75*
G02*
X119970000Y-127960000I-140000J0D01*
G01*
G37*
G04 #@! TD.AperFunction*
D23*
X149300000Y-117500000D03*
D24*
X146750000Y-122200000D03*
X153400000Y-122200000D03*
G04 #@! TA.AperFunction,SMDPad,CuDef*
G36*
G01*
X142470000Y-112700000D02*
X142130000Y-112700000D01*
G75*
G02*
X141990000Y-112560000I0J140000D01*
G01*
X141990000Y-112280000D01*
G75*
G02*
X142130000Y-112140000I140000J0D01*
G01*
X142470000Y-112140000D01*
G75*
G02*
X142610000Y-112280000I0J-140000D01*
G01*
X142610000Y-112560000D01*
G75*
G02*
X142470000Y-112700000I-140000J0D01*
G01*
G37*
G04 #@! TD.AperFunction*
G04 #@! TA.AperFunction,SMDPad,CuDef*
G36*
G01*
X142470000Y-113660000D02*
X142130000Y-113660000D01*
G75*
G02*
X141990000Y-113520000I0J140000D01*
G01*
X141990000Y-113240000D01*
G75*
G02*
X142130000Y-113100000I140000J0D01*
G01*
X142470000Y-113100000D01*
G75*
G02*
X142610000Y-113240000I0J-140000D01*
G01*
X142610000Y-113520000D01*
G75*
G02*
X142470000Y-113660000I-140000J0D01*
G01*
G37*
G04 #@! TD.AperFunction*
D25*
X140850000Y-113700000D03*
X138950000Y-113700000D03*
X138950000Y-111500000D03*
X139900000Y-111500000D03*
X140850000Y-111500000D03*
D26*
X150050000Y-115100000D03*
X150050000Y-111900000D03*
X145150000Y-115100000D03*
X145150000Y-111900000D03*
G04 #@! TA.AperFunction,SMDPad,CuDef*
G36*
G01*
X147300000Y-133200000D02*
X147300000Y-131200000D01*
G75*
G02*
X147550000Y-130950000I250000J0D01*
G01*
X151450000Y-130950000D01*
G75*
G02*
X151700000Y-131200000I0J-250000D01*
G01*
X151700000Y-133200000D01*
G75*
G02*
X151450000Y-133450000I-250000J0D01*
G01*
X147550000Y-133450000D01*
G75*
G02*
X147300000Y-133200000I0J250000D01*
G01*
G37*
G04 #@! TD.AperFunction*
G04 #@! TA.AperFunction,SMDPad,CuDef*
G36*
G01*
X139900000Y-133200000D02*
X139900000Y-131200000D01*
G75*
G02*
X140150000Y-130950000I250000J0D01*
G01*
X144050000Y-130950000D01*
G75*
G02*
X144300000Y-131200000I0J-250000D01*
G01*
X144300000Y-133200000D01*
G75*
G02*
X144050000Y-133450000I-250000J0D01*
G01*
X140150000Y-133450000D01*
G75*
G02*
X139900000Y-133200000I0J250000D01*
G01*
G37*
G04 #@! TD.AperFunction*
G04 #@! TA.AperFunction,SMDPad,CuDef*
G36*
G01*
X144270000Y-96800000D02*
X143930000Y-96800000D01*
G75*
G02*
X143790000Y-96660000I0J140000D01*
G01*
X143790000Y-96380000D01*
G75*
G02*
X143930000Y-96240000I140000J0D01*
G01*
X144270000Y-96240000D01*
G75*
G02*
X144410000Y-96380000I0J-140000D01*
G01*
X144410000Y-96660000D01*
G75*
G02*
X144270000Y-96800000I-140000J0D01*
G01*
G37*
G04 #@! TD.AperFunction*
G04 #@! TA.AperFunction,SMDPad,CuDef*
G36*
G01*
X144270000Y-97760000D02*
X143930000Y-97760000D01*
G75*
G02*
X143790000Y-97620000I0J140000D01*
G01*
X143790000Y-97340000D01*
G75*
G02*
X143930000Y-97200000I140000J0D01*
G01*
X144270000Y-97200000D01*
G75*
G02*
X144410000Y-97340000I0J-140000D01*
G01*
X144410000Y-97620000D01*
G75*
G02*
X144270000Y-97760000I-140000J0D01*
G01*
G37*
G04 #@! TD.AperFunction*
G04 #@! TA.AperFunction,SMDPad,CuDef*
G36*
G01*
X146500000Y-94530000D02*
X146500000Y-94870000D01*
G75*
G02*
X146360000Y-95010000I-140000J0D01*
G01*
X146080000Y-95010000D01*
G75*
G02*
X145940000Y-94870000I0J140000D01*
G01*
X145940000Y-94530000D01*
G75*
G02*
X146080000Y-94390000I140000J0D01*
G01*
X146360000Y-94390000D01*
G75*
G02*
X146500000Y-94530000I0J-140000D01*
G01*
G37*
G04 #@! TD.AperFunction*
G04 #@! TA.AperFunction,SMDPad,CuDef*
G36*
G01*
X147460000Y-94530000D02*
X147460000Y-94870000D01*
G75*
G02*
X147320000Y-95010000I-140000J0D01*
G01*
X147040000Y-95010000D01*
G75*
G02*
X146900000Y-94870000I0J140000D01*
G01*
X146900000Y-94530000D01*
G75*
G02*
X147040000Y-94390000I140000J0D01*
G01*
X147320000Y-94390000D01*
G75*
G02*
X147460000Y-94530000I0J-140000D01*
G01*
G37*
G04 #@! TD.AperFunction*
G04 #@! TA.AperFunction,SMDPad,CuDef*
G36*
G01*
X145450000Y-125925000D02*
X145950000Y-125925000D01*
G75*
G02*
X146175000Y-126150000I0J-225000D01*
G01*
X146175000Y-126600000D01*
G75*
G02*
X145950000Y-126825000I-225000J0D01*
G01*
X145450000Y-126825000D01*
G75*
G02*
X145225000Y-126600000I0J225000D01*
G01*
X145225000Y-126150000D01*
G75*
G02*
X145450000Y-125925000I225000J0D01*
G01*
G37*
G04 #@! TD.AperFunction*
G04 #@! TA.AperFunction,SMDPad,CuDef*
G36*
G01*
X145450000Y-124375000D02*
X145950000Y-124375000D01*
G75*
G02*
X146175000Y-124600000I0J-225000D01*
G01*
X146175000Y-125050000D01*
G75*
G02*
X145950000Y-125275000I-225000J0D01*
G01*
X145450000Y-125275000D01*
G75*
G02*
X145225000Y-125050000I0J225000D01*
G01*
X145225000Y-124600000D01*
G75*
G02*
X145450000Y-124375000I225000J0D01*
G01*
G37*
G04 #@! TD.AperFunction*
G04 #@! TA.AperFunction,SMDPad,CuDef*
G36*
G01*
X144000000Y-108695000D02*
X144000000Y-108995000D01*
G75*
G02*
X143850000Y-109145000I-150000J0D01*
G01*
X142200000Y-109145000D01*
G75*
G02*
X142050000Y-108995000I0J150000D01*
G01*
X142050000Y-108695000D01*
G75*
G02*
X142200000Y-108545000I150000J0D01*
G01*
X143850000Y-108545000D01*
G75*
G02*
X144000000Y-108695000I0J-150000D01*
G01*
G37*
G04 #@! TD.AperFunction*
G04 #@! TA.AperFunction,SMDPad,CuDef*
G36*
G01*
X144000000Y-107425000D02*
X144000000Y-107725000D01*
G75*
G02*
X143850000Y-107875000I-150000J0D01*
G01*
X142200000Y-107875000D01*
G75*
G02*
X142050000Y-107725000I0J150000D01*
G01*
X142050000Y-107425000D01*
G75*
G02*
X142200000Y-107275000I150000J0D01*
G01*
X143850000Y-107275000D01*
G75*
G02*
X144000000Y-107425000I0J-150000D01*
G01*
G37*
G04 #@! TD.AperFunction*
G04 #@! TA.AperFunction,SMDPad,CuDef*
G36*
G01*
X144000000Y-106155000D02*
X144000000Y-106455000D01*
G75*
G02*
X143850000Y-106605000I-150000J0D01*
G01*
X142200000Y-106605000D01*
G75*
G02*
X142050000Y-106455000I0J150000D01*
G01*
X142050000Y-106155000D01*
G75*
G02*
X142200000Y-106005000I150000J0D01*
G01*
X143850000Y-106005000D01*
G75*
G02*
X144000000Y-106155000I0J-150000D01*
G01*
G37*
G04 #@! TD.AperFunction*
G04 #@! TA.AperFunction,SMDPad,CuDef*
G36*
G01*
X144000000Y-104885000D02*
X144000000Y-105185000D01*
G75*
G02*
X143850000Y-105335000I-150000J0D01*
G01*
X142200000Y-105335000D01*
G75*
G02*
X142050000Y-105185000I0J150000D01*
G01*
X142050000Y-104885000D01*
G75*
G02*
X142200000Y-104735000I150000J0D01*
G01*
X143850000Y-104735000D01*
G75*
G02*
X144000000Y-104885000I0J-150000D01*
G01*
G37*
G04 #@! TD.AperFunction*
G04 #@! TA.AperFunction,SMDPad,CuDef*
G36*
G01*
X144000000Y-103615000D02*
X144000000Y-103915000D01*
G75*
G02*
X143850000Y-104065000I-150000J0D01*
G01*
X142200000Y-104065000D01*
G75*
G02*
X142050000Y-103915000I0J150000D01*
G01*
X142050000Y-103615000D01*
G75*
G02*
X142200000Y-103465000I150000J0D01*
G01*
X143850000Y-103465000D01*
G75*
G02*
X144000000Y-103615000I0J-150000D01*
G01*
G37*
G04 #@! TD.AperFunction*
G04 #@! TA.AperFunction,SMDPad,CuDef*
G36*
G01*
X144000000Y-102345000D02*
X144000000Y-102645000D01*
G75*
G02*
X143850000Y-102795000I-150000J0D01*
G01*
X142200000Y-102795000D01*
G75*
G02*
X142050000Y-102645000I0J150000D01*
G01*
X142050000Y-102345000D01*
G75*
G02*
X142200000Y-102195000I150000J0D01*
G01*
X143850000Y-102195000D01*
G75*
G02*
X144000000Y-102345000I0J-150000D01*
G01*
G37*
G04 #@! TD.AperFunction*
G04 #@! TA.AperFunction,SMDPad,CuDef*
G36*
G01*
X144000000Y-101075000D02*
X144000000Y-101375000D01*
G75*
G02*
X143850000Y-101525000I-150000J0D01*
G01*
X142200000Y-101525000D01*
G75*
G02*
X142050000Y-101375000I0J150000D01*
G01*
X142050000Y-101075000D01*
G75*
G02*
X142200000Y-100925000I150000J0D01*
G01*
X143850000Y-100925000D01*
G75*
G02*
X144000000Y-101075000I0J-150000D01*
G01*
G37*
G04 #@! TD.AperFunction*
G04 #@! TA.AperFunction,SMDPad,CuDef*
G36*
G01*
X144000000Y-99805000D02*
X144000000Y-100105000D01*
G75*
G02*
X143850000Y-100255000I-150000J0D01*
G01*
X142200000Y-100255000D01*
G75*
G02*
X142050000Y-100105000I0J150000D01*
G01*
X142050000Y-99805000D01*
G75*
G02*
X142200000Y-99655000I150000J0D01*
G01*
X143850000Y-99655000D01*
G75*
G02*
X144000000Y-99805000I0J-150000D01*
G01*
G37*
G04 #@! TD.AperFunction*
G04 #@! TA.AperFunction,SMDPad,CuDef*
G36*
G01*
X148950000Y-99805000D02*
X148950000Y-100105000D01*
G75*
G02*
X148800000Y-100255000I-150000J0D01*
G01*
X147150000Y-100255000D01*
G75*
G02*
X147000000Y-100105000I0J150000D01*
G01*
X147000000Y-99805000D01*
G75*
G02*
X147150000Y-99655000I150000J0D01*
G01*
X148800000Y-99655000D01*
G75*
G02*
X148950000Y-99805000I0J-150000D01*
G01*
G37*
G04 #@! TD.AperFunction*
G04 #@! TA.AperFunction,SMDPad,CuDef*
G36*
G01*
X148950000Y-101075000D02*
X148950000Y-101375000D01*
G75*
G02*
X148800000Y-101525000I-150000J0D01*
G01*
X147150000Y-101525000D01*
G75*
G02*
X147000000Y-101375000I0J150000D01*
G01*
X147000000Y-101075000D01*
G75*
G02*
X147150000Y-100925000I150000J0D01*
G01*
X148800000Y-100925000D01*
G75*
G02*
X148950000Y-101075000I0J-150000D01*
G01*
G37*
G04 #@! TD.AperFunction*
G04 #@! TA.AperFunction,SMDPad,CuDef*
G36*
G01*
X148950000Y-102345000D02*
X148950000Y-102645000D01*
G75*
G02*
X148800000Y-102795000I-150000J0D01*
G01*
X147150000Y-102795000D01*
G75*
G02*
X147000000Y-102645000I0J150000D01*
G01*
X147000000Y-102345000D01*
G75*
G02*
X147150000Y-102195000I150000J0D01*
G01*
X148800000Y-102195000D01*
G75*
G02*
X148950000Y-102345000I0J-150000D01*
G01*
G37*
G04 #@! TD.AperFunction*
G04 #@! TA.AperFunction,SMDPad,CuDef*
G36*
G01*
X148950000Y-103615000D02*
X148950000Y-103915000D01*
G75*
G02*
X148800000Y-104065000I-150000J0D01*
G01*
X147150000Y-104065000D01*
G75*
G02*
X147000000Y-103915000I0J150000D01*
G01*
X147000000Y-103615000D01*
G75*
G02*
X147150000Y-103465000I150000J0D01*
G01*
X148800000Y-103465000D01*
G75*
G02*
X148950000Y-103615000I0J-150000D01*
G01*
G37*
G04 #@! TD.AperFunction*
G04 #@! TA.AperFunction,SMDPad,CuDef*
G36*
G01*
X148950000Y-104885000D02*
X148950000Y-105185000D01*
G75*
G02*
X148800000Y-105335000I-150000J0D01*
G01*
X147150000Y-105335000D01*
G75*
G02*
X147000000Y-105185000I0J150000D01*
G01*
X147000000Y-104885000D01*
G75*
G02*
X147150000Y-104735000I150000J0D01*
G01*
X148800000Y-104735000D01*
G75*
G02*
X148950000Y-104885000I0J-150000D01*
G01*
G37*
G04 #@! TD.AperFunction*
G04 #@! TA.AperFunction,SMDPad,CuDef*
G36*
G01*
X148950000Y-106155000D02*
X148950000Y-106455000D01*
G75*
G02*
X148800000Y-106605000I-150000J0D01*
G01*
X147150000Y-106605000D01*
G75*
G02*
X147000000Y-106455000I0J150000D01*
G01*
X147000000Y-106155000D01*
G75*
G02*
X147150000Y-106005000I150000J0D01*
G01*
X148800000Y-106005000D01*
G75*
G02*
X148950000Y-106155000I0J-150000D01*
G01*
G37*
G04 #@! TD.AperFunction*
G04 #@! TA.AperFunction,SMDPad,CuDef*
G36*
G01*
X148950000Y-107425000D02*
X148950000Y-107725000D01*
G75*
G02*
X148800000Y-107875000I-150000J0D01*
G01*
X147150000Y-107875000D01*
G75*
G02*
X147000000Y-107725000I0J150000D01*
G01*
X147000000Y-107425000D01*
G75*
G02*
X147150000Y-107275000I150000J0D01*
G01*
X148800000Y-107275000D01*
G75*
G02*
X148950000Y-107425000I0J-150000D01*
G01*
G37*
G04 #@! TD.AperFunction*
G04 #@! TA.AperFunction,SMDPad,CuDef*
G36*
G01*
X148950000Y-108695000D02*
X148950000Y-108995000D01*
G75*
G02*
X148800000Y-109145000I-150000J0D01*
G01*
X147150000Y-109145000D01*
G75*
G02*
X147000000Y-108995000I0J150000D01*
G01*
X147000000Y-108695000D01*
G75*
G02*
X147150000Y-108545000I150000J0D01*
G01*
X148800000Y-108545000D01*
G75*
G02*
X148950000Y-108695000I0J-150000D01*
G01*
G37*
G04 #@! TD.AperFunction*
G04 #@! TA.AperFunction,SMDPad,CuDef*
G36*
G01*
X143855000Y-125400000D02*
X144155000Y-125400000D01*
G75*
G02*
X144305000Y-125550000I0J-150000D01*
G01*
X144305000Y-127200000D01*
G75*
G02*
X144155000Y-127350000I-150000J0D01*
G01*
X143855000Y-127350000D01*
G75*
G02*
X143705000Y-127200000I0J150000D01*
G01*
X143705000Y-125550000D01*
G75*
G02*
X143855000Y-125400000I150000J0D01*
G01*
G37*
G04 #@! TD.AperFunction*
G04 #@! TA.AperFunction,SMDPad,CuDef*
G36*
G01*
X142585000Y-125400000D02*
X142885000Y-125400000D01*
G75*
G02*
X143035000Y-125550000I0J-150000D01*
G01*
X143035000Y-127200000D01*
G75*
G02*
X142885000Y-127350000I-150000J0D01*
G01*
X142585000Y-127350000D01*
G75*
G02*
X142435000Y-127200000I0J150000D01*
G01*
X142435000Y-125550000D01*
G75*
G02*
X142585000Y-125400000I150000J0D01*
G01*
G37*
G04 #@! TD.AperFunction*
G04 #@! TA.AperFunction,SMDPad,CuDef*
G36*
G01*
X141315000Y-125400000D02*
X141615000Y-125400000D01*
G75*
G02*
X141765000Y-125550000I0J-150000D01*
G01*
X141765000Y-127200000D01*
G75*
G02*
X141615000Y-127350000I-150000J0D01*
G01*
X141315000Y-127350000D01*
G75*
G02*
X141165000Y-127200000I0J150000D01*
G01*
X141165000Y-125550000D01*
G75*
G02*
X141315000Y-125400000I150000J0D01*
G01*
G37*
G04 #@! TD.AperFunction*
G04 #@! TA.AperFunction,SMDPad,CuDef*
G36*
G01*
X140045000Y-125400000D02*
X140345000Y-125400000D01*
G75*
G02*
X140495000Y-125550000I0J-150000D01*
G01*
X140495000Y-127200000D01*
G75*
G02*
X140345000Y-127350000I-150000J0D01*
G01*
X140045000Y-127350000D01*
G75*
G02*
X139895000Y-127200000I0J150000D01*
G01*
X139895000Y-125550000D01*
G75*
G02*
X140045000Y-125400000I150000J0D01*
G01*
G37*
G04 #@! TD.AperFunction*
G04 #@! TA.AperFunction,SMDPad,CuDef*
G36*
G01*
X140045000Y-120450000D02*
X140345000Y-120450000D01*
G75*
G02*
X140495000Y-120600000I0J-150000D01*
G01*
X140495000Y-122250000D01*
G75*
G02*
X140345000Y-122400000I-150000J0D01*
G01*
X140045000Y-122400000D01*
G75*
G02*
X139895000Y-122250000I0J150000D01*
G01*
X139895000Y-120600000D01*
G75*
G02*
X140045000Y-120450000I150000J0D01*
G01*
G37*
G04 #@! TD.AperFunction*
G04 #@! TA.AperFunction,SMDPad,CuDef*
G36*
G01*
X141315000Y-120450000D02*
X141615000Y-120450000D01*
G75*
G02*
X141765000Y-120600000I0J-150000D01*
G01*
X141765000Y-122250000D01*
G75*
G02*
X141615000Y-122400000I-150000J0D01*
G01*
X141315000Y-122400000D01*
G75*
G02*
X141165000Y-122250000I0J150000D01*
G01*
X141165000Y-120600000D01*
G75*
G02*
X141315000Y-120450000I150000J0D01*
G01*
G37*
G04 #@! TD.AperFunction*
G04 #@! TA.AperFunction,SMDPad,CuDef*
G36*
G01*
X142585000Y-120450000D02*
X142885000Y-120450000D01*
G75*
G02*
X143035000Y-120600000I0J-150000D01*
G01*
X143035000Y-122250000D01*
G75*
G02*
X142885000Y-122400000I-150000J0D01*
G01*
X142585000Y-122400000D01*
G75*
G02*
X142435000Y-122250000I0J150000D01*
G01*
X142435000Y-120600000D01*
G75*
G02*
X142585000Y-120450000I150000J0D01*
G01*
G37*
G04 #@! TD.AperFunction*
G04 #@! TA.AperFunction,SMDPad,CuDef*
G36*
G01*
X143855000Y-120450000D02*
X144155000Y-120450000D01*
G75*
G02*
X144305000Y-120600000I0J-150000D01*
G01*
X144305000Y-122250000D01*
G75*
G02*
X144155000Y-122400000I-150000J0D01*
G01*
X143855000Y-122400000D01*
G75*
G02*
X143705000Y-122250000I0J150000D01*
G01*
X143705000Y-120600000D01*
G75*
G02*
X143855000Y-120450000I150000J0D01*
G01*
G37*
G04 #@! TD.AperFunction*
D27*
X139250000Y-129100000D03*
X135950000Y-129100000D03*
G04 #@! TA.AperFunction,SMDPad,CuDef*
G36*
G01*
X150272500Y-108710000D02*
X149927500Y-108710000D01*
G75*
G02*
X149780000Y-108562500I0J147500D01*
G01*
X149780000Y-108267500D01*
G75*
G02*
X149927500Y-108120000I147500J0D01*
G01*
X150272500Y-108120000D01*
G75*
G02*
X150420000Y-108267500I0J-147500D01*
G01*
X150420000Y-108562500D01*
G75*
G02*
X150272500Y-108710000I-147500J0D01*
G01*
G37*
G04 #@! TD.AperFunction*
G04 #@! TA.AperFunction,SMDPad,CuDef*
G36*
G01*
X150272500Y-109680000D02*
X149927500Y-109680000D01*
G75*
G02*
X149780000Y-109532500I0J147500D01*
G01*
X149780000Y-109237500D01*
G75*
G02*
X149927500Y-109090000I147500J0D01*
G01*
X150272500Y-109090000D01*
G75*
G02*
X150420000Y-109237500I0J-147500D01*
G01*
X150420000Y-109532500D01*
G75*
G02*
X150272500Y-109680000I-147500J0D01*
G01*
G37*
G04 #@! TD.AperFunction*
D28*
X152055000Y-100952000D03*
X152055000Y-101752000D03*
X152055000Y-106652000D03*
X152055000Y-107452000D03*
X152055000Y-107452000D03*
X152055000Y-106652000D03*
X152055000Y-101752000D03*
X152055000Y-100952000D03*
D29*
X152055000Y-105952000D03*
X152055000Y-105452000D03*
X152055000Y-104952000D03*
X152055000Y-103952000D03*
X152055000Y-103452000D03*
X152055000Y-102952000D03*
X152055000Y-102452000D03*
X152055000Y-104452000D03*
D30*
X152970000Y-99882000D03*
X152970000Y-108522000D03*
D31*
X157150000Y-108522000D03*
X157150000Y-99882000D03*
G04 #@! TA.AperFunction,SMDPad,CuDef*
G36*
G01*
X150285000Y-99560000D02*
X149915000Y-99560000D01*
G75*
G02*
X149780000Y-99425000I0J135000D01*
G01*
X149780000Y-99155000D01*
G75*
G02*
X149915000Y-99020000I135000J0D01*
G01*
X150285000Y-99020000D01*
G75*
G02*
X150420000Y-99155000I0J-135000D01*
G01*
X150420000Y-99425000D01*
G75*
G02*
X150285000Y-99560000I-135000J0D01*
G01*
G37*
G04 #@! TD.AperFunction*
G04 #@! TA.AperFunction,SMDPad,CuDef*
G36*
G01*
X150285000Y-100580000D02*
X149915000Y-100580000D01*
G75*
G02*
X149780000Y-100445000I0J135000D01*
G01*
X149780000Y-100175000D01*
G75*
G02*
X149915000Y-100040000I135000J0D01*
G01*
X150285000Y-100040000D01*
G75*
G02*
X150420000Y-100175000I0J-135000D01*
G01*
X150420000Y-100445000D01*
G75*
G02*
X150285000Y-100580000I-135000J0D01*
G01*
G37*
G04 #@! TD.AperFunction*
G04 #@! TA.AperFunction,SMDPad,CuDef*
G36*
G01*
X149915000Y-107040000D02*
X150285000Y-107040000D01*
G75*
G02*
X150420000Y-107175000I0J-135000D01*
G01*
X150420000Y-107445000D01*
G75*
G02*
X150285000Y-107580000I-135000J0D01*
G01*
X149915000Y-107580000D01*
G75*
G02*
X149780000Y-107445000I0J135000D01*
G01*
X149780000Y-107175000D01*
G75*
G02*
X149915000Y-107040000I135000J0D01*
G01*
G37*
G04 #@! TD.AperFunction*
G04 #@! TA.AperFunction,SMDPad,CuDef*
G36*
G01*
X149915000Y-106020000D02*
X150285000Y-106020000D01*
G75*
G02*
X150420000Y-106155000I0J-135000D01*
G01*
X150420000Y-106425000D01*
G75*
G02*
X150285000Y-106560000I-135000J0D01*
G01*
X149915000Y-106560000D01*
G75*
G02*
X149780000Y-106425000I0J135000D01*
G01*
X149780000Y-106155000D01*
G75*
G02*
X149915000Y-106020000I135000J0D01*
G01*
G37*
G04 #@! TD.AperFunction*
G04 #@! TA.AperFunction,SMDPad,CuDef*
G36*
G01*
X117172500Y-101710000D02*
X116827500Y-101710000D01*
G75*
G02*
X116680000Y-101562500I0J147500D01*
G01*
X116680000Y-101267500D01*
G75*
G02*
X116827500Y-101120000I147500J0D01*
G01*
X117172500Y-101120000D01*
G75*
G02*
X117320000Y-101267500I0J-147500D01*
G01*
X117320000Y-101562500D01*
G75*
G02*
X117172500Y-101710000I-147500J0D01*
G01*
G37*
G04 #@! TD.AperFunction*
G04 #@! TA.AperFunction,SMDPad,CuDef*
G36*
G01*
X117172500Y-102680000D02*
X116827500Y-102680000D01*
G75*
G02*
X116680000Y-102532500I0J147500D01*
G01*
X116680000Y-102237500D01*
G75*
G02*
X116827500Y-102090000I147500J0D01*
G01*
X117172500Y-102090000D01*
G75*
G02*
X117320000Y-102237500I0J-147500D01*
G01*
X117320000Y-102532500D01*
G75*
G02*
X117172500Y-102680000I-147500J0D01*
G01*
G37*
G04 #@! TD.AperFunction*
G04 #@! TA.AperFunction,SMDPad,CuDef*
G36*
G01*
X138010000Y-104827500D02*
X138010000Y-105172500D01*
G75*
G02*
X137862500Y-105320000I-147500J0D01*
G01*
X137567500Y-105320000D01*
G75*
G02*
X137420000Y-105172500I0J147500D01*
G01*
X137420000Y-104827500D01*
G75*
G02*
X137567500Y-104680000I147500J0D01*
G01*
X137862500Y-104680000D01*
G75*
G02*
X138010000Y-104827500I0J-147500D01*
G01*
G37*
G04 #@! TD.AperFunction*
G04 #@! TA.AperFunction,SMDPad,CuDef*
G36*
G01*
X138980000Y-104827500D02*
X138980000Y-105172500D01*
G75*
G02*
X138832500Y-105320000I-147500J0D01*
G01*
X138537500Y-105320000D01*
G75*
G02*
X138390000Y-105172500I0J147500D01*
G01*
X138390000Y-104827500D01*
G75*
G02*
X138537500Y-104680000I147500J0D01*
G01*
X138832500Y-104680000D01*
G75*
G02*
X138980000Y-104827500I0J-147500D01*
G01*
G37*
G04 #@! TD.AperFunction*
D32*
X158875000Y-110400000D03*
X155125000Y-110400000D03*
X155125000Y-116400000D03*
X158875000Y-116400000D03*
G04 #@! TA.AperFunction,SMDPad,CuDef*
G36*
G01*
X140790000Y-106472500D02*
X140790000Y-106127500D01*
G75*
G02*
X140937500Y-105980000I147500J0D01*
G01*
X141232500Y-105980000D01*
G75*
G02*
X141380000Y-106127500I0J-147500D01*
G01*
X141380000Y-106472500D01*
G75*
G02*
X141232500Y-106620000I-147500J0D01*
G01*
X140937500Y-106620000D01*
G75*
G02*
X140790000Y-106472500I0J147500D01*
G01*
G37*
G04 #@! TD.AperFunction*
G04 #@! TA.AperFunction,SMDPad,CuDef*
G36*
G01*
X139820000Y-106472500D02*
X139820000Y-106127500D01*
G75*
G02*
X139967500Y-105980000I147500J0D01*
G01*
X140262500Y-105980000D01*
G75*
G02*
X140410000Y-106127500I0J-147500D01*
G01*
X140410000Y-106472500D01*
G75*
G02*
X140262500Y-106620000I-147500J0D01*
G01*
X139967500Y-106620000D01*
G75*
G02*
X139820000Y-106472500I0J147500D01*
G01*
G37*
G04 #@! TD.AperFunction*
G04 #@! TA.AperFunction,SMDPad,CuDef*
G36*
G01*
X140790000Y-105172500D02*
X140790000Y-104827500D01*
G75*
G02*
X140937500Y-104680000I147500J0D01*
G01*
X141232500Y-104680000D01*
G75*
G02*
X141380000Y-104827500I0J-147500D01*
G01*
X141380000Y-105172500D01*
G75*
G02*
X141232500Y-105320000I-147500J0D01*
G01*
X140937500Y-105320000D01*
G75*
G02*
X140790000Y-105172500I0J147500D01*
G01*
G37*
G04 #@! TD.AperFunction*
G04 #@! TA.AperFunction,SMDPad,CuDef*
G36*
G01*
X139820000Y-105172500D02*
X139820000Y-104827500D01*
G75*
G02*
X139967500Y-104680000I147500J0D01*
G01*
X140262500Y-104680000D01*
G75*
G02*
X140410000Y-104827500I0J-147500D01*
G01*
X140410000Y-105172500D01*
G75*
G02*
X140262500Y-105320000I-147500J0D01*
G01*
X139967500Y-105320000D01*
G75*
G02*
X139820000Y-105172500I0J147500D01*
G01*
G37*
G04 #@! TD.AperFunction*
D33*
X138800000Y-102500000D03*
X140800000Y-101550000D03*
X140800000Y-103450000D03*
X138800000Y-108800000D03*
X140800000Y-107850000D03*
X140800000Y-109750000D03*
G04 #@! TA.AperFunction,SMDPad,CuDef*
G36*
G01*
X151510000Y-109927500D02*
X151510000Y-110272500D01*
G75*
G02*
X151362500Y-110420000I-147500J0D01*
G01*
X151067500Y-110420000D01*
G75*
G02*
X150920000Y-110272500I0J147500D01*
G01*
X150920000Y-109927500D01*
G75*
G02*
X151067500Y-109780000I147500J0D01*
G01*
X151362500Y-109780000D01*
G75*
G02*
X151510000Y-109927500I0J-147500D01*
G01*
G37*
G04 #@! TD.AperFunction*
G04 #@! TA.AperFunction,SMDPad,CuDef*
G36*
G01*
X152480000Y-109927500D02*
X152480000Y-110272500D01*
G75*
G02*
X152332500Y-110420000I-147500J0D01*
G01*
X152037500Y-110420000D01*
G75*
G02*
X151890000Y-110272500I0J147500D01*
G01*
X151890000Y-109927500D01*
G75*
G02*
X152037500Y-109780000I147500J0D01*
G01*
X152332500Y-109780000D01*
G75*
G02*
X152480000Y-109927500I0J-147500D01*
G01*
G37*
G04 #@! TD.AperFunction*
G04 #@! TA.AperFunction,SMDPad,CuDef*
G36*
G01*
X142990000Y-110472500D02*
X142990000Y-110127500D01*
G75*
G02*
X143137500Y-109980000I147500J0D01*
G01*
X143432500Y-109980000D01*
G75*
G02*
X143580000Y-110127500I0J-147500D01*
G01*
X143580000Y-110472500D01*
G75*
G02*
X143432500Y-110620000I-147500J0D01*
G01*
X143137500Y-110620000D01*
G75*
G02*
X142990000Y-110472500I0J147500D01*
G01*
G37*
G04 #@! TD.AperFunction*
G04 #@! TA.AperFunction,SMDPad,CuDef*
G36*
G01*
X142020000Y-110472500D02*
X142020000Y-110127500D01*
G75*
G02*
X142167500Y-109980000I147500J0D01*
G01*
X142462500Y-109980000D01*
G75*
G02*
X142610000Y-110127500I0J-147500D01*
G01*
X142610000Y-110472500D01*
G75*
G02*
X142462500Y-110620000I-147500J0D01*
G01*
X142167500Y-110620000D01*
G75*
G02*
X142020000Y-110472500I0J147500D01*
G01*
G37*
G04 #@! TD.AperFunction*
D34*
X126500000Y-108800000D03*
D35*
X134300000Y-101300000D03*
X116000000Y-101300000D03*
X121700000Y-117200000D03*
D36*
X141891797Y-111853003D03*
D35*
X140195000Y-128155000D03*
D36*
X139500000Y-121100000D03*
X130700000Y-134700000D03*
D37*
X124035000Y-124600000D03*
D35*
X138000000Y-118200000D03*
X144500000Y-116800000D03*
D34*
X134280000Y-134700000D03*
D36*
X118200000Y-119000000D03*
X122100000Y-129320600D03*
X147500000Y-98700000D03*
X150300000Y-98700000D03*
X144200000Y-95100000D03*
D37*
X107100000Y-106700000D03*
D36*
X129100000Y-122500000D03*
X110100000Y-113500000D03*
X131700000Y-128600000D03*
D35*
X116600000Y-127000000D03*
D36*
X150800000Y-108400000D03*
X144700000Y-108700000D03*
D35*
X142790396Y-114387400D03*
X115800000Y-102800000D03*
D36*
X141104700Y-115800000D03*
X123600000Y-129100000D03*
X131000000Y-126100000D03*
X149300000Y-109500000D03*
X139400000Y-109800000D03*
X120300000Y-103800000D03*
X138400000Y-107800000D03*
X133800000Y-105600000D03*
X133800000Y-107800000D03*
X137600000Y-102200000D03*
X134500000Y-117700000D03*
X139800000Y-107200000D03*
X139800000Y-104000000D03*
X134500000Y-106400000D03*
X146300000Y-107500000D03*
X146200000Y-106500000D03*
X138800000Y-103800000D03*
X116300000Y-108600000D03*
D37*
X112000000Y-106400000D03*
D35*
X118200000Y-132200000D03*
X122000000Y-133203300D03*
X115700000Y-116300000D03*
X115600000Y-121900000D03*
X132000000Y-120800000D03*
X141900000Y-119000000D03*
X141400000Y-114700000D03*
D36*
X139800000Y-113600000D03*
X144200000Y-113800000D03*
D35*
X126900000Y-132200000D03*
X120006738Y-132306814D03*
D36*
X150900000Y-106600000D03*
X150800000Y-101600000D03*
D35*
X153000000Y-111200000D03*
D36*
X134500000Y-110300000D03*
X126300000Y-121000000D03*
X132800000Y-106800000D03*
X125150344Y-120416368D03*
X132200000Y-111400000D03*
X124356667Y-120390648D03*
X131600000Y-112500000D03*
X123190302Y-120709698D03*
X130900000Y-116400000D03*
X122200000Y-120700000D03*
X126479400Y-129127021D03*
X122100000Y-130400000D03*
X127600000Y-129000000D03*
X116300000Y-130400000D03*
X127792836Y-131241420D03*
X121700000Y-136500000D03*
X128635438Y-131159236D03*
X128400000Y-135200000D03*
D37*
X124400000Y-134300000D03*
D36*
X129413663Y-128726791D03*
X129400000Y-133600000D03*
X130300000Y-128600000D03*
X130120600Y-133100000D03*
X118700000Y-122700000D03*
X116000000Y-119400000D03*
X111200000Y-126000000D03*
X118100000Y-125600000D03*
X117700000Y-122600000D03*
X116700000Y-125429400D03*
X116700000Y-122600000D03*
X122200000Y-128500000D03*
X120600000Y-115300000D03*
X124700000Y-128900000D03*
X120500000Y-114000000D03*
X121400000Y-114000000D03*
X126600000Y-127100000D03*
X117400000Y-110900000D03*
X116900000Y-108000000D03*
X117100000Y-107000000D03*
X115600000Y-105100000D03*
X115800000Y-104100000D03*
X123000000Y-117200000D03*
X129900000Y-116200000D03*
X130900000Y-113700000D03*
X130600000Y-114500000D03*
X134100000Y-103800000D03*
X132200000Y-103800000D03*
X131900000Y-106100000D03*
D38*
X152378000Y-99290000D02*
X152970000Y-99882000D01*
X150100000Y-99290000D02*
X152378000Y-99290000D01*
X150242000Y-107452000D02*
X150100000Y-107310000D01*
X152055000Y-107452000D02*
X150242000Y-107452000D01*
D39*
X117138000Y-101277000D02*
X117000000Y-101415000D01*
X118986000Y-101277000D02*
X117138000Y-101277000D01*
X147975000Y-108845000D02*
X146255000Y-108845000D01*
X146255000Y-108845000D02*
X144800000Y-110300000D01*
D40*
X126486000Y-108786000D02*
X126500000Y-108800000D01*
X126486000Y-108777000D02*
X126486000Y-108786000D01*
X152647000Y-108845000D02*
X152970000Y-108522000D01*
D39*
X134323000Y-101277000D02*
X134300000Y-101300000D01*
X135986000Y-101277000D02*
X134323000Y-101277000D01*
X116115000Y-101415000D02*
X116000000Y-101300000D01*
X117000000Y-101415000D02*
X116115000Y-101415000D01*
X121771000Y-117271000D02*
X121700000Y-117200000D01*
X121771000Y-118787000D02*
X121771000Y-117271000D01*
X152055000Y-107607000D02*
X152970000Y-108522000D01*
X152055000Y-107452000D02*
X152055000Y-107607000D01*
X152055000Y-100797000D02*
X152970000Y-99882000D01*
X152055000Y-100952000D02*
X152055000Y-100797000D01*
D38*
X138950000Y-111500000D02*
X138950000Y-112250000D01*
X139120000Y-112420000D02*
X142300000Y-112420000D01*
X138950000Y-112250000D02*
X139120000Y-112420000D01*
X142300000Y-112261206D02*
X141891797Y-111853003D01*
X142300000Y-112420000D02*
X142300000Y-112261206D01*
X147975000Y-108845000D02*
X148620000Y-108200000D01*
X148620000Y-108200000D02*
X149200000Y-108200000D01*
X150090000Y-107310000D02*
X150100000Y-107310000D01*
X149200000Y-108200000D02*
X150090000Y-107310000D01*
D39*
X138575000Y-116800000D02*
X138100000Y-117275000D01*
X139800000Y-116800000D02*
X138575000Y-116800000D01*
X143060000Y-116800000D02*
X143500000Y-116360000D01*
X139800000Y-116800000D02*
X143060000Y-116800000D01*
X140195000Y-126375000D02*
X140195000Y-128155000D01*
X139250000Y-129100000D02*
X140195000Y-128155000D01*
X141465000Y-126885000D02*
X140195000Y-128155000D01*
X141465000Y-126375000D02*
X141465000Y-126885000D01*
X142735000Y-126375000D02*
X141465000Y-126375000D01*
X144005000Y-126375000D02*
X142735000Y-126375000D01*
X145700000Y-126375000D02*
X144005000Y-126375000D01*
D41*
X145700000Y-126375000D02*
X146875000Y-126375000D01*
X149500000Y-129000000D02*
X149500000Y-132200000D01*
X146875000Y-126375000D02*
X149500000Y-129000000D01*
D38*
X139825000Y-121425000D02*
X139500000Y-121100000D01*
X140195000Y-121425000D02*
X139825000Y-121425000D01*
X145150000Y-111900000D02*
X145150000Y-111050000D01*
X145150000Y-111050000D02*
X144400000Y-110300000D01*
D39*
X144400000Y-110300000D02*
X143285000Y-110300000D01*
X144800000Y-110300000D02*
X144400000Y-110300000D01*
D38*
X152793000Y-108522000D02*
X152970000Y-108522000D01*
X151215000Y-110100000D02*
X152793000Y-108522000D01*
X125785000Y-126350000D02*
X125717500Y-126282500D01*
X126735000Y-126350000D02*
X125785000Y-126350000D01*
X125717500Y-126282500D02*
X124035000Y-124600000D01*
X130700000Y-135987500D02*
X130700000Y-134700000D01*
X122285000Y-122850000D02*
X124035000Y-124600000D01*
X122285000Y-121900000D02*
X122285000Y-122850000D01*
D39*
X138100000Y-118100000D02*
X138000000Y-118200000D01*
X138100000Y-117275000D02*
X138100000Y-118100000D01*
X144060000Y-116360000D02*
X144500000Y-116800000D01*
X143500000Y-116360000D02*
X144060000Y-116360000D01*
D42*
X132992500Y-135987500D02*
X134280000Y-134700000D01*
X130700000Y-135987500D02*
X132992500Y-135987500D01*
D38*
X158875000Y-116400000D02*
X158875000Y-110400000D01*
X158875000Y-110247000D02*
X157150000Y-108522000D01*
X158875000Y-110400000D02*
X158875000Y-110247000D01*
X125785000Y-127300000D02*
X125785000Y-126350000D01*
X123400000Y-120100000D02*
X120879400Y-120100000D01*
X123785000Y-120485000D02*
X123400000Y-120100000D01*
X123785000Y-121900000D02*
X123785000Y-120485000D01*
X119300000Y-120100000D02*
X118200000Y-119000000D01*
X120879400Y-120100000D02*
X119300000Y-120100000D01*
X123785000Y-128115000D02*
X123785000Y-127300000D01*
X122100000Y-129320600D02*
X122236914Y-129320600D01*
X123318990Y-128581010D02*
X123785000Y-128115000D01*
X122976504Y-128581010D02*
X123318990Y-128581010D01*
X122236914Y-129320600D02*
X122976504Y-128581010D01*
X147475000Y-98675000D02*
X147500000Y-98700000D01*
X150100000Y-98900000D02*
X150300000Y-98700000D01*
X150100000Y-99290000D02*
X150100000Y-98900000D01*
X147500000Y-97725000D02*
X147475000Y-97700000D01*
X147500000Y-98700000D02*
X147500000Y-97725000D01*
X146220000Y-95805000D02*
X145725000Y-96300000D01*
X146220000Y-94700000D02*
X146220000Y-95805000D01*
X145505000Y-96520000D02*
X145725000Y-96300000D01*
X144100000Y-96520000D02*
X145505000Y-96520000D01*
X144100000Y-95200000D02*
X144200000Y-95100000D01*
X144100000Y-96520000D02*
X144100000Y-95200000D01*
X144600000Y-94700000D02*
X144200000Y-95100000D01*
X146220000Y-94700000D02*
X144600000Y-94700000D01*
D43*
X108812500Y-106112500D02*
X107100000Y-104400000D01*
X108812500Y-112100000D02*
X108812500Y-106112500D01*
X107100000Y-104400000D02*
X107100000Y-106700000D01*
D38*
X129180000Y-122420000D02*
X129100000Y-122500000D01*
X129180000Y-121700000D02*
X129180000Y-122420000D01*
X110100000Y-113387500D02*
X108812500Y-112100000D01*
X110100000Y-113500000D02*
X110100000Y-113387500D01*
X131600000Y-128500000D02*
X131700000Y-128600000D01*
X131600000Y-127480000D02*
X131600000Y-128500000D01*
D39*
X116925000Y-127325000D02*
X116600000Y-127000000D01*
X116925000Y-128200000D02*
X116925000Y-127325000D01*
X117162000Y-102547000D02*
X117000000Y-102385000D01*
X118986000Y-102547000D02*
X117162000Y-102547000D01*
X142315000Y-109555000D02*
X143025000Y-108845000D01*
X142315000Y-110300000D02*
X142315000Y-109555000D01*
X147975000Y-105035000D02*
X145165000Y-105035000D01*
X145165000Y-105035000D02*
X144600000Y-105600000D01*
X144600000Y-105600000D02*
X144600000Y-108300000D01*
X144055000Y-108845000D02*
X143025000Y-108845000D01*
D38*
X150785000Y-108415000D02*
X150800000Y-108400000D01*
X150100000Y-108415000D02*
X150785000Y-108415000D01*
X144500000Y-108700000D02*
X144350000Y-108550000D01*
X144700000Y-108700000D02*
X144500000Y-108700000D01*
D39*
X144350000Y-108550000D02*
X144055000Y-108845000D01*
X144600000Y-108300000D02*
X144350000Y-108550000D01*
X142450000Y-115400000D02*
X142000000Y-115850000D01*
X143500000Y-115400000D02*
X142450000Y-115400000D01*
D38*
X143500000Y-115097004D02*
X142790396Y-114387400D01*
X143500000Y-115400000D02*
X143500000Y-115097004D01*
D39*
X116053000Y-102547000D02*
X115800000Y-102800000D01*
X118986000Y-102547000D02*
X116053000Y-102547000D01*
D38*
X141950000Y-115800000D02*
X142000000Y-115850000D01*
X141104700Y-115800000D02*
X141950000Y-115800000D01*
X124285000Y-128415000D02*
X123600000Y-129100000D01*
X124285000Y-127300000D02*
X124285000Y-128415000D01*
D39*
X114300000Y-101300000D02*
X115800000Y-102800000D01*
X101800000Y-101300000D02*
X114300000Y-101300000D01*
D38*
X131180000Y-126100000D02*
X131600000Y-126520000D01*
X131000000Y-126100000D02*
X131180000Y-126100000D01*
X149415000Y-109385000D02*
X149300000Y-109500000D01*
X150100000Y-109385000D02*
X149415000Y-109385000D01*
X138800000Y-109200000D02*
X138800000Y-108800000D01*
X139400000Y-109800000D02*
X138800000Y-109200000D01*
X150100000Y-109385000D02*
X150100000Y-110300000D01*
X150100000Y-110300000D02*
X150700000Y-110900000D01*
X150700000Y-110900000D02*
X152000000Y-110900000D01*
X152185000Y-110715000D02*
X152185000Y-110100000D01*
X152000000Y-110900000D02*
X152185000Y-110715000D01*
X120283000Y-103817000D02*
X120300000Y-103800000D01*
X118986000Y-103817000D02*
X120283000Y-103817000D01*
X138400000Y-108400000D02*
X138800000Y-108800000D01*
X138400000Y-107800000D02*
X138400000Y-108400000D01*
X154825000Y-110100000D02*
X155125000Y-110400000D01*
X152185000Y-110100000D02*
X154825000Y-110100000D01*
X155125000Y-110400000D02*
X155125000Y-116400000D01*
X143020000Y-106300000D02*
X143025000Y-106305000D01*
X141085000Y-106300000D02*
X143020000Y-106300000D01*
X141085000Y-107565000D02*
X140800000Y-107850000D01*
X141085000Y-106300000D02*
X141085000Y-107565000D01*
X140115000Y-105000000D02*
X139700000Y-105000000D01*
X139700000Y-105000000D02*
X139200000Y-105500000D01*
X139200000Y-105500000D02*
X139200000Y-107800000D01*
X139200000Y-107800000D02*
X139700000Y-108300000D01*
X139700000Y-108300000D02*
X139700000Y-109200000D01*
X140250000Y-109750000D02*
X140800000Y-109750000D01*
X139700000Y-109200000D02*
X140250000Y-109750000D01*
X133800000Y-105600000D02*
X133800000Y-107800000D01*
X137900000Y-102500000D02*
X137600000Y-102200000D01*
X138800000Y-102500000D02*
X137900000Y-102500000D01*
X135899000Y-117700000D02*
X135986000Y-117787000D01*
X134500000Y-117700000D02*
X135899000Y-117700000D01*
X142990000Y-105000000D02*
X143025000Y-105035000D01*
X141085000Y-105000000D02*
X142990000Y-105000000D01*
X140800000Y-101550000D02*
X140800000Y-101700000D01*
X140800000Y-101700000D02*
X141600000Y-102500000D01*
X141600000Y-104485000D02*
X141085000Y-105000000D01*
X141600000Y-102500000D02*
X141600000Y-104485000D01*
X140115000Y-106300000D02*
X140115000Y-106185000D01*
X140115000Y-106885000D02*
X139800000Y-107200000D01*
X140115000Y-106300000D02*
X140115000Y-106885000D01*
X140250000Y-104000000D02*
X140800000Y-103450000D01*
X139800000Y-104000000D02*
X140250000Y-104000000D01*
X134543000Y-106357000D02*
X134500000Y-106400000D01*
X135986000Y-106357000D02*
X134543000Y-106357000D01*
X147900000Y-107500000D02*
X147975000Y-107575000D01*
X146300000Y-107500000D02*
X147900000Y-107500000D01*
X146395000Y-106305000D02*
X146200000Y-106500000D01*
X147975000Y-106305000D02*
X146395000Y-106305000D01*
X138800000Y-104885000D02*
X138685000Y-105000000D01*
X138800000Y-103800000D02*
X138800000Y-104885000D01*
D40*
X120170000Y-126350000D02*
X119800000Y-126720000D01*
X121335000Y-126350000D02*
X120170000Y-126350000D01*
D38*
X136073000Y-105000000D02*
X135986000Y-105087000D01*
X137715000Y-105000000D02*
X136073000Y-105000000D01*
X149948000Y-103952000D02*
X149500000Y-104400000D01*
X149500000Y-104400000D02*
X146900000Y-104400000D01*
X146900000Y-104400000D02*
X146600000Y-104100000D01*
X146600000Y-104100000D02*
X146600000Y-103300000D01*
X147405000Y-102495000D02*
X147975000Y-102495000D01*
X146600000Y-103300000D02*
X147405000Y-102495000D01*
X152055000Y-104952000D02*
X151052000Y-104952000D01*
X150752000Y-104652000D02*
X150752000Y-103952000D01*
X151052000Y-104952000D02*
X150752000Y-104652000D01*
X150752000Y-103952000D02*
X149948000Y-103952000D01*
X152055000Y-103952000D02*
X150752000Y-103952000D01*
X148288000Y-103452000D02*
X147975000Y-103765000D01*
X152055000Y-103452000D02*
X148288000Y-103452000D01*
X152055000Y-103452000D02*
X153152000Y-103452000D01*
X153152000Y-103452000D02*
X153200000Y-103500000D01*
X153200000Y-103500000D02*
X153200000Y-104300000D01*
X153048000Y-104452000D02*
X152055000Y-104452000D01*
X153200000Y-104300000D02*
X153048000Y-104452000D01*
X150938000Y-105452000D02*
X150100000Y-106290000D01*
X152055000Y-105452000D02*
X150938000Y-105452000D01*
X152055000Y-102452000D02*
X150652000Y-102452000D01*
X150100000Y-101900000D02*
X150100000Y-100310000D01*
X150652000Y-102452000D02*
X150100000Y-101900000D01*
X117867000Y-110167000D02*
X116300000Y-108600000D01*
X118986000Y-110167000D02*
X117867000Y-110167000D01*
X147975000Y-101225000D02*
X146925000Y-101225000D01*
X145725000Y-100025000D02*
X145725000Y-97700000D01*
X146925000Y-101225000D02*
X145725000Y-100025000D01*
X145505000Y-97480000D02*
X145725000Y-97700000D01*
X144100000Y-97480000D02*
X145505000Y-97480000D01*
X147180000Y-96005000D02*
X147475000Y-96300000D01*
X147180000Y-94700000D02*
X147180000Y-96005000D01*
X147975000Y-99955000D02*
X149200000Y-98730000D01*
X149200000Y-98730000D02*
X149200000Y-96800000D01*
X148700000Y-96300000D02*
X147475000Y-96300000D01*
X149200000Y-96800000D02*
X148700000Y-96300000D01*
D39*
X144005000Y-123130000D02*
X145700000Y-124825000D01*
X144005000Y-121425000D02*
X144005000Y-123130000D01*
X144780000Y-122200000D02*
X144005000Y-121425000D01*
X146750000Y-122200000D02*
X144780000Y-122200000D01*
D43*
X112100000Y-106300000D02*
X112000000Y-106400000D01*
X112100000Y-104400000D02*
X112100000Y-106300000D01*
D39*
X119280000Y-128200000D02*
X119800000Y-127680000D01*
X118475000Y-128200000D02*
X119280000Y-128200000D01*
X118265000Y-128410000D02*
X118475000Y-128200000D01*
X118265000Y-130525000D02*
X118265000Y-128410000D01*
X118265000Y-132135000D02*
X118200000Y-132200000D01*
X118265000Y-130525000D02*
X118265000Y-132135000D01*
X124365000Y-130525000D02*
X124365000Y-131735000D01*
X124365000Y-131735000D02*
X124100000Y-132000000D01*
X118400000Y-132000000D02*
X118200000Y-132200000D01*
X124100000Y-132000000D02*
X123800000Y-132000000D01*
X122596700Y-133203300D02*
X122000000Y-133203300D01*
X123800000Y-132000000D02*
X122596700Y-133203300D01*
X115635000Y-116365000D02*
X115700000Y-116300000D01*
X114075000Y-116365000D02*
X115635000Y-116365000D01*
X115535000Y-121965000D02*
X115600000Y-121900000D01*
X114075000Y-121965000D02*
X115535000Y-121965000D01*
D40*
X120620000Y-127680000D02*
X121000000Y-127300000D01*
X119800000Y-127680000D02*
X120620000Y-127680000D01*
X122285000Y-127300000D02*
X121000000Y-127300000D01*
D39*
X142735000Y-121425000D02*
X142735000Y-122865000D01*
X142735000Y-122865000D02*
X142300000Y-123300000D01*
X139150000Y-123300000D02*
X138050000Y-124400000D01*
X142300000Y-123300000D02*
X139150000Y-123300000D01*
X138050000Y-127000000D02*
X135950000Y-129100000D01*
X138050000Y-124400000D02*
X138050000Y-127000000D01*
X138225000Y-115850000D02*
X138100000Y-115725000D01*
X139800000Y-115850000D02*
X138225000Y-115850000D01*
X139800000Y-115850000D02*
X139800000Y-115600000D01*
X140850000Y-114550000D02*
X140850000Y-113700000D01*
X139800000Y-115600000D02*
X140850000Y-114550000D01*
X141980000Y-113700000D02*
X142300000Y-113380000D01*
X140850000Y-113700000D02*
X141980000Y-113700000D01*
X147954699Y-113004699D02*
X150050000Y-115100000D01*
X143495301Y-113004699D02*
X147954699Y-113004699D01*
X143120000Y-113380000D02*
X143495301Y-113004699D01*
X142300000Y-113380000D02*
X143120000Y-113380000D01*
X150200000Y-115250000D02*
X150050000Y-115100000D01*
X152900000Y-115250000D02*
X150200000Y-115250000D01*
X130950000Y-121850000D02*
X132000000Y-120800000D01*
X130900000Y-121850000D02*
X130950000Y-121850000D01*
X141050000Y-119000000D02*
X139800000Y-117750000D01*
X141900000Y-119000000D02*
X141050000Y-119000000D01*
X141250000Y-114550000D02*
X140850000Y-114550000D01*
X141400000Y-114700000D02*
X141250000Y-114550000D01*
X141400000Y-121360000D02*
X141465000Y-121425000D01*
X141400000Y-119900000D02*
X141400000Y-121360000D01*
X141400000Y-119900000D02*
X139000000Y-119900000D01*
X139000000Y-119900000D02*
X138200000Y-120700000D01*
X138200000Y-120700000D02*
X134500000Y-120700000D01*
X133350000Y-121850000D02*
X133350000Y-124400000D01*
X134500000Y-120700000D02*
X133350000Y-121850000D01*
D41*
X142100000Y-132200000D02*
X135900000Y-132200000D01*
X133350000Y-129650000D02*
X133350000Y-124400000D01*
X135900000Y-132200000D02*
X133350000Y-129650000D01*
D38*
X139700000Y-113700000D02*
X139800000Y-113600000D01*
X138950000Y-113700000D02*
X139700000Y-113700000D01*
X144200000Y-113800000D02*
X144200000Y-113850000D01*
X145150000Y-114750000D02*
X144200000Y-113800000D01*
X145150000Y-115100000D02*
X145150000Y-114750000D01*
X135986000Y-107627000D02*
X137327000Y-107627000D01*
X137327000Y-107627000D02*
X138000000Y-108300000D01*
X138000000Y-109352922D02*
X139247078Y-110600000D01*
X138000000Y-108300000D02*
X138000000Y-109352922D01*
X139900000Y-110766800D02*
X139900000Y-111500000D01*
X139733200Y-110600000D02*
X139900000Y-110766800D01*
X139247078Y-110600000D02*
X139733200Y-110600000D01*
X128020000Y-121900000D02*
X128220000Y-121700000D01*
X125785000Y-121900000D02*
X128020000Y-121900000D01*
X130200000Y-129512500D02*
X130700000Y-130012500D01*
X130200000Y-127510000D02*
X130200000Y-127700000D01*
X130200000Y-127700000D02*
X130520599Y-128020599D01*
X130678113Y-128020599D02*
X130979401Y-128321887D01*
X130520599Y-128020599D02*
X130678113Y-128020599D01*
X130979401Y-129733099D02*
X130700000Y-130012500D01*
X130979401Y-128321887D02*
X130979401Y-129733099D01*
D39*
X126900000Y-130530000D02*
X126905000Y-130525000D01*
X126900000Y-132200000D02*
X126900000Y-130530000D01*
X126900000Y-132200000D02*
X129700000Y-132200000D01*
X130700000Y-131200000D02*
X130700000Y-130012500D01*
X129700000Y-132200000D02*
X130700000Y-131200000D01*
X120805000Y-131508552D02*
X120805000Y-130525000D01*
X120006738Y-132306814D02*
X120805000Y-131508552D01*
D38*
X151903000Y-101600000D02*
X152055000Y-101752000D01*
D39*
X132600000Y-125150000D02*
X133350000Y-124400000D01*
X130900000Y-125150000D02*
X132600000Y-125150000D01*
D40*
X150952000Y-101752000D02*
X150800000Y-101600000D01*
X152055000Y-101752000D02*
X150952000Y-101752000D01*
X150952000Y-106652000D02*
X150900000Y-106600000D01*
X152055000Y-106652000D02*
X150952000Y-106652000D01*
D39*
X153000000Y-111850000D02*
X152900000Y-111950000D01*
X153000000Y-111200000D02*
X153000000Y-111850000D01*
D38*
X135853000Y-110300000D02*
X135986000Y-110167000D01*
X134500000Y-110300000D02*
X135853000Y-110300000D01*
X126300000Y-121000000D02*
X125400000Y-121000000D01*
X125285000Y-121115000D02*
X125285000Y-121900000D01*
X125400000Y-121000000D02*
X125285000Y-121115000D01*
X124785000Y-121900000D02*
X124785000Y-121261171D01*
X124785000Y-120781712D02*
X124785000Y-121900000D01*
X125150344Y-120416368D02*
X124785000Y-120781712D01*
X133453000Y-102547000D02*
X135986000Y-102547000D01*
X132800000Y-103200000D02*
X133453000Y-102547000D01*
X132800000Y-106800000D02*
X132800000Y-103200000D01*
X135949000Y-111400000D02*
X135986000Y-111437000D01*
X132200000Y-111400000D02*
X135949000Y-111400000D01*
X124285000Y-120462315D02*
X124356667Y-120390648D01*
X124285000Y-121900000D02*
X124285000Y-120462315D01*
X135779000Y-112500000D02*
X135986000Y-112707000D01*
X131600000Y-112500000D02*
X135779000Y-112500000D01*
X123285000Y-120804396D02*
X123190302Y-120709698D01*
X123285000Y-121900000D02*
X123285000Y-120804396D01*
X135869000Y-116400000D02*
X135986000Y-116517000D01*
X130900000Y-116400000D02*
X135869000Y-116400000D01*
X122785000Y-121900000D02*
X122785000Y-121185000D01*
X122300000Y-120700000D02*
X122200000Y-120700000D01*
X122785000Y-121185000D02*
X122300000Y-120700000D01*
X127614410Y-127985590D02*
X126400000Y-129200000D01*
X122970000Y-130400000D02*
X123095000Y-130525000D01*
X122100000Y-130400000D02*
X122970000Y-130400000D01*
X127350000Y-125850000D02*
X127614408Y-126114408D01*
X126735000Y-125850000D02*
X127350000Y-125850000D01*
X127614408Y-127985588D02*
X127614410Y-127985590D01*
X127614408Y-126114408D02*
X127614408Y-127985588D01*
X126735000Y-125350000D02*
X127550001Y-125350000D01*
X127995418Y-128604582D02*
X127600000Y-129000000D01*
X127995418Y-125795417D02*
X127995418Y-128604582D01*
X127550001Y-125350000D02*
X127995418Y-125795417D01*
X116870000Y-130400000D02*
X116995000Y-130525000D01*
X116300000Y-130400000D02*
X116870000Y-130400000D01*
D41*
X120805000Y-135475000D02*
X119535000Y-135475000D01*
X119535000Y-135475000D02*
X118265000Y-135475000D01*
X118265000Y-135475000D02*
X116995000Y-135475000D01*
D38*
X127918990Y-131115266D02*
X127792836Y-131241420D01*
D42*
X116995000Y-135475000D02*
X116995000Y-134295000D01*
X116995000Y-134295000D02*
X114800000Y-132100000D01*
X114800000Y-132100000D02*
X111930000Y-132100000D01*
X111380000Y-131550000D02*
X111380000Y-129400000D01*
X111930000Y-132100000D02*
X111380000Y-131550000D01*
D38*
X127792836Y-131144324D02*
X127792836Y-131241420D01*
X128200000Y-129287471D02*
X128200000Y-130737160D01*
X128381010Y-129106461D02*
X128200000Y-129287471D01*
X128381010Y-125642181D02*
X128381010Y-129106461D01*
X128200000Y-130737160D02*
X127792836Y-131144324D01*
X127588829Y-124850000D02*
X128381010Y-125642181D01*
X126735000Y-124850000D02*
X127588829Y-124850000D01*
X121700000Y-136370000D02*
X120805000Y-135475000D01*
X121700000Y-136500000D02*
X121700000Y-136370000D01*
D41*
X126905000Y-135475000D02*
X125635000Y-135475000D01*
X125635000Y-135475000D02*
X124365000Y-135475000D01*
X124365000Y-135475000D02*
X123095000Y-135475000D01*
D38*
X128400000Y-135200000D02*
X127180000Y-135200000D01*
D41*
X124365000Y-135475000D02*
X124365000Y-134165000D01*
X124365000Y-134265000D02*
X124400000Y-134300000D01*
X124365000Y-134165000D02*
X124365000Y-134265000D01*
D38*
X128635438Y-129390862D02*
X128635438Y-131159236D01*
X128762020Y-129264280D02*
X128635438Y-129390862D01*
X128762020Y-125484362D02*
X128762020Y-129264280D01*
X127627655Y-124350000D02*
X128762020Y-125484362D01*
X126735000Y-124350000D02*
X127627655Y-124350000D01*
X126735000Y-123850000D02*
X127666487Y-123850000D01*
X129143030Y-128456158D02*
X129413663Y-128726791D01*
X129143030Y-125326543D02*
X129143030Y-128456158D01*
X127666487Y-123850000D02*
X129143030Y-125326543D01*
X125635000Y-132635000D02*
X126600000Y-133600000D01*
X125635000Y-130525000D02*
X125635000Y-132635000D01*
X129400000Y-133600000D02*
X126600000Y-133600000D01*
X126735000Y-123350000D02*
X127705315Y-123350000D01*
X127705315Y-123350000D02*
X129524040Y-125168724D01*
X129524040Y-127824040D02*
X129800000Y-128100000D01*
X129524040Y-125168724D02*
X129524040Y-127824040D01*
X129800000Y-128100000D02*
X130000000Y-128300000D01*
X130000000Y-128300000D02*
X130300000Y-128600000D01*
X126200000Y-134200000D02*
X129800000Y-134200000D01*
X125695401Y-133695401D02*
X126200000Y-134200000D01*
X125695401Y-133678207D02*
X125695401Y-133695401D01*
X125017194Y-133000000D02*
X125695401Y-133678207D01*
X130120600Y-133879400D02*
X130120600Y-133100000D01*
X129800000Y-134200000D02*
X130120600Y-133879400D01*
X123782806Y-133000000D02*
X122682806Y-134100000D01*
X125017194Y-133000000D02*
X123782806Y-133000000D01*
X122682806Y-134100000D02*
X119700000Y-134100000D01*
X119700000Y-134100000D02*
X119100000Y-133500000D01*
X119100000Y-133500000D02*
X119100000Y-132100000D01*
X119535000Y-131665000D02*
X119535000Y-130525000D01*
X119100000Y-132100000D02*
X119535000Y-131665000D01*
X126735000Y-122850000D02*
X127750000Y-122850000D01*
X128300000Y-123405856D02*
X129905050Y-125010905D01*
X128300000Y-123400000D02*
X128300000Y-123405856D01*
X127750000Y-122850000D02*
X128300000Y-123400000D01*
X129905050Y-126195050D02*
X130200000Y-126490000D01*
X129905050Y-125010905D02*
X129905050Y-126195050D01*
X116400000Y-113310000D02*
X116400000Y-114000000D01*
X116400000Y-114000000D02*
X117500000Y-115100000D01*
X117500000Y-115100000D02*
X117500000Y-120500000D01*
X119850000Y-122850000D02*
X121335000Y-122850000D01*
X117500000Y-120500000D02*
X119850000Y-122850000D01*
X119350000Y-123350000D02*
X118700000Y-122700000D01*
X121335000Y-123350000D02*
X119350000Y-123350000D01*
X116000000Y-119400000D02*
X116000000Y-118400000D01*
X115235000Y-117635000D02*
X114075000Y-117635000D01*
X116000000Y-118400000D02*
X115235000Y-117635000D01*
X117673829Y-123235000D02*
X114075000Y-123235000D01*
X118288829Y-123850000D02*
X117673829Y-123235000D01*
X121335000Y-123850000D02*
X118288829Y-123850000D01*
D41*
X109125000Y-120695000D02*
X109125000Y-121965000D01*
X109125000Y-121965000D02*
X109125000Y-123235000D01*
X109125000Y-123235000D02*
X109125000Y-124505000D01*
D42*
X108840000Y-124790000D02*
X109125000Y-124505000D01*
X108840000Y-129400000D02*
X108840000Y-124790000D01*
D38*
X121335000Y-124350000D02*
X116250000Y-124350000D01*
X116250000Y-124350000D02*
X115300000Y-125300000D01*
X109920000Y-125300000D02*
X109125000Y-124505000D01*
X115300000Y-125300000D02*
X109920000Y-125300000D01*
D41*
X109125000Y-115095000D02*
X109125000Y-116365000D01*
X109125000Y-116365000D02*
X109125000Y-117635000D01*
X109125000Y-117635000D02*
X109125000Y-118905000D01*
D42*
X106300000Y-129400000D02*
X106300000Y-119850000D01*
X107245000Y-118905000D02*
X109125000Y-118905000D01*
D38*
X116288828Y-124850000D02*
X115438828Y-125700000D01*
X121335000Y-124850000D02*
X116288828Y-124850000D01*
X111500000Y-125700000D02*
X111200000Y-126000000D01*
X115438828Y-125700000D02*
X111500000Y-125700000D01*
D42*
X106300000Y-119850000D02*
X107245000Y-118905000D01*
D38*
X118350000Y-125350000D02*
X118100000Y-125600000D01*
X121335000Y-125350000D02*
X118350000Y-125350000D01*
X117700000Y-122600000D02*
X117700000Y-121900000D01*
X117700000Y-121900000D02*
X117000000Y-121200000D01*
X117000000Y-121200000D02*
X117000000Y-115700000D01*
X116395000Y-115095000D02*
X114075000Y-115095000D01*
X117000000Y-115700000D02*
X116395000Y-115095000D01*
X116700000Y-122600000D02*
X116700000Y-121600000D01*
X115795000Y-120695000D02*
X114075000Y-120695000D01*
X116700000Y-121600000D02*
X115795000Y-120695000D01*
X121181810Y-125918190D02*
X119681810Y-125918190D01*
X121250000Y-125850000D02*
X121181810Y-125918190D01*
X121335000Y-125850000D02*
X121250000Y-125850000D01*
X119681810Y-125918190D02*
X119000000Y-126600000D01*
X116700000Y-125934646D02*
X116700000Y-125429400D01*
X117365354Y-126600000D02*
X116700000Y-125934646D01*
X119000000Y-126600000D02*
X117365354Y-126600000D01*
X114977500Y-112290000D02*
X114787500Y-112100000D01*
X116400000Y-112290000D02*
X114977500Y-112290000D01*
X123285000Y-127300000D02*
X123285000Y-128015000D01*
X122500000Y-128200000D02*
X122200000Y-128500000D01*
X123285000Y-128015000D02*
X123100000Y-128200000D01*
X123100000Y-128200000D02*
X122500000Y-128200000D01*
X120600000Y-115300000D02*
X119039000Y-115300000D01*
X119039000Y-115300000D02*
X118986000Y-115247000D01*
X124785000Y-128815000D02*
X124700000Y-128900000D01*
X124785000Y-127300000D02*
X124785000Y-128815000D01*
X119009000Y-114000000D02*
X118986000Y-113977000D01*
X120500000Y-114000000D02*
X119009000Y-114000000D01*
X125479410Y-128179410D02*
X125999730Y-128179410D01*
X126600000Y-127579140D02*
X126600000Y-127100000D01*
X125285000Y-127300000D02*
X125285000Y-127985000D01*
X125999730Y-128179410D02*
X126600000Y-127579140D01*
X125285000Y-127985000D02*
X125479410Y-128179410D01*
X120107000Y-112707000D02*
X118986000Y-112707000D01*
X121400000Y-114000000D02*
X120107000Y-112707000D01*
X117937000Y-111437000D02*
X117400000Y-110900000D01*
X118986000Y-111437000D02*
X117937000Y-111437000D01*
X117797000Y-108897000D02*
X116900000Y-108000000D01*
X118986000Y-108897000D02*
X117797000Y-108897000D01*
X117727000Y-107627000D02*
X117100000Y-107000000D01*
X118986000Y-107627000D02*
X117727000Y-107627000D01*
X116857000Y-106357000D02*
X118986000Y-106357000D01*
X115600000Y-105100000D02*
X116857000Y-106357000D01*
X116787000Y-105087000D02*
X115800000Y-104100000D01*
X118986000Y-105087000D02*
X116787000Y-105087000D01*
X123041000Y-117241000D02*
X123000000Y-117200000D01*
X123041000Y-118787000D02*
X123041000Y-117241000D01*
X133201000Y-118787000D02*
X133201000Y-117301000D01*
X129900000Y-116257514D02*
X129900000Y-116200000D01*
X130943486Y-117301000D02*
X129900000Y-116257514D01*
X133201000Y-117301000D02*
X130943486Y-117301000D01*
X131177000Y-113977000D02*
X130900000Y-113700000D01*
X135986000Y-113977000D02*
X131177000Y-113977000D01*
X135986000Y-115247000D02*
X134847000Y-115247000D01*
X134100000Y-114500000D02*
X130600000Y-114500000D01*
X134847000Y-115247000D02*
X134100000Y-114500000D01*
X134117000Y-103817000D02*
X134100000Y-103800000D01*
X135986000Y-103817000D02*
X134117000Y-103817000D01*
X132200000Y-105800000D02*
X131900000Y-106100000D01*
X132200000Y-103800000D02*
X132200000Y-105800000D01*
D42*
X114787500Y-112100000D02*
X112400000Y-112100000D01*
X112400000Y-112100000D02*
X111800000Y-112700000D01*
D39*
X112105000Y-118905000D02*
X111800000Y-118600000D01*
X114075000Y-118905000D02*
X112105000Y-118905000D01*
D42*
X111800000Y-118600000D02*
X111800000Y-123200000D01*
X111800000Y-112700000D02*
X111800000Y-118600000D01*
D39*
X113105000Y-124505000D02*
X111800000Y-123200000D01*
X114075000Y-124505000D02*
X113105000Y-124505000D01*
M02*
