G04 #@! TF.GenerationSoftware,KiCad,Pcbnew,(5.1.9)-1*
G04 #@! TF.CreationDate,2021-10-30T12:25:48+01:00*
G04 #@! TF.ProjectId,stepper_driver,73746570-7065-4725-9f64-72697665722e,rev?*
G04 #@! TF.SameCoordinates,Original*
G04 #@! TF.FileFunction,Legend,Bot*
G04 #@! TF.FilePolarity,Positive*
%FSLAX46Y46*%
G04 Gerber Fmt 4.6, Leading zero omitted, Abs format (unit mm)*
G04 Created by KiCad (PCBNEW (5.1.9)-1) date 2021-10-30 12:25:48*
%MOMM*%
%LPD*%
G01*
G04 APERTURE LIST*
%ADD10C,0.150000*%
G04 APERTURE END LIST*
D10*
X105061904Y-133600000D02*
X105157142Y-133552380D01*
X105300000Y-133552380D01*
X105442857Y-133600000D01*
X105538095Y-133695238D01*
X105585714Y-133790476D01*
X105633333Y-133980952D01*
X105633333Y-134123809D01*
X105585714Y-134314285D01*
X105538095Y-134409523D01*
X105442857Y-134504761D01*
X105300000Y-134552380D01*
X105204761Y-134552380D01*
X105061904Y-134504761D01*
X105014285Y-134457142D01*
X105014285Y-134123809D01*
X105204761Y-134123809D01*
X104585714Y-134552380D02*
X104585714Y-133552380D01*
X104014285Y-134552380D01*
X104014285Y-133552380D01*
X103538095Y-134552380D02*
X103538095Y-133552380D01*
X103300000Y-133552380D01*
X103157142Y-133600000D01*
X103061904Y-133695238D01*
X103014285Y-133790476D01*
X102966666Y-133980952D01*
X102966666Y-134123809D01*
X103014285Y-134314285D01*
X103061904Y-134409523D01*
X103157142Y-134504761D01*
X103300000Y-134552380D01*
X103538095Y-134552380D01*
X105976190Y-132352380D02*
X105976190Y-131352380D01*
X105309523Y-131352380D02*
X105119047Y-131352380D01*
X105023809Y-131400000D01*
X104928571Y-131495238D01*
X104880952Y-131685714D01*
X104880952Y-132019047D01*
X104928571Y-132209523D01*
X105023809Y-132304761D01*
X105119047Y-132352380D01*
X105309523Y-132352380D01*
X105404761Y-132304761D01*
X105500000Y-132209523D01*
X105547619Y-132019047D01*
X105547619Y-131685714D01*
X105500000Y-131495238D01*
X105404761Y-131400000D01*
X105309523Y-131352380D01*
X103928571Y-132352380D02*
X104500000Y-132352380D01*
X104214285Y-132352380D02*
X104214285Y-131352380D01*
X104309523Y-131495238D01*
X104404761Y-131590476D01*
X104500000Y-131638095D01*
X103595238Y-131352380D02*
X102976190Y-131352380D01*
X103309523Y-131733333D01*
X103166666Y-131733333D01*
X103071428Y-131780952D01*
X103023809Y-131828571D01*
X102976190Y-131923809D01*
X102976190Y-132161904D01*
X103023809Y-132257142D01*
X103071428Y-132304761D01*
X103166666Y-132352380D01*
X103452380Y-132352380D01*
X103547619Y-132304761D01*
X103595238Y-132257142D01*
X105000000Y-129752380D02*
X105000000Y-128752380D01*
X104333333Y-128752380D02*
X104142857Y-128752380D01*
X104047619Y-128800000D01*
X103952380Y-128895238D01*
X103904761Y-129085714D01*
X103904761Y-129419047D01*
X103952380Y-129609523D01*
X104047619Y-129704761D01*
X104142857Y-129752380D01*
X104333333Y-129752380D01*
X104428571Y-129704761D01*
X104523809Y-129609523D01*
X104571428Y-129419047D01*
X104571428Y-129085714D01*
X104523809Y-128895238D01*
X104428571Y-128800000D01*
X104333333Y-128752380D01*
X103523809Y-128847619D02*
X103476190Y-128800000D01*
X103380952Y-128752380D01*
X103142857Y-128752380D01*
X103047619Y-128800000D01*
X103000000Y-128847619D01*
X102952380Y-128942857D01*
X102952380Y-129038095D01*
X103000000Y-129180952D01*
X103571428Y-129752380D01*
X102952380Y-129752380D01*
X105976190Y-127152380D02*
X105976190Y-126152380D01*
X105309523Y-126152380D02*
X105119047Y-126152380D01*
X105023809Y-126200000D01*
X104928571Y-126295238D01*
X104880952Y-126485714D01*
X104880952Y-126819047D01*
X104928571Y-127009523D01*
X105023809Y-127104761D01*
X105119047Y-127152380D01*
X105309523Y-127152380D01*
X105404761Y-127104761D01*
X105500000Y-127009523D01*
X105547619Y-126819047D01*
X105547619Y-126485714D01*
X105500000Y-126295238D01*
X105404761Y-126200000D01*
X105309523Y-126152380D01*
X103928571Y-127152380D02*
X104500000Y-127152380D01*
X104214285Y-127152380D02*
X104214285Y-126152380D01*
X104309523Y-126295238D01*
X104404761Y-126390476D01*
X104500000Y-126438095D01*
X103071428Y-126152380D02*
X103261904Y-126152380D01*
X103357142Y-126200000D01*
X103404761Y-126247619D01*
X103500000Y-126390476D01*
X103547619Y-126580952D01*
X103547619Y-126961904D01*
X103500000Y-127057142D01*
X103452380Y-127104761D01*
X103357142Y-127152380D01*
X103166666Y-127152380D01*
X103071428Y-127104761D01*
X103023809Y-127057142D01*
X102976190Y-126961904D01*
X102976190Y-126723809D01*
X103023809Y-126628571D01*
X103071428Y-126580952D01*
X103166666Y-126533333D01*
X103357142Y-126533333D01*
X103452380Y-126580952D01*
X103500000Y-126628571D01*
X103547619Y-126723809D01*
X106076190Y-124652380D02*
X106076190Y-123652380D01*
X105409523Y-123652380D02*
X105219047Y-123652380D01*
X105123809Y-123700000D01*
X105028571Y-123795238D01*
X104980952Y-123985714D01*
X104980952Y-124319047D01*
X105028571Y-124509523D01*
X105123809Y-124604761D01*
X105219047Y-124652380D01*
X105409523Y-124652380D01*
X105504761Y-124604761D01*
X105600000Y-124509523D01*
X105647619Y-124319047D01*
X105647619Y-123985714D01*
X105600000Y-123795238D01*
X105504761Y-123700000D01*
X105409523Y-123652380D01*
X104028571Y-124652380D02*
X104600000Y-124652380D01*
X104314285Y-124652380D02*
X104314285Y-123652380D01*
X104409523Y-123795238D01*
X104504761Y-123890476D01*
X104600000Y-123938095D01*
X103695238Y-123652380D02*
X103028571Y-123652380D01*
X103457142Y-124652380D01*
X105976190Y-122052380D02*
X105976190Y-121052380D01*
X105309523Y-121052380D02*
X105119047Y-121052380D01*
X105023809Y-121100000D01*
X104928571Y-121195238D01*
X104880952Y-121385714D01*
X104880952Y-121719047D01*
X104928571Y-121909523D01*
X105023809Y-122004761D01*
X105119047Y-122052380D01*
X105309523Y-122052380D01*
X105404761Y-122004761D01*
X105500000Y-121909523D01*
X105547619Y-121719047D01*
X105547619Y-121385714D01*
X105500000Y-121195238D01*
X105404761Y-121100000D01*
X105309523Y-121052380D01*
X104500000Y-121147619D02*
X104452380Y-121100000D01*
X104357142Y-121052380D01*
X104119047Y-121052380D01*
X104023809Y-121100000D01*
X103976190Y-121147619D01*
X103928571Y-121242857D01*
X103928571Y-121338095D01*
X103976190Y-121480952D01*
X104547619Y-122052380D01*
X103928571Y-122052380D01*
X103547619Y-121147619D02*
X103500000Y-121100000D01*
X103404761Y-121052380D01*
X103166666Y-121052380D01*
X103071428Y-121100000D01*
X103023809Y-121147619D01*
X102976190Y-121242857D01*
X102976190Y-121338095D01*
X103023809Y-121480952D01*
X103595238Y-122052380D01*
X102976190Y-122052380D01*
X105976190Y-119652380D02*
X105976190Y-118652380D01*
X105309523Y-118652380D02*
X105119047Y-118652380D01*
X105023809Y-118700000D01*
X104928571Y-118795238D01*
X104880952Y-118985714D01*
X104880952Y-119319047D01*
X104928571Y-119509523D01*
X105023809Y-119604761D01*
X105119047Y-119652380D01*
X105309523Y-119652380D01*
X105404761Y-119604761D01*
X105500000Y-119509523D01*
X105547619Y-119319047D01*
X105547619Y-118985714D01*
X105500000Y-118795238D01*
X105404761Y-118700000D01*
X105309523Y-118652380D01*
X104547619Y-118652380D02*
X103928571Y-118652380D01*
X104261904Y-119033333D01*
X104119047Y-119033333D01*
X104023809Y-119080952D01*
X103976190Y-119128571D01*
X103928571Y-119223809D01*
X103928571Y-119461904D01*
X103976190Y-119557142D01*
X104023809Y-119604761D01*
X104119047Y-119652380D01*
X104404761Y-119652380D01*
X104500000Y-119604761D01*
X104547619Y-119557142D01*
X103595238Y-118652380D02*
X102976190Y-118652380D01*
X103309523Y-119033333D01*
X103166666Y-119033333D01*
X103071428Y-119080952D01*
X103023809Y-119128571D01*
X102976190Y-119223809D01*
X102976190Y-119461904D01*
X103023809Y-119557142D01*
X103071428Y-119604761D01*
X103166666Y-119652380D01*
X103452380Y-119652380D01*
X103547619Y-119604761D01*
X103595238Y-119557142D01*
X105976190Y-117052380D02*
X105976190Y-116052380D01*
X105309523Y-116052380D02*
X105119047Y-116052380D01*
X105023809Y-116100000D01*
X104928571Y-116195238D01*
X104880952Y-116385714D01*
X104880952Y-116719047D01*
X104928571Y-116909523D01*
X105023809Y-117004761D01*
X105119047Y-117052380D01*
X105309523Y-117052380D01*
X105404761Y-117004761D01*
X105500000Y-116909523D01*
X105547619Y-116719047D01*
X105547619Y-116385714D01*
X105500000Y-116195238D01*
X105404761Y-116100000D01*
X105309523Y-116052380D01*
X104547619Y-116052380D02*
X103928571Y-116052380D01*
X104261904Y-116433333D01*
X104119047Y-116433333D01*
X104023809Y-116480952D01*
X103976190Y-116528571D01*
X103928571Y-116623809D01*
X103928571Y-116861904D01*
X103976190Y-116957142D01*
X104023809Y-117004761D01*
X104119047Y-117052380D01*
X104404761Y-117052380D01*
X104500000Y-117004761D01*
X104547619Y-116957142D01*
X103547619Y-116147619D02*
X103500000Y-116100000D01*
X103404761Y-116052380D01*
X103166666Y-116052380D01*
X103071428Y-116100000D01*
X103023809Y-116147619D01*
X102976190Y-116242857D01*
X102976190Y-116338095D01*
X103023809Y-116480952D01*
X103595238Y-117052380D01*
X102976190Y-117052380D01*
X104952380Y-114552380D02*
X104952380Y-113552380D01*
X104571428Y-113552380D02*
X103952380Y-113552380D01*
X104285714Y-113933333D01*
X104142857Y-113933333D01*
X104047619Y-113980952D01*
X104000000Y-114028571D01*
X103952380Y-114123809D01*
X103952380Y-114361904D01*
X104000000Y-114457142D01*
X104047619Y-114504761D01*
X104142857Y-114552380D01*
X104428571Y-114552380D01*
X104523809Y-114504761D01*
X104571428Y-114457142D01*
X103047619Y-113552380D02*
X103523809Y-113552380D01*
X103571428Y-114028571D01*
X103523809Y-113980952D01*
X103428571Y-113933333D01*
X103190476Y-113933333D01*
X103095238Y-113980952D01*
X103047619Y-114028571D01*
X103000000Y-114123809D01*
X103000000Y-114361904D01*
X103047619Y-114457142D01*
X103095238Y-114504761D01*
X103190476Y-114552380D01*
X103428571Y-114552380D01*
X103523809Y-114504761D01*
X103571428Y-114457142D01*
X104952380Y-111952380D02*
X104952380Y-110952380D01*
X104571428Y-110952380D02*
X103952380Y-110952380D01*
X104285714Y-111333333D01*
X104142857Y-111333333D01*
X104047619Y-111380952D01*
X104000000Y-111428571D01*
X103952380Y-111523809D01*
X103952380Y-111761904D01*
X104000000Y-111857142D01*
X104047619Y-111904761D01*
X104142857Y-111952380D01*
X104428571Y-111952380D01*
X104523809Y-111904761D01*
X104571428Y-111857142D01*
X103095238Y-111285714D02*
X103095238Y-111952380D01*
X103333333Y-110904761D02*
X103571428Y-111619047D01*
X102952380Y-111619047D01*
X104952380Y-109352380D02*
X104952380Y-108352380D01*
X104571428Y-108352380D02*
X103952380Y-108352380D01*
X104285714Y-108733333D01*
X104142857Y-108733333D01*
X104047619Y-108780952D01*
X104000000Y-108828571D01*
X103952380Y-108923809D01*
X103952380Y-109161904D01*
X104000000Y-109257142D01*
X104047619Y-109304761D01*
X104142857Y-109352380D01*
X104428571Y-109352380D01*
X104523809Y-109304761D01*
X104571428Y-109257142D01*
X103476190Y-109352380D02*
X103285714Y-109352380D01*
X103190476Y-109304761D01*
X103142857Y-109257142D01*
X103047619Y-109114285D01*
X103000000Y-108923809D01*
X103000000Y-108542857D01*
X103047619Y-108447619D01*
X103095238Y-108400000D01*
X103190476Y-108352380D01*
X103380952Y-108352380D01*
X103476190Y-108400000D01*
X103523809Y-108447619D01*
X103571428Y-108542857D01*
X103571428Y-108780952D01*
X103523809Y-108876190D01*
X103476190Y-108923809D01*
X103380952Y-108971428D01*
X103190476Y-108971428D01*
X103095238Y-108923809D01*
X103047619Y-108876190D01*
X103000000Y-108780952D01*
X104952380Y-106852380D02*
X104952380Y-105852380D01*
X104571428Y-105852380D02*
X103952380Y-105852380D01*
X104285714Y-106233333D01*
X104142857Y-106233333D01*
X104047619Y-106280952D01*
X104000000Y-106328571D01*
X103952380Y-106423809D01*
X103952380Y-106661904D01*
X104000000Y-106757142D01*
X104047619Y-106804761D01*
X104142857Y-106852380D01*
X104428571Y-106852380D01*
X104523809Y-106804761D01*
X104571428Y-106757142D01*
X103095238Y-105852380D02*
X103285714Y-105852380D01*
X103380952Y-105900000D01*
X103428571Y-105947619D01*
X103523809Y-106090476D01*
X103571428Y-106280952D01*
X103571428Y-106661904D01*
X103523809Y-106757142D01*
X103476190Y-106804761D01*
X103380952Y-106852380D01*
X103190476Y-106852380D01*
X103095238Y-106804761D01*
X103047619Y-106757142D01*
X103000000Y-106661904D01*
X103000000Y-106423809D01*
X103047619Y-106328571D01*
X103095238Y-106280952D01*
X103190476Y-106233333D01*
X103380952Y-106233333D01*
X103476190Y-106280952D01*
X103523809Y-106328571D01*
X103571428Y-106423809D01*
X104509523Y-103352380D02*
X104176190Y-104352380D01*
X103842857Y-103352380D01*
X103557142Y-104304761D02*
X103414285Y-104352380D01*
X103176190Y-104352380D01*
X103080952Y-104304761D01*
X103033333Y-104257142D01*
X102985714Y-104161904D01*
X102985714Y-104066666D01*
X103033333Y-103971428D01*
X103080952Y-103923809D01*
X103176190Y-103876190D01*
X103366666Y-103828571D01*
X103461904Y-103780952D01*
X103509523Y-103733333D01*
X103557142Y-103638095D01*
X103557142Y-103542857D01*
X103509523Y-103447619D01*
X103461904Y-103400000D01*
X103366666Y-103352380D01*
X103128571Y-103352380D01*
X102985714Y-103400000D01*
X105438095Y-100852380D02*
X104819047Y-100852380D01*
X105152380Y-101233333D01*
X105009523Y-101233333D01*
X104914285Y-101280952D01*
X104866666Y-101328571D01*
X104819047Y-101423809D01*
X104819047Y-101661904D01*
X104866666Y-101757142D01*
X104914285Y-101804761D01*
X105009523Y-101852380D01*
X105295238Y-101852380D01*
X105390476Y-101804761D01*
X105438095Y-101757142D01*
X104533333Y-100852380D02*
X104200000Y-101852380D01*
X103866666Y-100852380D01*
X103628571Y-100852380D02*
X103009523Y-100852380D01*
X103342857Y-101233333D01*
X103200000Y-101233333D01*
X103104761Y-101280952D01*
X103057142Y-101328571D01*
X103009523Y-101423809D01*
X103009523Y-101661904D01*
X103057142Y-101757142D01*
X103104761Y-101804761D01*
X103200000Y-101852380D01*
X103485714Y-101852380D01*
X103580952Y-101804761D01*
X103628571Y-101757142D01*
M02*
