G04 #@! TF.GenerationSoftware,KiCad,Pcbnew,(5.1.9)-1*
G04 #@! TF.CreationDate,2021-10-30T12:25:48+01:00*
G04 #@! TF.ProjectId,stepper_driver,73746570-7065-4725-9f64-72697665722e,rev?*
G04 #@! TF.SameCoordinates,Original*
G04 #@! TF.FileFunction,Copper,L4,Bot*
G04 #@! TF.FilePolarity,Positive*
%FSLAX46Y46*%
G04 Gerber Fmt 4.6, Leading zero omitted, Abs format (unit mm)*
G04 Created by KiCad (PCBNEW (5.1.9)-1) date 2021-10-30 12:25:48*
%MOMM*%
%LPD*%
G01*
G04 APERTURE LIST*
G04 #@! TA.AperFunction,ComponentPad*
%ADD10O,1.700000X1.700000*%
G04 #@! TD*
G04 #@! TA.AperFunction,ComponentPad*
%ADD11R,1.700000X1.700000*%
G04 #@! TD*
G04 #@! TA.AperFunction,ComponentPad*
%ADD12C,2.000000*%
G04 #@! TD*
G04 #@! TA.AperFunction,ComponentPad*
%ADD13R,2.000000X2.000000*%
G04 #@! TD*
G04 #@! TA.AperFunction,ComponentPad*
%ADD14C,2.200000*%
G04 #@! TD*
G04 #@! TA.AperFunction,ComponentPad*
%ADD15R,2.200000X2.200000*%
G04 #@! TD*
G04 #@! TA.AperFunction,ComponentPad*
%ADD16O,2.300000X1.500000*%
G04 #@! TD*
G04 #@! TA.AperFunction,ComponentPad*
%ADD17O,1.500000X2.300000*%
G04 #@! TD*
G04 #@! TA.AperFunction,ComponentPad*
%ADD18O,2.100000X1.000000*%
G04 #@! TD*
G04 #@! TA.AperFunction,ComponentPad*
%ADD19O,1.600000X1.000000*%
G04 #@! TD*
G04 #@! TA.AperFunction,ViaPad*
%ADD20C,4.064000*%
G04 #@! TD*
G04 #@! TA.AperFunction,ViaPad*
%ADD21C,1.016000*%
G04 #@! TD*
G04 #@! TA.AperFunction,ViaPad*
%ADD22C,0.600000*%
G04 #@! TD*
G04 #@! TA.AperFunction,ViaPad*
%ADD23C,2.032000*%
G04 #@! TD*
G04 #@! TA.AperFunction,Conductor*
%ADD24C,0.203200*%
G04 #@! TD*
G04 #@! TA.AperFunction,Conductor*
%ADD25C,0.635000*%
G04 #@! TD*
G04 #@! TA.AperFunction,Conductor*
%ADD26C,1.905000*%
G04 #@! TD*
G04 APERTURE END LIST*
D10*
X101800000Y-134320000D03*
X101800000Y-131780000D03*
X101800000Y-129240000D03*
X101800000Y-126700000D03*
X101800000Y-124160000D03*
X101800000Y-121620000D03*
X101800000Y-119080000D03*
X101800000Y-116540000D03*
X101800000Y-114000000D03*
X101800000Y-111460000D03*
X101800000Y-108920000D03*
X101800000Y-106380000D03*
X101800000Y-103840000D03*
D11*
X101800000Y-101300000D03*
D12*
X107100000Y-104400000D03*
D13*
X112100000Y-104400000D03*
D14*
X113920000Y-129400000D03*
X111380000Y-129400000D03*
X108840000Y-129400000D03*
D15*
X106300000Y-129400000D03*
D16*
X149300000Y-117500000D03*
D17*
X146750000Y-122200000D03*
X153400000Y-122200000D03*
D18*
X152970000Y-99882000D03*
X152970000Y-108522000D03*
D19*
X157150000Y-108522000D03*
X157150000Y-99882000D03*
D20*
X126500000Y-108800000D03*
D21*
X134300000Y-101300000D03*
X116000000Y-101300000D03*
X121700000Y-117200000D03*
D22*
X141891797Y-111853003D03*
D21*
X140195000Y-128155000D03*
D22*
X139500000Y-121100000D03*
X130700000Y-134700000D03*
D23*
X124035000Y-124600000D03*
D21*
X138000000Y-118200000D03*
X144500000Y-116800000D03*
D20*
X134280000Y-134700000D03*
D22*
X118200000Y-119000000D03*
X122100000Y-129320600D03*
X147500000Y-98700000D03*
X150300000Y-98700000D03*
X144200000Y-95100000D03*
D23*
X107100000Y-106700000D03*
D22*
X129100000Y-122500000D03*
X110100000Y-113500000D03*
X131700000Y-128600000D03*
D21*
X116600000Y-127000000D03*
D22*
X150800000Y-108400000D03*
X144700000Y-108700000D03*
D21*
X142790396Y-114387400D03*
X115800000Y-102800000D03*
D22*
X141104700Y-115800000D03*
X123600000Y-129100000D03*
X131000000Y-126100000D03*
X149300000Y-109500000D03*
X139400000Y-109800000D03*
X120300000Y-103800000D03*
X138400000Y-107800000D03*
X133800000Y-105600000D03*
X133800000Y-107800000D03*
X137600000Y-102200000D03*
X134500000Y-117700000D03*
X139800000Y-107200000D03*
X139800000Y-104000000D03*
X134500000Y-106400000D03*
X146300000Y-107500000D03*
X146200000Y-106500000D03*
X138800000Y-103800000D03*
X116300000Y-108600000D03*
D23*
X112000000Y-106400000D03*
D21*
X118200000Y-132200000D03*
X122000000Y-133203300D03*
X115700000Y-116300000D03*
X115600000Y-121900000D03*
X132000000Y-120800000D03*
X141900000Y-119000000D03*
X141400000Y-114700000D03*
D22*
X139800000Y-113600000D03*
X144200000Y-113800000D03*
D21*
X126900000Y-132200000D03*
X120006738Y-132306814D03*
D22*
X150900000Y-106600000D03*
X150800000Y-101600000D03*
D21*
X153000000Y-111200000D03*
D22*
X134500000Y-110300000D03*
X126300000Y-121000000D03*
X132800000Y-106800000D03*
X125150344Y-120416368D03*
X132200000Y-111400000D03*
X124356667Y-120390648D03*
X131600000Y-112500000D03*
X123190302Y-120709698D03*
X130900000Y-116400000D03*
X122200000Y-120700000D03*
X126479400Y-129127021D03*
X122100000Y-130400000D03*
X127600000Y-129000000D03*
X116300000Y-130400000D03*
X127792836Y-131241420D03*
X121700000Y-136500000D03*
X128635438Y-131159236D03*
X128400000Y-135200000D03*
D23*
X124400000Y-134300000D03*
D22*
X129413663Y-128726791D03*
X129400000Y-133600000D03*
X130300000Y-128600000D03*
X130120600Y-133100000D03*
X118700000Y-122700000D03*
X116000000Y-119400000D03*
X111200000Y-126000000D03*
X118100000Y-125600000D03*
X117700000Y-122600000D03*
X116700000Y-125429400D03*
X116700000Y-122600000D03*
X122200000Y-128500000D03*
X120600000Y-115300000D03*
X124700000Y-128900000D03*
X120500000Y-114000000D03*
X121400000Y-114000000D03*
X126600000Y-127100000D03*
X117400000Y-110900000D03*
X116900000Y-108000000D03*
X117100000Y-107000000D03*
X115600000Y-105100000D03*
X115800000Y-104100000D03*
X123000000Y-117200000D03*
X129900000Y-116200000D03*
X130900000Y-113700000D03*
X130600000Y-114500000D03*
X134100000Y-103800000D03*
X132200000Y-103800000D03*
X131900000Y-106100000D03*
D24*
X130700000Y-134700000D02*
X130700000Y-129300000D01*
X129979401Y-127720599D02*
X129589099Y-128110901D01*
X129589099Y-128110901D02*
X129210901Y-128110901D01*
X129210901Y-128110901D02*
X129021802Y-128300000D01*
X129021802Y-128300000D02*
X126434646Y-128300000D01*
X126434646Y-128300000D02*
X125900000Y-128834646D01*
X118200000Y-119000000D02*
X116800000Y-119000000D01*
X116800000Y-119000000D02*
X115600000Y-117800000D01*
X115600000Y-117800000D02*
X111300000Y-117800000D01*
X110100000Y-116600000D02*
X110100000Y-113500000D01*
X111300000Y-117800000D02*
X110100000Y-116600000D01*
X129979401Y-127720599D02*
X130420599Y-127720599D01*
X130420599Y-127720599D02*
X131000000Y-128300000D01*
X131000000Y-129000000D02*
X130700000Y-129300000D01*
X131000000Y-128300000D02*
X131000000Y-129000000D01*
X125900000Y-129138829D02*
X125900000Y-128834646D01*
X125057819Y-129981010D02*
X125900000Y-129138829D01*
X122760410Y-129981010D02*
X125057819Y-129981010D01*
X122100000Y-129320600D02*
X122760410Y-129981010D01*
X150800000Y-108400000D02*
X150500000Y-108700000D01*
X150500000Y-108700000D02*
X144700000Y-108700000D01*
X140600000Y-118300000D02*
X141104700Y-117795300D01*
X123600000Y-129100000D02*
X124100000Y-129600000D01*
X125518990Y-128676827D02*
X126465926Y-127729891D01*
X137900000Y-119300000D02*
X138040728Y-119300000D01*
X124100000Y-129600000D02*
X124900000Y-129600000D01*
X124900000Y-129600000D02*
X125518990Y-128981010D01*
X139040728Y-118300000D02*
X140600000Y-118300000D01*
X126465926Y-127729891D02*
X129270109Y-127729891D01*
X141104700Y-117795300D02*
X141104700Y-115800000D01*
X129270109Y-127729891D02*
X129800000Y-127200000D01*
X125518990Y-128981010D02*
X125518990Y-128676827D01*
X138040728Y-119300000D02*
X139040728Y-118300000D01*
X129800000Y-121700000D02*
X131600000Y-119900000D01*
X131600000Y-119900000D02*
X137300000Y-119900000D01*
X137300000Y-119900000D02*
X137900000Y-119300000D01*
X130300000Y-126800000D02*
X131000000Y-126100000D01*
X129800000Y-127200000D02*
X129800000Y-126800000D01*
X129800000Y-126800000D02*
X130300000Y-126800000D01*
X129800000Y-126800000D02*
X129800000Y-121700000D01*
X149000000Y-109800000D02*
X139400000Y-109800000D01*
X149300000Y-109500000D02*
X149000000Y-109800000D01*
X120300000Y-103800000D02*
X130400000Y-103800000D01*
X130400000Y-103800000D02*
X130800000Y-103800000D01*
X130800000Y-103800000D02*
X134200000Y-107200000D01*
X137800000Y-107200000D02*
X138400000Y-107800000D01*
X134200000Y-107200000D02*
X137800000Y-107200000D01*
X133800000Y-107800000D02*
X135300000Y-109300000D01*
X135300000Y-116900000D02*
X134500000Y-117700000D01*
X135300000Y-109300000D02*
X135300000Y-116900000D01*
X137600000Y-102200000D02*
X137600000Y-105400000D01*
X137400000Y-105600000D02*
X133800000Y-105600000D01*
X137600000Y-105400000D02*
X137400000Y-105600000D01*
X139800000Y-107200000D02*
X139800000Y-104000000D01*
X134500000Y-106400000D02*
X137900000Y-106400000D01*
X137900000Y-106400000D02*
X139400000Y-107900000D01*
X145900000Y-107900000D02*
X146300000Y-107500000D01*
X139400000Y-107900000D02*
X145900000Y-107900000D01*
X139179401Y-103420599D02*
X138800000Y-103800000D01*
X143120599Y-103420599D02*
X139179401Y-103420599D01*
X146200000Y-106500000D02*
X143120599Y-103420599D01*
X116300000Y-108600000D02*
X113900000Y-108600000D01*
X113338828Y-108800000D02*
X112938828Y-109200000D01*
X113700000Y-108800000D02*
X113338828Y-108800000D01*
X113900000Y-108600000D02*
X113700000Y-108800000D01*
X112938828Y-109200000D02*
X105000000Y-109200000D01*
X103981010Y-110218990D02*
X103981010Y-115718990D01*
X105000000Y-109200000D02*
X103981010Y-110218990D01*
X103160000Y-116540000D02*
X101800000Y-116540000D01*
X103981010Y-115718990D02*
X103160000Y-116540000D01*
D25*
X122000000Y-133203300D02*
X121703300Y-133500000D01*
X119500000Y-133500000D02*
X118200000Y-132200000D01*
X121703300Y-133500000D02*
X119500000Y-133500000D01*
X139184886Y-119000000D02*
X141900000Y-119000000D01*
X137384886Y-120800000D02*
X139184886Y-119000000D01*
X132000000Y-120800000D02*
X137384886Y-120800000D01*
X141900000Y-115200000D02*
X141400000Y-114700000D01*
X141900000Y-119000000D02*
X141900000Y-115200000D01*
D24*
X144000000Y-113600000D02*
X144200000Y-113800000D01*
X139800000Y-113600000D02*
X144000000Y-113600000D01*
D25*
X120900000Y-132200000D02*
X126900000Y-132200000D01*
X120113552Y-132200000D02*
X120006738Y-132306814D01*
X120900000Y-132200000D02*
X120113552Y-132200000D01*
D24*
X150900000Y-101700000D02*
X150800000Y-101600000D01*
D25*
X150800000Y-106500000D02*
X150900000Y-106600000D01*
X150800000Y-101600000D02*
X150800000Y-106500000D01*
X153893745Y-106271699D02*
X154800000Y-107177954D01*
X151228301Y-106271699D02*
X153893745Y-106271699D01*
X150900000Y-106600000D02*
X151228301Y-106271699D01*
X154800000Y-107177954D02*
X154800000Y-109100000D01*
X153000000Y-110900000D02*
X153000000Y-111200000D01*
X154800000Y-109100000D02*
X153000000Y-110900000D01*
D24*
X127300000Y-121000000D02*
X129900000Y-121000000D01*
X134500000Y-116400000D02*
X134500000Y-110300000D01*
X129900000Y-121000000D02*
X134500000Y-116400000D01*
X127300000Y-121000000D02*
X126300000Y-121000000D01*
X126700000Y-120400000D02*
X129961172Y-120400000D01*
X132800000Y-117561172D02*
X132800000Y-106800000D01*
X129961172Y-120400000D02*
X132800000Y-117561172D01*
X125166712Y-120400000D02*
X125150344Y-120416368D01*
X126700000Y-120400000D02*
X125166712Y-120400000D01*
X125279401Y-119820599D02*
X127579401Y-119820599D01*
X127579401Y-119820599D02*
X127600000Y-119800000D01*
X127600000Y-119800000D02*
X129700000Y-119800000D01*
X132200000Y-117300000D02*
X132200000Y-111400000D01*
X129700000Y-119800000D02*
X132200000Y-117300000D01*
X124926716Y-119820599D02*
X124356667Y-120390648D01*
X125279401Y-119820599D02*
X124926716Y-119820599D01*
X129561172Y-119400000D02*
X129561172Y-119338828D01*
X131600000Y-117300000D02*
X131600000Y-112500000D01*
X129561172Y-119338828D02*
X131600000Y-117300000D01*
X124500000Y-119400000D02*
X124600000Y-119400000D01*
X123190302Y-120709698D02*
X124500000Y-119400000D01*
X124600000Y-119400000D02*
X129561172Y-119400000D01*
X130900000Y-117400000D02*
X130900000Y-116400000D01*
X129400000Y-118900000D02*
X130900000Y-117400000D01*
X124000000Y-118900000D02*
X124300000Y-118900000D01*
X124300000Y-118900000D02*
X129400000Y-118900000D01*
X122200000Y-120700000D02*
X124000000Y-118900000D01*
X125200000Y-130400000D02*
X122100000Y-130400000D01*
X126400000Y-129200000D02*
X125200000Y-130400000D01*
X127600000Y-129000000D02*
X125500000Y-131100000D01*
X117000000Y-131100000D02*
X116300000Y-130400000D01*
X125500000Y-131100000D02*
X117000000Y-131100000D01*
X127792836Y-134507164D02*
X127792836Y-131241420D01*
X127792836Y-134507164D02*
X127792836Y-135707164D01*
X127792836Y-135707164D02*
X127792836Y-135907164D01*
X127200000Y-136500000D02*
X121700000Y-136500000D01*
X127792836Y-135907164D02*
X127200000Y-136500000D01*
X128635438Y-134964562D02*
X128400000Y-135200000D01*
X128635438Y-131159236D02*
X128635438Y-134964562D01*
D26*
X123469699Y-135069699D02*
X124239398Y-134300000D01*
X121013455Y-135069699D02*
X123469699Y-135069699D01*
X120983154Y-135100000D02*
X121013455Y-135069699D01*
X117400000Y-135100000D02*
X120983154Y-135100000D01*
X115700000Y-133400000D02*
X117400000Y-135100000D01*
X124239398Y-134300000D02*
X124400000Y-134300000D01*
X115000000Y-133400000D02*
X115700000Y-133400000D01*
X113920000Y-132320000D02*
X115000000Y-133400000D01*
X113920000Y-129400000D02*
X113920000Y-132320000D01*
D24*
X129413663Y-133586337D02*
X129400000Y-133600000D01*
X129413663Y-128726791D02*
X129413663Y-133586337D01*
X130300000Y-132920600D02*
X130120600Y-133100000D01*
X130300000Y-128600000D02*
X130300000Y-132920600D01*
X116000000Y-120000000D02*
X116000000Y-119400000D01*
X118700000Y-122700000D02*
X116000000Y-120000000D01*
X111200000Y-126000000D02*
X107200000Y-126000000D01*
X106300000Y-126900000D02*
X106300000Y-129400000D01*
X107200000Y-126000000D02*
X106300000Y-126900000D01*
X117700000Y-125200000D02*
X117700000Y-122600000D01*
X118100000Y-125600000D02*
X117700000Y-125200000D01*
X116700000Y-125429400D02*
X116700000Y-122600000D01*
X122200000Y-128500000D02*
X122600000Y-128100000D01*
X124061171Y-128100000D02*
X126061171Y-126100000D01*
X122600000Y-128100000D02*
X124061171Y-128100000D01*
X126061171Y-126100000D02*
X127361172Y-126100000D01*
X127361172Y-126100000D02*
X127818990Y-125642182D01*
X127818990Y-125642182D02*
X127818990Y-123596646D01*
X120118990Y-116242182D02*
X120500000Y-115861172D01*
X120500000Y-115400000D02*
X120600000Y-115300000D01*
X120118990Y-121057819D02*
X120118990Y-116242182D01*
X121423191Y-122362020D02*
X120118990Y-121057819D01*
X126584364Y-122362020D02*
X121423191Y-122362020D01*
X120500000Y-115861172D02*
X120500000Y-115400000D01*
X127818990Y-123596646D02*
X126584364Y-122362020D01*
X121179401Y-114679401D02*
X120500000Y-114000000D01*
X121179401Y-115720599D02*
X121179401Y-114679401D01*
X120500000Y-116400000D02*
X121179401Y-115720599D01*
X121581010Y-121981010D02*
X120500000Y-120900000D01*
X126742182Y-121981010D02*
X121581010Y-121981010D01*
X120500000Y-120900000D02*
X120500000Y-116400000D01*
X128200000Y-123438828D02*
X126742182Y-121981010D01*
X128200000Y-125800000D02*
X128200000Y-123438828D01*
X127479401Y-126520599D02*
X128200000Y-125800000D01*
X126000000Y-126700000D02*
X126179401Y-126520599D01*
X126179401Y-126520599D02*
X127479401Y-126520599D01*
X126000000Y-127600000D02*
X126000000Y-126700000D01*
X124700000Y-128900000D02*
X126000000Y-127600000D01*
X121560411Y-114160411D02*
X121400000Y-114000000D01*
X121560411Y-115878418D02*
X121560411Y-114160411D01*
X121900000Y-121600000D02*
X120900000Y-120600000D01*
X126900000Y-121600000D02*
X121900000Y-121600000D01*
X120900000Y-116538829D02*
X121560411Y-115878418D01*
X128700000Y-123400000D02*
X126900000Y-121600000D01*
X128400000Y-127100000D02*
X128700000Y-126800000D01*
X120900000Y-120600000D02*
X120900000Y-116538829D01*
X128700000Y-126800000D02*
X128700000Y-123400000D01*
X126600000Y-127100000D02*
X128400000Y-127100000D01*
X117400000Y-110900000D02*
X115700000Y-109200000D01*
X113477656Y-109200000D02*
X113096647Y-109581010D01*
X115700000Y-109200000D02*
X113477656Y-109200000D01*
X105218990Y-109581010D02*
X104362020Y-110437980D01*
X113096647Y-109581010D02*
X105218990Y-109581010D01*
X104362020Y-115876809D02*
X103300000Y-116938829D01*
X104362020Y-110437980D02*
X104362020Y-115876809D01*
X103300000Y-116938829D02*
X103300000Y-118800000D01*
X103020000Y-119080000D02*
X101800000Y-119080000D01*
X103300000Y-118800000D02*
X103020000Y-119080000D01*
X116900000Y-108000000D02*
X116600000Y-107700000D01*
X116600000Y-107700000D02*
X113900000Y-107700000D01*
X113900000Y-107700000D02*
X112800000Y-108800000D01*
X112800000Y-108800000D02*
X104500000Y-108800000D01*
X104500000Y-108800000D02*
X103600000Y-109700000D01*
X103600000Y-109700000D02*
X103600000Y-113600000D01*
X103200000Y-114000000D02*
X101800000Y-114000000D01*
X103600000Y-113600000D02*
X103200000Y-114000000D01*
X102740000Y-111460000D02*
X101800000Y-111460000D01*
X103100000Y-111100000D02*
X102740000Y-111460000D01*
X103100000Y-109500000D02*
X103100000Y-111100000D01*
X104400000Y-108200000D02*
X103100000Y-109500000D01*
X112700000Y-108200000D02*
X104400000Y-108200000D01*
X113900000Y-107000000D02*
X112700000Y-108200000D01*
X117100000Y-107000000D02*
X113900000Y-107000000D01*
X101800000Y-108920000D02*
X103900000Y-106820000D01*
X103900000Y-106820000D02*
X103900000Y-103400000D01*
X103900000Y-103400000D02*
X104700000Y-102600000D01*
X104700000Y-102600000D02*
X113200000Y-102600000D01*
X115600000Y-105000000D02*
X115600000Y-105100000D01*
X113200000Y-102600000D02*
X115600000Y-105000000D01*
X115800000Y-104100000D02*
X113800000Y-102100000D01*
X113800000Y-102100000D02*
X104400000Y-102100000D01*
X104400000Y-102100000D02*
X103300000Y-103200000D01*
X103300000Y-103200000D02*
X103300000Y-106000000D01*
X102920000Y-106380000D02*
X101800000Y-106380000D01*
X103300000Y-106000000D02*
X102920000Y-106380000D01*
X123000000Y-117200000D02*
X123000000Y-113000000D01*
X103320000Y-131780000D02*
X101800000Y-131780000D01*
X107024039Y-116131275D02*
X105400000Y-117755314D01*
X122800000Y-112800000D02*
X118916487Y-112800000D01*
X118713046Y-113003441D02*
X116125784Y-113003441D01*
X105400000Y-126200000D02*
X103581010Y-128018990D01*
X103581010Y-131518990D02*
X103320000Y-131780000D01*
X118916487Y-112800000D02*
X118713046Y-113003441D01*
X114922343Y-111800000D02*
X107600000Y-111800000D01*
X123000000Y-113000000D02*
X122800000Y-112800000D01*
X107024040Y-112375960D02*
X107024039Y-116131275D01*
X107600000Y-111800000D02*
X107024040Y-112375960D01*
X116125784Y-113003441D02*
X114922343Y-111800000D01*
X105400000Y-117755314D02*
X105400000Y-126200000D01*
X103581010Y-128018990D02*
X103581010Y-131518990D01*
X104824040Y-125875960D02*
X103200000Y-127500000D01*
X104824040Y-117792446D02*
X104824040Y-125875960D01*
X129900000Y-116200000D02*
X129900000Y-114600000D01*
X129900000Y-114600000D02*
X127900000Y-112600000D01*
X127900000Y-112600000D02*
X125500000Y-112600000D01*
X125500000Y-112600000D02*
X125300000Y-112400000D01*
X125300000Y-112400000D02*
X118777658Y-112400000D01*
X118777658Y-112400000D02*
X118555227Y-112622431D01*
X106316486Y-116300000D02*
X104824040Y-117792446D01*
X118555227Y-112622431D02*
X116283602Y-112622431D01*
X116283602Y-112622431D02*
X115042182Y-111381010D01*
X115042182Y-111381010D02*
X106918990Y-111381010D01*
X106918990Y-111381010D02*
X106643030Y-111656970D01*
X106643030Y-111656970D02*
X106643030Y-115973457D01*
X106643030Y-115973457D02*
X106316486Y-116300000D01*
X103200000Y-127500000D02*
X103200000Y-128800000D01*
X102760000Y-129240000D02*
X101800000Y-129240000D01*
X103200000Y-128800000D02*
X102760000Y-129240000D01*
X130900000Y-113700000D02*
X128600000Y-111400000D01*
X128600000Y-111400000D02*
X118700000Y-111400000D01*
X118239589Y-111860411D02*
X116660411Y-111860411D01*
X118700000Y-111400000D02*
X118239589Y-111860411D01*
X116660411Y-111860411D02*
X115400000Y-110600000D01*
X115400000Y-110600000D02*
X106300000Y-110600000D01*
X105881010Y-115657819D02*
X104062020Y-117476809D01*
X105881010Y-111018990D02*
X105881010Y-115657819D01*
X106300000Y-110600000D02*
X105881010Y-111018990D01*
X104062020Y-117476809D02*
X104062020Y-123337980D01*
X103240000Y-124160000D02*
X101800000Y-124160000D01*
X104062020Y-123337980D02*
X103240000Y-124160000D01*
X130600000Y-114500000D02*
X128200000Y-112100000D01*
X126700000Y-112100000D02*
X126500000Y-111900000D01*
X128200000Y-112100000D02*
X126700000Y-112100000D01*
X118397408Y-112241421D02*
X116441421Y-112241421D01*
X118738828Y-111900000D02*
X118397408Y-112241421D01*
X126500000Y-111900000D02*
X118738828Y-111900000D01*
X116441421Y-112241421D02*
X115200000Y-111000000D01*
X106600000Y-111000000D02*
X106262020Y-111337980D01*
X115200000Y-111000000D02*
X106600000Y-111000000D01*
X106262020Y-115815638D02*
X104443030Y-117634628D01*
X106262020Y-111337980D02*
X106262020Y-115815638D01*
X104443030Y-117634628D02*
X104443030Y-125356970D01*
X103100000Y-126700000D02*
X101800000Y-126700000D01*
X104443030Y-125356970D02*
X103100000Y-126700000D01*
X134100000Y-103800000D02*
X132200000Y-103800000D01*
X131900000Y-106100000D02*
X130300000Y-104500000D01*
X130300000Y-104500000D02*
X119900000Y-104500000D01*
X119900000Y-104500000D02*
X118400000Y-106000000D01*
X118400000Y-106000000D02*
X118400000Y-111000000D01*
X117121887Y-111479401D02*
X116200000Y-110557514D01*
X117920599Y-111479401D02*
X117121887Y-111479401D01*
X118400000Y-111000000D02*
X117920599Y-111479401D01*
X116200000Y-110557514D02*
X116200000Y-110500000D01*
X116200000Y-110500000D02*
X115800000Y-110100000D01*
X103681010Y-117318990D02*
X103681010Y-121118990D01*
X103180000Y-121620000D02*
X101800000Y-121620000D01*
X103681010Y-121118990D02*
X103180000Y-121620000D01*
X115800000Y-110100000D02*
X105900000Y-110100000D01*
X104850000Y-111150000D02*
X104850000Y-116150000D01*
X105900000Y-110100000D02*
X104850000Y-111150000D01*
X104850000Y-116150000D02*
X103681010Y-117318990D01*
M02*
