G04 #@! TF.GenerationSoftware,KiCad,Pcbnew,(5.1.9)-1*
G04 #@! TF.CreationDate,2021-12-18T00:11:03+00:00*
G04 #@! TF.ProjectId,stepper_driver,73746570-7065-4725-9f64-72697665722e,rev?*
G04 #@! TF.SameCoordinates,Original*
G04 #@! TF.FileFunction,Paste,Top*
G04 #@! TF.FilePolarity,Positive*
%FSLAX46Y46*%
G04 Gerber Fmt 4.6, Leading zero omitted, Abs format (unit mm)*
G04 Created by KiCad (PCBNEW (5.1.9)-1) date 2021-12-18 00:11:03*
%MOMM*%
%LPD*%
G01*
G04 APERTURE LIST*
%ADD10R,0.750000X1.000000*%
%ADD11C,0.100000*%
%ADD12R,5.900000X1.600000*%
%ADD13R,0.900000X1.200000*%
%ADD14R,0.900000X0.800000*%
%ADD15R,2.000000X0.900000*%
%ADD16R,0.900000X2.000000*%
%ADD17R,5.000000X5.000000*%
%ADD18R,1.200000X0.900000*%
%ADD19R,1.060000X0.650000*%
%ADD20R,0.650000X1.060000*%
%ADD21R,1.000000X1.500000*%
%ADD22R,1.450000X0.600000*%
%ADD23R,1.450000X0.300000*%
%ADD24R,1.000000X0.750000*%
G04 APERTURE END LIST*
G36*
G01*
X157750000Y-94869000D02*
X157750000Y-93919000D01*
G75*
G02*
X158000000Y-93669000I250000J0D01*
G01*
X158500000Y-93669000D01*
G75*
G02*
X158750000Y-93919000I0J-250000D01*
G01*
X158750000Y-94869000D01*
G75*
G02*
X158500000Y-95119000I-250000J0D01*
G01*
X158000000Y-95119000D01*
G75*
G02*
X157750000Y-94869000I0J250000D01*
G01*
G37*
G36*
G01*
X155850000Y-94869000D02*
X155850000Y-93919000D01*
G75*
G02*
X156100000Y-93669000I250000J0D01*
G01*
X156600000Y-93669000D01*
G75*
G02*
X156850000Y-93919000I0J-250000D01*
G01*
X156850000Y-94869000D01*
G75*
G02*
X156600000Y-95119000I-250000J0D01*
G01*
X156100000Y-95119000D01*
G75*
G02*
X155850000Y-94869000I0J250000D01*
G01*
G37*
G36*
G01*
X136149000Y-97475000D02*
X136149000Y-98425000D01*
G75*
G02*
X135899000Y-98675000I-250000J0D01*
G01*
X135399000Y-98675000D01*
G75*
G02*
X135149000Y-98425000I0J250000D01*
G01*
X135149000Y-97475000D01*
G75*
G02*
X135399000Y-97225000I250000J0D01*
G01*
X135899000Y-97225000D01*
G75*
G02*
X136149000Y-97475000I0J-250000D01*
G01*
G37*
G36*
G01*
X138049000Y-97475000D02*
X138049000Y-98425000D01*
G75*
G02*
X137799000Y-98675000I-250000J0D01*
G01*
X137299000Y-98675000D01*
G75*
G02*
X137049000Y-98425000I0J250000D01*
G01*
X137049000Y-97475000D01*
G75*
G02*
X137299000Y-97225000I250000J0D01*
G01*
X137799000Y-97225000D01*
G75*
G02*
X138049000Y-97475000I0J-250000D01*
G01*
G37*
G36*
G01*
X133732000Y-97018000D02*
X133732000Y-97358000D01*
G75*
G02*
X133592000Y-97498000I-140000J0D01*
G01*
X133312000Y-97498000D01*
G75*
G02*
X133172000Y-97358000I0J140000D01*
G01*
X133172000Y-97018000D01*
G75*
G02*
X133312000Y-96878000I140000J0D01*
G01*
X133592000Y-96878000D01*
G75*
G02*
X133732000Y-97018000I0J-140000D01*
G01*
G37*
G36*
G01*
X134692000Y-97018000D02*
X134692000Y-97358000D01*
G75*
G02*
X134552000Y-97498000I-140000J0D01*
G01*
X134272000Y-97498000D01*
G75*
G02*
X134132000Y-97358000I0J140000D01*
G01*
X134132000Y-97018000D01*
G75*
G02*
X134272000Y-96878000I140000J0D01*
G01*
X134552000Y-96878000D01*
G75*
G02*
X134692000Y-97018000I0J-140000D01*
G01*
G37*
G36*
G01*
X140863000Y-95453000D02*
X140863000Y-95113000D01*
G75*
G02*
X141003000Y-94973000I140000J0D01*
G01*
X141283000Y-94973000D01*
G75*
G02*
X141423000Y-95113000I0J-140000D01*
G01*
X141423000Y-95453000D01*
G75*
G02*
X141283000Y-95593000I-140000J0D01*
G01*
X141003000Y-95593000D01*
G75*
G02*
X140863000Y-95453000I0J140000D01*
G01*
G37*
G36*
G01*
X139903000Y-95453000D02*
X139903000Y-95113000D01*
G75*
G02*
X140043000Y-94973000I140000J0D01*
G01*
X140323000Y-94973000D01*
G75*
G02*
X140463000Y-95113000I0J-140000D01*
G01*
X140463000Y-95453000D01*
G75*
G02*
X140323000Y-95593000I-140000J0D01*
G01*
X140043000Y-95593000D01*
G75*
G02*
X139903000Y-95453000I0J140000D01*
G01*
G37*
G36*
G01*
X144908000Y-95113000D02*
X144908000Y-95453000D01*
G75*
G02*
X144768000Y-95593000I-140000J0D01*
G01*
X144488000Y-95593000D01*
G75*
G02*
X144348000Y-95453000I0J140000D01*
G01*
X144348000Y-95113000D01*
G75*
G02*
X144488000Y-94973000I140000J0D01*
G01*
X144768000Y-94973000D01*
G75*
G02*
X144908000Y-95113000I0J-140000D01*
G01*
G37*
G36*
G01*
X145868000Y-95113000D02*
X145868000Y-95453000D01*
G75*
G02*
X145728000Y-95593000I-140000J0D01*
G01*
X145448000Y-95593000D01*
G75*
G02*
X145308000Y-95453000I0J140000D01*
G01*
X145308000Y-95113000D01*
G75*
G02*
X145448000Y-94973000I140000J0D01*
G01*
X145728000Y-94973000D01*
G75*
G02*
X145868000Y-95113000I0J-140000D01*
G01*
G37*
G36*
G01*
X152166000Y-95453000D02*
X152166000Y-95113000D01*
G75*
G02*
X152306000Y-94973000I140000J0D01*
G01*
X152586000Y-94973000D01*
G75*
G02*
X152726000Y-95113000I0J-140000D01*
G01*
X152726000Y-95453000D01*
G75*
G02*
X152586000Y-95593000I-140000J0D01*
G01*
X152306000Y-95593000D01*
G75*
G02*
X152166000Y-95453000I0J140000D01*
G01*
G37*
G36*
G01*
X151206000Y-95453000D02*
X151206000Y-95113000D01*
G75*
G02*
X151346000Y-94973000I140000J0D01*
G01*
X151626000Y-94973000D01*
G75*
G02*
X151766000Y-95113000I0J-140000D01*
G01*
X151766000Y-95453000D01*
G75*
G02*
X151626000Y-95593000I-140000J0D01*
G01*
X151346000Y-95593000D01*
G75*
G02*
X151206000Y-95453000I0J140000D01*
G01*
G37*
G36*
G01*
X136222000Y-82400000D02*
X136722000Y-82400000D01*
G75*
G02*
X136947000Y-82625000I0J-225000D01*
G01*
X136947000Y-83075000D01*
G75*
G02*
X136722000Y-83300000I-225000J0D01*
G01*
X136222000Y-83300000D01*
G75*
G02*
X135997000Y-83075000I0J225000D01*
G01*
X135997000Y-82625000D01*
G75*
G02*
X136222000Y-82400000I225000J0D01*
G01*
G37*
G36*
G01*
X136222000Y-80850000D02*
X136722000Y-80850000D01*
G75*
G02*
X136947000Y-81075000I0J-225000D01*
G01*
X136947000Y-81525000D01*
G75*
G02*
X136722000Y-81750000I-225000J0D01*
G01*
X136222000Y-81750000D01*
G75*
G02*
X135997000Y-81525000I0J225000D01*
G01*
X135997000Y-81075000D01*
G75*
G02*
X136222000Y-80850000I225000J0D01*
G01*
G37*
G36*
G01*
X138689000Y-83105000D02*
X138319000Y-83105000D01*
G75*
G02*
X138184000Y-82970000I0J135000D01*
G01*
X138184000Y-82700000D01*
G75*
G02*
X138319000Y-82565000I135000J0D01*
G01*
X138689000Y-82565000D01*
G75*
G02*
X138824000Y-82700000I0J-135000D01*
G01*
X138824000Y-82970000D01*
G75*
G02*
X138689000Y-83105000I-135000J0D01*
G01*
G37*
G36*
G01*
X138689000Y-84125000D02*
X138319000Y-84125000D01*
G75*
G02*
X138184000Y-83990000I0J135000D01*
G01*
X138184000Y-83720000D01*
G75*
G02*
X138319000Y-83585000I135000J0D01*
G01*
X138689000Y-83585000D01*
G75*
G02*
X138824000Y-83720000I0J-135000D01*
G01*
X138824000Y-83990000D01*
G75*
G02*
X138689000Y-84125000I-135000J0D01*
G01*
G37*
D10*
X123825000Y-77000000D03*
X127575000Y-77000000D03*
X127575000Y-71000000D03*
X123825000Y-71000000D03*
G36*
G01*
X123885000Y-68860000D02*
X123515000Y-68860000D01*
G75*
G02*
X123380000Y-68725000I0J135000D01*
G01*
X123380000Y-68455000D01*
G75*
G02*
X123515000Y-68320000I135000J0D01*
G01*
X123885000Y-68320000D01*
G75*
G02*
X124020000Y-68455000I0J-135000D01*
G01*
X124020000Y-68725000D01*
G75*
G02*
X123885000Y-68860000I-135000J0D01*
G01*
G37*
G36*
G01*
X123885000Y-69880000D02*
X123515000Y-69880000D01*
G75*
G02*
X123380000Y-69745000I0J135000D01*
G01*
X123380000Y-69475000D01*
G75*
G02*
X123515000Y-69340000I135000J0D01*
G01*
X123885000Y-69340000D01*
G75*
G02*
X124020000Y-69475000I0J-135000D01*
G01*
X124020000Y-69745000D01*
G75*
G02*
X123885000Y-69880000I-135000J0D01*
G01*
G37*
G36*
G01*
X135740000Y-58085000D02*
X135740000Y-57715000D01*
G75*
G02*
X135875000Y-57580000I135000J0D01*
G01*
X136145000Y-57580000D01*
G75*
G02*
X136280000Y-57715000I0J-135000D01*
G01*
X136280000Y-58085000D01*
G75*
G02*
X136145000Y-58220000I-135000J0D01*
G01*
X135875000Y-58220000D01*
G75*
G02*
X135740000Y-58085000I0J135000D01*
G01*
G37*
G36*
G01*
X134720000Y-58085000D02*
X134720000Y-57715000D01*
G75*
G02*
X134855000Y-57580000I135000J0D01*
G01*
X135125000Y-57580000D01*
G75*
G02*
X135260000Y-57715000I0J-135000D01*
G01*
X135260000Y-58085000D01*
G75*
G02*
X135125000Y-58220000I-135000J0D01*
G01*
X134855000Y-58220000D01*
G75*
G02*
X134720000Y-58085000I0J135000D01*
G01*
G37*
G36*
G01*
X132760000Y-57715000D02*
X132760000Y-58085000D01*
G75*
G02*
X132625000Y-58220000I-135000J0D01*
G01*
X132355000Y-58220000D01*
G75*
G02*
X132220000Y-58085000I0J135000D01*
G01*
X132220000Y-57715000D01*
G75*
G02*
X132355000Y-57580000I135000J0D01*
G01*
X132625000Y-57580000D01*
G75*
G02*
X132760000Y-57715000I0J-135000D01*
G01*
G37*
G36*
G01*
X133780000Y-57715000D02*
X133780000Y-58085000D01*
G75*
G02*
X133645000Y-58220000I-135000J0D01*
G01*
X133375000Y-58220000D01*
G75*
G02*
X133240000Y-58085000I0J135000D01*
G01*
X133240000Y-57715000D01*
G75*
G02*
X133375000Y-57580000I135000J0D01*
G01*
X133645000Y-57580000D01*
G75*
G02*
X133780000Y-57715000I0J-135000D01*
G01*
G37*
G36*
G01*
X127690800Y-89201000D02*
X127320800Y-89201000D01*
G75*
G02*
X127185800Y-89066000I0J135000D01*
G01*
X127185800Y-88796000D01*
G75*
G02*
X127320800Y-88661000I135000J0D01*
G01*
X127690800Y-88661000D01*
G75*
G02*
X127825800Y-88796000I0J-135000D01*
G01*
X127825800Y-89066000D01*
G75*
G02*
X127690800Y-89201000I-135000J0D01*
G01*
G37*
G36*
G01*
X127690800Y-90221000D02*
X127320800Y-90221000D01*
G75*
G02*
X127185800Y-90086000I0J135000D01*
G01*
X127185800Y-89816000D01*
G75*
G02*
X127320800Y-89681000I135000J0D01*
G01*
X127690800Y-89681000D01*
G75*
G02*
X127825800Y-89816000I0J-135000D01*
G01*
X127825800Y-90086000D01*
G75*
G02*
X127690800Y-90221000I-135000J0D01*
G01*
G37*
G36*
G01*
X128685000Y-89201000D02*
X128315000Y-89201000D01*
G75*
G02*
X128180000Y-89066000I0J135000D01*
G01*
X128180000Y-88796000D01*
G75*
G02*
X128315000Y-88661000I135000J0D01*
G01*
X128685000Y-88661000D01*
G75*
G02*
X128820000Y-88796000I0J-135000D01*
G01*
X128820000Y-89066000D01*
G75*
G02*
X128685000Y-89201000I-135000J0D01*
G01*
G37*
G36*
G01*
X128685000Y-90221000D02*
X128315000Y-90221000D01*
G75*
G02*
X128180000Y-90086000I0J135000D01*
G01*
X128180000Y-89816000D01*
G75*
G02*
X128315000Y-89681000I135000J0D01*
G01*
X128685000Y-89681000D01*
G75*
G02*
X128820000Y-89816000I0J-135000D01*
G01*
X128820000Y-90086000D01*
G75*
G02*
X128685000Y-90221000I-135000J0D01*
G01*
G37*
G36*
G01*
X141284000Y-85054000D02*
X141284000Y-84684000D01*
G75*
G02*
X141419000Y-84549000I135000J0D01*
G01*
X141689000Y-84549000D01*
G75*
G02*
X141824000Y-84684000I0J-135000D01*
G01*
X141824000Y-85054000D01*
G75*
G02*
X141689000Y-85189000I-135000J0D01*
G01*
X141419000Y-85189000D01*
G75*
G02*
X141284000Y-85054000I0J135000D01*
G01*
G37*
G36*
G01*
X140264000Y-85054000D02*
X140264000Y-84684000D01*
G75*
G02*
X140399000Y-84549000I135000J0D01*
G01*
X140669000Y-84549000D01*
G75*
G02*
X140804000Y-84684000I0J-135000D01*
G01*
X140804000Y-85054000D01*
G75*
G02*
X140669000Y-85189000I-135000J0D01*
G01*
X140399000Y-85189000D01*
G75*
G02*
X140264000Y-85054000I0J135000D01*
G01*
G37*
G36*
G01*
X142753000Y-86153000D02*
X142383000Y-86153000D01*
G75*
G02*
X142248000Y-86018000I0J135000D01*
G01*
X142248000Y-85748000D01*
G75*
G02*
X142383000Y-85613000I135000J0D01*
G01*
X142753000Y-85613000D01*
G75*
G02*
X142888000Y-85748000I0J-135000D01*
G01*
X142888000Y-86018000D01*
G75*
G02*
X142753000Y-86153000I-135000J0D01*
G01*
G37*
G36*
G01*
X142753000Y-87173000D02*
X142383000Y-87173000D01*
G75*
G02*
X142248000Y-87038000I0J135000D01*
G01*
X142248000Y-86768000D01*
G75*
G02*
X142383000Y-86633000I135000J0D01*
G01*
X142753000Y-86633000D01*
G75*
G02*
X142888000Y-86768000I0J-135000D01*
G01*
X142888000Y-87038000D01*
G75*
G02*
X142753000Y-87173000I-135000J0D01*
G01*
G37*
G36*
G01*
X139690000Y-83145000D02*
X139350000Y-83145000D01*
G75*
G02*
X139210000Y-83005000I0J140000D01*
G01*
X139210000Y-82725000D01*
G75*
G02*
X139350000Y-82585000I140000J0D01*
G01*
X139690000Y-82585000D01*
G75*
G02*
X139830000Y-82725000I0J-140000D01*
G01*
X139830000Y-83005000D01*
G75*
G02*
X139690000Y-83145000I-140000J0D01*
G01*
G37*
G36*
G01*
X139690000Y-84105000D02*
X139350000Y-84105000D01*
G75*
G02*
X139210000Y-83965000I0J140000D01*
G01*
X139210000Y-83685000D01*
G75*
G02*
X139350000Y-83545000I140000J0D01*
G01*
X139690000Y-83545000D01*
G75*
G02*
X139830000Y-83685000I0J-140000D01*
G01*
X139830000Y-83965000D01*
G75*
G02*
X139690000Y-84105000I-140000J0D01*
G01*
G37*
G36*
G01*
X145532000Y-86193000D02*
X145192000Y-86193000D01*
G75*
G02*
X145052000Y-86053000I0J140000D01*
G01*
X145052000Y-85773000D01*
G75*
G02*
X145192000Y-85633000I140000J0D01*
G01*
X145532000Y-85633000D01*
G75*
G02*
X145672000Y-85773000I0J-140000D01*
G01*
X145672000Y-86053000D01*
G75*
G02*
X145532000Y-86193000I-140000J0D01*
G01*
G37*
G36*
G01*
X145532000Y-87153000D02*
X145192000Y-87153000D01*
G75*
G02*
X145052000Y-87013000I0J140000D01*
G01*
X145052000Y-86733000D01*
G75*
G02*
X145192000Y-86593000I140000J0D01*
G01*
X145532000Y-86593000D01*
G75*
G02*
X145672000Y-86733000I0J-140000D01*
G01*
X145672000Y-87013000D01*
G75*
G02*
X145532000Y-87153000I-140000J0D01*
G01*
G37*
G36*
G01*
X137555000Y-92600000D02*
X137855000Y-92600000D01*
G75*
G02*
X138005000Y-92750000I0J-150000D01*
G01*
X138005000Y-94400000D01*
G75*
G02*
X137855000Y-94550000I-150000J0D01*
G01*
X137555000Y-94550000D01*
G75*
G02*
X137405000Y-94400000I0J150000D01*
G01*
X137405000Y-92750000D01*
G75*
G02*
X137555000Y-92600000I150000J0D01*
G01*
G37*
G36*
G01*
X136285000Y-92600000D02*
X136585000Y-92600000D01*
G75*
G02*
X136735000Y-92750000I0J-150000D01*
G01*
X136735000Y-94400000D01*
G75*
G02*
X136585000Y-94550000I-150000J0D01*
G01*
X136285000Y-94550000D01*
G75*
G02*
X136135000Y-94400000I0J150000D01*
G01*
X136135000Y-92750000D01*
G75*
G02*
X136285000Y-92600000I150000J0D01*
G01*
G37*
G36*
G01*
X135015000Y-92600000D02*
X135315000Y-92600000D01*
G75*
G02*
X135465000Y-92750000I0J-150000D01*
G01*
X135465000Y-94400000D01*
G75*
G02*
X135315000Y-94550000I-150000J0D01*
G01*
X135015000Y-94550000D01*
G75*
G02*
X134865000Y-94400000I0J150000D01*
G01*
X134865000Y-92750000D01*
G75*
G02*
X135015000Y-92600000I150000J0D01*
G01*
G37*
G36*
G01*
X133745000Y-92600000D02*
X134045000Y-92600000D01*
G75*
G02*
X134195000Y-92750000I0J-150000D01*
G01*
X134195000Y-94400000D01*
G75*
G02*
X134045000Y-94550000I-150000J0D01*
G01*
X133745000Y-94550000D01*
G75*
G02*
X133595000Y-94400000I0J150000D01*
G01*
X133595000Y-92750000D01*
G75*
G02*
X133745000Y-92600000I150000J0D01*
G01*
G37*
G36*
G01*
X133745000Y-87650000D02*
X134045000Y-87650000D01*
G75*
G02*
X134195000Y-87800000I0J-150000D01*
G01*
X134195000Y-89450000D01*
G75*
G02*
X134045000Y-89600000I-150000J0D01*
G01*
X133745000Y-89600000D01*
G75*
G02*
X133595000Y-89450000I0J150000D01*
G01*
X133595000Y-87800000D01*
G75*
G02*
X133745000Y-87650000I150000J0D01*
G01*
G37*
G36*
G01*
X135015000Y-87650000D02*
X135315000Y-87650000D01*
G75*
G02*
X135465000Y-87800000I0J-150000D01*
G01*
X135465000Y-89450000D01*
G75*
G02*
X135315000Y-89600000I-150000J0D01*
G01*
X135015000Y-89600000D01*
G75*
G02*
X134865000Y-89450000I0J150000D01*
G01*
X134865000Y-87800000D01*
G75*
G02*
X135015000Y-87650000I150000J0D01*
G01*
G37*
G36*
G01*
X136285000Y-87650000D02*
X136585000Y-87650000D01*
G75*
G02*
X136735000Y-87800000I0J-150000D01*
G01*
X136735000Y-89450000D01*
G75*
G02*
X136585000Y-89600000I-150000J0D01*
G01*
X136285000Y-89600000D01*
G75*
G02*
X136135000Y-89450000I0J150000D01*
G01*
X136135000Y-87800000D01*
G75*
G02*
X136285000Y-87650000I150000J0D01*
G01*
G37*
G36*
G01*
X137555000Y-87650000D02*
X137855000Y-87650000D01*
G75*
G02*
X138005000Y-87800000I0J-150000D01*
G01*
X138005000Y-89450000D01*
G75*
G02*
X137855000Y-89600000I-150000J0D01*
G01*
X137555000Y-89600000D01*
G75*
G02*
X137405000Y-89450000I0J150000D01*
G01*
X137405000Y-87800000D01*
G75*
G02*
X137555000Y-87650000I150000J0D01*
G01*
G37*
G36*
G01*
X143055000Y-92600000D02*
X143355000Y-92600000D01*
G75*
G02*
X143505000Y-92750000I0J-150000D01*
G01*
X143505000Y-94400000D01*
G75*
G02*
X143355000Y-94550000I-150000J0D01*
G01*
X143055000Y-94550000D01*
G75*
G02*
X142905000Y-94400000I0J150000D01*
G01*
X142905000Y-92750000D01*
G75*
G02*
X143055000Y-92600000I150000J0D01*
G01*
G37*
G36*
G01*
X141785000Y-92600000D02*
X142085000Y-92600000D01*
G75*
G02*
X142235000Y-92750000I0J-150000D01*
G01*
X142235000Y-94400000D01*
G75*
G02*
X142085000Y-94550000I-150000J0D01*
G01*
X141785000Y-94550000D01*
G75*
G02*
X141635000Y-94400000I0J150000D01*
G01*
X141635000Y-92750000D01*
G75*
G02*
X141785000Y-92600000I150000J0D01*
G01*
G37*
G36*
G01*
X140515000Y-92600000D02*
X140815000Y-92600000D01*
G75*
G02*
X140965000Y-92750000I0J-150000D01*
G01*
X140965000Y-94400000D01*
G75*
G02*
X140815000Y-94550000I-150000J0D01*
G01*
X140515000Y-94550000D01*
G75*
G02*
X140365000Y-94400000I0J150000D01*
G01*
X140365000Y-92750000D01*
G75*
G02*
X140515000Y-92600000I150000J0D01*
G01*
G37*
G36*
G01*
X139245000Y-92600000D02*
X139545000Y-92600000D01*
G75*
G02*
X139695000Y-92750000I0J-150000D01*
G01*
X139695000Y-94400000D01*
G75*
G02*
X139545000Y-94550000I-150000J0D01*
G01*
X139245000Y-94550000D01*
G75*
G02*
X139095000Y-94400000I0J150000D01*
G01*
X139095000Y-92750000D01*
G75*
G02*
X139245000Y-92600000I150000J0D01*
G01*
G37*
G36*
G01*
X139245000Y-87650000D02*
X139545000Y-87650000D01*
G75*
G02*
X139695000Y-87800000I0J-150000D01*
G01*
X139695000Y-89450000D01*
G75*
G02*
X139545000Y-89600000I-150000J0D01*
G01*
X139245000Y-89600000D01*
G75*
G02*
X139095000Y-89450000I0J150000D01*
G01*
X139095000Y-87800000D01*
G75*
G02*
X139245000Y-87650000I150000J0D01*
G01*
G37*
G36*
G01*
X140515000Y-87650000D02*
X140815000Y-87650000D01*
G75*
G02*
X140965000Y-87800000I0J-150000D01*
G01*
X140965000Y-89450000D01*
G75*
G02*
X140815000Y-89600000I-150000J0D01*
G01*
X140515000Y-89600000D01*
G75*
G02*
X140365000Y-89450000I0J150000D01*
G01*
X140365000Y-87800000D01*
G75*
G02*
X140515000Y-87650000I150000J0D01*
G01*
G37*
G36*
G01*
X141785000Y-87650000D02*
X142085000Y-87650000D01*
G75*
G02*
X142235000Y-87800000I0J-150000D01*
G01*
X142235000Y-89450000D01*
G75*
G02*
X142085000Y-89600000I-150000J0D01*
G01*
X141785000Y-89600000D01*
G75*
G02*
X141635000Y-89450000I0J150000D01*
G01*
X141635000Y-87800000D01*
G75*
G02*
X141785000Y-87650000I150000J0D01*
G01*
G37*
G36*
G01*
X143055000Y-87650000D02*
X143355000Y-87650000D01*
G75*
G02*
X143505000Y-87800000I0J-150000D01*
G01*
X143505000Y-89450000D01*
G75*
G02*
X143355000Y-89600000I-150000J0D01*
G01*
X143055000Y-89600000D01*
G75*
G02*
X142905000Y-89450000I0J150000D01*
G01*
X142905000Y-87800000D01*
G75*
G02*
X143055000Y-87650000I150000J0D01*
G01*
G37*
G36*
G01*
X144150000Y-86160000D02*
X143780000Y-86160000D01*
G75*
G02*
X143645000Y-86025000I0J135000D01*
G01*
X143645000Y-85755000D01*
G75*
G02*
X143780000Y-85620000I135000J0D01*
G01*
X144150000Y-85620000D01*
G75*
G02*
X144285000Y-85755000I0J-135000D01*
G01*
X144285000Y-86025000D01*
G75*
G02*
X144150000Y-86160000I-135000J0D01*
G01*
G37*
G36*
G01*
X144150000Y-87180000D02*
X143780000Y-87180000D01*
G75*
G02*
X143645000Y-87045000I0J135000D01*
G01*
X143645000Y-86775000D01*
G75*
G02*
X143780000Y-86640000I135000J0D01*
G01*
X144150000Y-86640000D01*
G75*
G02*
X144285000Y-86775000I0J-135000D01*
G01*
X144285000Y-87045000D01*
G75*
G02*
X144150000Y-87180000I-135000J0D01*
G01*
G37*
G36*
G01*
X129674999Y-95025000D02*
X132525001Y-95025000D01*
G75*
G02*
X132775000Y-95274999I0J-249999D01*
G01*
X132775000Y-96300001D01*
G75*
G02*
X132525001Y-96550000I-249999J0D01*
G01*
X129674999Y-96550000D01*
G75*
G02*
X129425000Y-96300001I0J249999D01*
G01*
X129425000Y-95274999D01*
G75*
G02*
X129674999Y-95025000I249999J0D01*
G01*
G37*
G36*
G01*
X129674999Y-89050000D02*
X132525001Y-89050000D01*
G75*
G02*
X132775000Y-89299999I0J-249999D01*
G01*
X132775000Y-90325001D01*
G75*
G02*
X132525001Y-90575000I-249999J0D01*
G01*
X129674999Y-90575000D01*
G75*
G02*
X129425000Y-90325001I0J249999D01*
G01*
X129425000Y-89299999D01*
G75*
G02*
X129674999Y-89050000I249999J0D01*
G01*
G37*
G36*
G01*
X147198000Y-86153000D02*
X146828000Y-86153000D01*
G75*
G02*
X146693000Y-86018000I0J135000D01*
G01*
X146693000Y-85748000D01*
G75*
G02*
X146828000Y-85613000I135000J0D01*
G01*
X147198000Y-85613000D01*
G75*
G02*
X147333000Y-85748000I0J-135000D01*
G01*
X147333000Y-86018000D01*
G75*
G02*
X147198000Y-86153000I-135000J0D01*
G01*
G37*
G36*
G01*
X147198000Y-87173000D02*
X146828000Y-87173000D01*
G75*
G02*
X146693000Y-87038000I0J135000D01*
G01*
X146693000Y-86768000D01*
G75*
G02*
X146828000Y-86633000I135000J0D01*
G01*
X147198000Y-86633000D01*
G75*
G02*
X147333000Y-86768000I0J-135000D01*
G01*
X147333000Y-87038000D01*
G75*
G02*
X147198000Y-87173000I-135000J0D01*
G01*
G37*
G36*
G01*
X148214000Y-86153000D02*
X147844000Y-86153000D01*
G75*
G02*
X147709000Y-86018000I0J135000D01*
G01*
X147709000Y-85748000D01*
G75*
G02*
X147844000Y-85613000I135000J0D01*
G01*
X148214000Y-85613000D01*
G75*
G02*
X148349000Y-85748000I0J-135000D01*
G01*
X148349000Y-86018000D01*
G75*
G02*
X148214000Y-86153000I-135000J0D01*
G01*
G37*
G36*
G01*
X148214000Y-87173000D02*
X147844000Y-87173000D01*
G75*
G02*
X147709000Y-87038000I0J135000D01*
G01*
X147709000Y-86768000D01*
G75*
G02*
X147844000Y-86633000I135000J0D01*
G01*
X148214000Y-86633000D01*
G75*
G02*
X148349000Y-86768000I0J-135000D01*
G01*
X148349000Y-87038000D01*
G75*
G02*
X148214000Y-87173000I-135000J0D01*
G01*
G37*
G36*
G01*
X149215000Y-86193000D02*
X148875000Y-86193000D01*
G75*
G02*
X148735000Y-86053000I0J140000D01*
G01*
X148735000Y-85773000D01*
G75*
G02*
X148875000Y-85633000I140000J0D01*
G01*
X149215000Y-85633000D01*
G75*
G02*
X149355000Y-85773000I0J-140000D01*
G01*
X149355000Y-86053000D01*
G75*
G02*
X149215000Y-86193000I-140000J0D01*
G01*
G37*
G36*
G01*
X149215000Y-87153000D02*
X148875000Y-87153000D01*
G75*
G02*
X148735000Y-87013000I0J140000D01*
G01*
X148735000Y-86733000D01*
G75*
G02*
X148875000Y-86593000I140000J0D01*
G01*
X149215000Y-86593000D01*
G75*
G02*
X149355000Y-86733000I0J-140000D01*
G01*
X149355000Y-87013000D01*
G75*
G02*
X149215000Y-87153000I-140000J0D01*
G01*
G37*
G36*
G01*
X160840000Y-99685000D02*
X160840000Y-99315000D01*
G75*
G02*
X160975000Y-99180000I135000J0D01*
G01*
X161245000Y-99180000D01*
G75*
G02*
X161380000Y-99315000I0J-135000D01*
G01*
X161380000Y-99685000D01*
G75*
G02*
X161245000Y-99820000I-135000J0D01*
G01*
X160975000Y-99820000D01*
G75*
G02*
X160840000Y-99685000I0J135000D01*
G01*
G37*
G36*
G01*
X159820000Y-99685000D02*
X159820000Y-99315000D01*
G75*
G02*
X159955000Y-99180000I135000J0D01*
G01*
X160225000Y-99180000D01*
G75*
G02*
X160360000Y-99315000I0J-135000D01*
G01*
X160360000Y-99685000D01*
G75*
G02*
X160225000Y-99820000I-135000J0D01*
G01*
X159955000Y-99820000D01*
G75*
G02*
X159820000Y-99685000I0J135000D01*
G01*
G37*
G36*
G01*
X150500000Y-86060000D02*
X150130000Y-86060000D01*
G75*
G02*
X149995000Y-85925000I0J135000D01*
G01*
X149995000Y-85655000D01*
G75*
G02*
X150130000Y-85520000I135000J0D01*
G01*
X150500000Y-85520000D01*
G75*
G02*
X150635000Y-85655000I0J-135000D01*
G01*
X150635000Y-85925000D01*
G75*
G02*
X150500000Y-86060000I-135000J0D01*
G01*
G37*
G36*
G01*
X150500000Y-87080000D02*
X150130000Y-87080000D01*
G75*
G02*
X149995000Y-86945000I0J135000D01*
G01*
X149995000Y-86675000D01*
G75*
G02*
X150130000Y-86540000I135000J0D01*
G01*
X150500000Y-86540000D01*
G75*
G02*
X150635000Y-86675000I0J-135000D01*
G01*
X150635000Y-86945000D01*
G75*
G02*
X150500000Y-87080000I-135000J0D01*
G01*
G37*
G36*
G01*
X151485000Y-86070000D02*
X151115000Y-86070000D01*
G75*
G02*
X150980000Y-85935000I0J135000D01*
G01*
X150980000Y-85665000D01*
G75*
G02*
X151115000Y-85530000I135000J0D01*
G01*
X151485000Y-85530000D01*
G75*
G02*
X151620000Y-85665000I0J-135000D01*
G01*
X151620000Y-85935000D01*
G75*
G02*
X151485000Y-86070000I-135000J0D01*
G01*
G37*
G36*
G01*
X151485000Y-87090000D02*
X151115000Y-87090000D01*
G75*
G02*
X150980000Y-86955000I0J135000D01*
G01*
X150980000Y-86685000D01*
G75*
G02*
X151115000Y-86550000I135000J0D01*
G01*
X151485000Y-86550000D01*
G75*
G02*
X151620000Y-86685000I0J-135000D01*
G01*
X151620000Y-86955000D01*
G75*
G02*
X151485000Y-87090000I-135000J0D01*
G01*
G37*
G36*
G01*
X153100000Y-86430000D02*
X153100000Y-86770000D01*
G75*
G02*
X152960000Y-86910000I-140000J0D01*
G01*
X152680000Y-86910000D01*
G75*
G02*
X152540000Y-86770000I0J140000D01*
G01*
X152540000Y-86430000D01*
G75*
G02*
X152680000Y-86290000I140000J0D01*
G01*
X152960000Y-86290000D01*
G75*
G02*
X153100000Y-86430000I0J-140000D01*
G01*
G37*
G36*
G01*
X154060000Y-86430000D02*
X154060000Y-86770000D01*
G75*
G02*
X153920000Y-86910000I-140000J0D01*
G01*
X153640000Y-86910000D01*
G75*
G02*
X153500000Y-86770000I0J140000D01*
G01*
X153500000Y-86430000D01*
G75*
G02*
X153640000Y-86290000I140000J0D01*
G01*
X153920000Y-86290000D01*
G75*
G02*
X154060000Y-86430000I0J-140000D01*
G01*
G37*
G36*
G01*
X148555000Y-92600000D02*
X148855000Y-92600000D01*
G75*
G02*
X149005000Y-92750000I0J-150000D01*
G01*
X149005000Y-94400000D01*
G75*
G02*
X148855000Y-94550000I-150000J0D01*
G01*
X148555000Y-94550000D01*
G75*
G02*
X148405000Y-94400000I0J150000D01*
G01*
X148405000Y-92750000D01*
G75*
G02*
X148555000Y-92600000I150000J0D01*
G01*
G37*
G36*
G01*
X147285000Y-92600000D02*
X147585000Y-92600000D01*
G75*
G02*
X147735000Y-92750000I0J-150000D01*
G01*
X147735000Y-94400000D01*
G75*
G02*
X147585000Y-94550000I-150000J0D01*
G01*
X147285000Y-94550000D01*
G75*
G02*
X147135000Y-94400000I0J150000D01*
G01*
X147135000Y-92750000D01*
G75*
G02*
X147285000Y-92600000I150000J0D01*
G01*
G37*
G36*
G01*
X146015000Y-92600000D02*
X146315000Y-92600000D01*
G75*
G02*
X146465000Y-92750000I0J-150000D01*
G01*
X146465000Y-94400000D01*
G75*
G02*
X146315000Y-94550000I-150000J0D01*
G01*
X146015000Y-94550000D01*
G75*
G02*
X145865000Y-94400000I0J150000D01*
G01*
X145865000Y-92750000D01*
G75*
G02*
X146015000Y-92600000I150000J0D01*
G01*
G37*
G36*
G01*
X144745000Y-92600000D02*
X145045000Y-92600000D01*
G75*
G02*
X145195000Y-92750000I0J-150000D01*
G01*
X145195000Y-94400000D01*
G75*
G02*
X145045000Y-94550000I-150000J0D01*
G01*
X144745000Y-94550000D01*
G75*
G02*
X144595000Y-94400000I0J150000D01*
G01*
X144595000Y-92750000D01*
G75*
G02*
X144745000Y-92600000I150000J0D01*
G01*
G37*
G36*
G01*
X144745000Y-87650000D02*
X145045000Y-87650000D01*
G75*
G02*
X145195000Y-87800000I0J-150000D01*
G01*
X145195000Y-89450000D01*
G75*
G02*
X145045000Y-89600000I-150000J0D01*
G01*
X144745000Y-89600000D01*
G75*
G02*
X144595000Y-89450000I0J150000D01*
G01*
X144595000Y-87800000D01*
G75*
G02*
X144745000Y-87650000I150000J0D01*
G01*
G37*
G36*
G01*
X146015000Y-87650000D02*
X146315000Y-87650000D01*
G75*
G02*
X146465000Y-87800000I0J-150000D01*
G01*
X146465000Y-89450000D01*
G75*
G02*
X146315000Y-89600000I-150000J0D01*
G01*
X146015000Y-89600000D01*
G75*
G02*
X145865000Y-89450000I0J150000D01*
G01*
X145865000Y-87800000D01*
G75*
G02*
X146015000Y-87650000I150000J0D01*
G01*
G37*
G36*
G01*
X147285000Y-87650000D02*
X147585000Y-87650000D01*
G75*
G02*
X147735000Y-87800000I0J-150000D01*
G01*
X147735000Y-89450000D01*
G75*
G02*
X147585000Y-89600000I-150000J0D01*
G01*
X147285000Y-89600000D01*
G75*
G02*
X147135000Y-89450000I0J150000D01*
G01*
X147135000Y-87800000D01*
G75*
G02*
X147285000Y-87650000I150000J0D01*
G01*
G37*
G36*
G01*
X148555000Y-87650000D02*
X148855000Y-87650000D01*
G75*
G02*
X149005000Y-87800000I0J-150000D01*
G01*
X149005000Y-89450000D01*
G75*
G02*
X148855000Y-89600000I-150000J0D01*
G01*
X148555000Y-89600000D01*
G75*
G02*
X148405000Y-89450000I0J150000D01*
G01*
X148405000Y-87800000D01*
G75*
G02*
X148555000Y-87650000I150000J0D01*
G01*
G37*
G36*
G01*
X137912000Y-81240000D02*
X137572000Y-81240000D01*
G75*
G02*
X137432000Y-81100000I0J140000D01*
G01*
X137432000Y-80820000D01*
G75*
G02*
X137572000Y-80680000I140000J0D01*
G01*
X137912000Y-80680000D01*
G75*
G02*
X138052000Y-80820000I0J-140000D01*
G01*
X138052000Y-81100000D01*
G75*
G02*
X137912000Y-81240000I-140000J0D01*
G01*
G37*
G36*
G01*
X137912000Y-82200000D02*
X137572000Y-82200000D01*
G75*
G02*
X137432000Y-82060000I0J140000D01*
G01*
X137432000Y-81780000D01*
G75*
G02*
X137572000Y-81640000I140000J0D01*
G01*
X137912000Y-81640000D01*
G75*
G02*
X138052000Y-81780000I0J-140000D01*
G01*
X138052000Y-82060000D01*
G75*
G02*
X137912000Y-82200000I-140000J0D01*
G01*
G37*
D11*
G36*
X142150261Y-77820753D02*
G01*
X142133306Y-77815610D01*
X142117679Y-77807258D01*
X142103983Y-77796017D01*
X142092742Y-77782321D01*
X142084390Y-77766694D01*
X142079247Y-77749739D01*
X142077510Y-77732106D01*
X142077510Y-77267894D01*
X142079247Y-77250261D01*
X142084390Y-77233306D01*
X142092742Y-77217679D01*
X142103983Y-77203983D01*
X142117679Y-77192742D01*
X142133306Y-77184390D01*
X142150261Y-77179247D01*
X142167894Y-77177510D01*
X142632106Y-77177510D01*
X142649739Y-77179247D01*
X142666694Y-77184390D01*
X142682321Y-77192742D01*
X142696017Y-77203983D01*
X142707258Y-77217679D01*
X142715610Y-77233306D01*
X142720753Y-77250261D01*
X142722490Y-77267894D01*
X142722490Y-77657228D01*
X142720753Y-77674861D01*
X142715610Y-77691816D01*
X142707258Y-77707443D01*
X142696017Y-77721139D01*
X142621139Y-77796017D01*
X142607443Y-77807258D01*
X142591816Y-77815610D01*
X142574861Y-77820753D01*
X142557228Y-77822490D01*
X142167894Y-77822490D01*
X142150261Y-77820753D01*
G37*
G36*
X142150261Y-80620753D02*
G01*
X142133306Y-80615610D01*
X142117679Y-80607258D01*
X142103983Y-80596017D01*
X142092742Y-80582321D01*
X142084390Y-80566694D01*
X142079247Y-80549739D01*
X142077510Y-80532106D01*
X142077510Y-80067894D01*
X142079247Y-80050261D01*
X142084390Y-80033306D01*
X142092742Y-80017679D01*
X142103983Y-80003983D01*
X142117679Y-79992742D01*
X142133306Y-79984390D01*
X142150261Y-79979247D01*
X142167894Y-79977510D01*
X142557228Y-79977510D01*
X142574861Y-79979247D01*
X142591816Y-79984390D01*
X142607443Y-79992742D01*
X142621139Y-80003983D01*
X142696017Y-80078861D01*
X142707258Y-80092557D01*
X142715610Y-80108184D01*
X142720753Y-80125139D01*
X142722490Y-80142772D01*
X142722490Y-80532106D01*
X142720753Y-80549739D01*
X142715610Y-80566694D01*
X142707258Y-80582321D01*
X142696017Y-80596017D01*
X142682321Y-80607258D01*
X142666694Y-80615610D01*
X142649739Y-80620753D01*
X142632106Y-80622490D01*
X142167894Y-80622490D01*
X142150261Y-80620753D01*
G37*
G36*
X145025139Y-77820753D02*
G01*
X145008184Y-77815610D01*
X144992557Y-77807258D01*
X144978861Y-77796017D01*
X144903983Y-77721139D01*
X144892742Y-77707443D01*
X144884390Y-77691816D01*
X144879247Y-77674861D01*
X144877510Y-77657228D01*
X144877510Y-77267894D01*
X144879247Y-77250261D01*
X144884390Y-77233306D01*
X144892742Y-77217679D01*
X144903983Y-77203983D01*
X144917679Y-77192742D01*
X144933306Y-77184390D01*
X144950261Y-77179247D01*
X144967894Y-77177510D01*
X145432106Y-77177510D01*
X145449739Y-77179247D01*
X145466694Y-77184390D01*
X145482321Y-77192742D01*
X145496017Y-77203983D01*
X145507258Y-77217679D01*
X145515610Y-77233306D01*
X145520753Y-77250261D01*
X145522490Y-77267894D01*
X145522490Y-77732106D01*
X145520753Y-77749739D01*
X145515610Y-77766694D01*
X145507258Y-77782321D01*
X145496017Y-77796017D01*
X145482321Y-77807258D01*
X145466694Y-77815610D01*
X145449739Y-77820753D01*
X145432106Y-77822490D01*
X145042772Y-77822490D01*
X145025139Y-77820753D01*
G37*
G36*
X144950261Y-80620753D02*
G01*
X144933306Y-80615610D01*
X144917679Y-80607258D01*
X144903983Y-80596017D01*
X144892742Y-80582321D01*
X144884390Y-80566694D01*
X144879247Y-80549739D01*
X144877510Y-80532106D01*
X144877510Y-80142772D01*
X144879247Y-80125139D01*
X144884390Y-80108184D01*
X144892742Y-80092557D01*
X144903983Y-80078861D01*
X144978861Y-80003983D01*
X144992557Y-79992742D01*
X145008184Y-79984390D01*
X145025139Y-79979247D01*
X145042772Y-79977510D01*
X145432106Y-79977510D01*
X145449739Y-79979247D01*
X145466694Y-79984390D01*
X145482321Y-79992742D01*
X145496017Y-80003983D01*
X145507258Y-80017679D01*
X145515610Y-80033306D01*
X145520753Y-80050261D01*
X145522490Y-80067894D01*
X145522490Y-80532106D01*
X145520753Y-80549739D01*
X145515610Y-80566694D01*
X145507258Y-80582321D01*
X145496017Y-80596017D01*
X145482321Y-80607258D01*
X145466694Y-80615610D01*
X145449739Y-80620753D01*
X145432106Y-80622490D01*
X144967894Y-80622490D01*
X144950261Y-80620753D01*
G37*
G36*
X143022136Y-77821017D02*
G01*
X143007751Y-77816653D01*
X142994493Y-77809567D01*
X142982873Y-77800030D01*
X142919347Y-77736504D01*
X142909810Y-77724884D01*
X142902724Y-77711626D01*
X142898360Y-77697241D01*
X142896887Y-77682281D01*
X142896887Y-77254193D01*
X142898360Y-77239233D01*
X142902724Y-77224848D01*
X142909810Y-77211590D01*
X142919347Y-77199970D01*
X142930967Y-77190433D01*
X142944225Y-77183347D01*
X142958610Y-77178983D01*
X142973570Y-77177510D01*
X143626430Y-77177510D01*
X143641390Y-77178983D01*
X143655775Y-77183347D01*
X143669033Y-77190433D01*
X143680653Y-77199970D01*
X143690190Y-77211590D01*
X143697276Y-77224848D01*
X143701640Y-77239233D01*
X143703113Y-77254193D01*
X143703113Y-77682281D01*
X143701640Y-77697241D01*
X143697276Y-77711626D01*
X143690190Y-77724884D01*
X143680653Y-77736504D01*
X143617127Y-77800030D01*
X143605507Y-77809567D01*
X143592249Y-77816653D01*
X143577864Y-77821017D01*
X143562904Y-77822490D01*
X143037096Y-77822490D01*
X143022136Y-77821017D01*
G37*
G36*
X144022136Y-77821017D02*
G01*
X144007751Y-77816653D01*
X143994493Y-77809567D01*
X143982873Y-77800030D01*
X143919347Y-77736504D01*
X143909810Y-77724884D01*
X143902724Y-77711626D01*
X143898360Y-77697241D01*
X143896887Y-77682281D01*
X143896887Y-77254193D01*
X143898360Y-77239233D01*
X143902724Y-77224848D01*
X143909810Y-77211590D01*
X143919347Y-77199970D01*
X143930967Y-77190433D01*
X143944225Y-77183347D01*
X143958610Y-77178983D01*
X143973570Y-77177510D01*
X144626430Y-77177510D01*
X144641390Y-77178983D01*
X144655775Y-77183347D01*
X144669033Y-77190433D01*
X144680653Y-77199970D01*
X144690190Y-77211590D01*
X144697276Y-77224848D01*
X144701640Y-77239233D01*
X144703113Y-77254193D01*
X144703113Y-77682281D01*
X144701640Y-77697241D01*
X144697276Y-77711626D01*
X144690190Y-77724884D01*
X144680653Y-77736504D01*
X144617127Y-77800030D01*
X144605507Y-77809567D01*
X144592249Y-77816653D01*
X144577864Y-77821017D01*
X144562904Y-77822490D01*
X144037096Y-77822490D01*
X144022136Y-77821017D01*
G37*
G36*
X142958610Y-80621017D02*
G01*
X142944225Y-80616653D01*
X142930967Y-80609567D01*
X142919347Y-80600030D01*
X142909810Y-80588410D01*
X142902724Y-80575152D01*
X142898360Y-80560767D01*
X142896887Y-80545807D01*
X142896887Y-80117719D01*
X142898360Y-80102759D01*
X142902724Y-80088374D01*
X142909810Y-80075116D01*
X142919347Y-80063496D01*
X142982873Y-79999970D01*
X142994493Y-79990433D01*
X143007751Y-79983347D01*
X143022136Y-79978983D01*
X143037096Y-79977510D01*
X143562904Y-79977510D01*
X143577864Y-79978983D01*
X143592249Y-79983347D01*
X143605507Y-79990433D01*
X143617127Y-79999970D01*
X143680653Y-80063496D01*
X143690190Y-80075116D01*
X143697276Y-80088374D01*
X143701640Y-80102759D01*
X143703113Y-80117719D01*
X143703113Y-80545807D01*
X143701640Y-80560767D01*
X143697276Y-80575152D01*
X143690190Y-80588410D01*
X143680653Y-80600030D01*
X143669033Y-80609567D01*
X143655775Y-80616653D01*
X143641390Y-80621017D01*
X143626430Y-80622490D01*
X142973570Y-80622490D01*
X142958610Y-80621017D01*
G37*
G36*
X143958610Y-80621017D02*
G01*
X143944225Y-80616653D01*
X143930967Y-80609567D01*
X143919347Y-80600030D01*
X143909810Y-80588410D01*
X143902724Y-80575152D01*
X143898360Y-80560767D01*
X143896887Y-80545807D01*
X143896887Y-80117719D01*
X143898360Y-80102759D01*
X143902724Y-80088374D01*
X143909810Y-80075116D01*
X143919347Y-80063496D01*
X143982873Y-79999970D01*
X143994493Y-79990433D01*
X144007751Y-79983347D01*
X144022136Y-79978983D01*
X144037096Y-79977510D01*
X144562904Y-79977510D01*
X144577864Y-79978983D01*
X144592249Y-79983347D01*
X144605507Y-79990433D01*
X144617127Y-79999970D01*
X144680653Y-80063496D01*
X144690190Y-80075116D01*
X144697276Y-80088374D01*
X144701640Y-80102759D01*
X144703113Y-80117719D01*
X144703113Y-80545807D01*
X144701640Y-80560767D01*
X144697276Y-80575152D01*
X144690190Y-80588410D01*
X144680653Y-80600030D01*
X144669033Y-80609567D01*
X144655775Y-80616653D01*
X144641390Y-80621017D01*
X144626430Y-80622490D01*
X143973570Y-80622490D01*
X143958610Y-80621017D01*
G37*
G36*
X142139233Y-78801640D02*
G01*
X142124848Y-78797276D01*
X142111590Y-78790190D01*
X142099970Y-78780653D01*
X142090433Y-78769033D01*
X142083347Y-78755775D01*
X142078983Y-78741390D01*
X142077510Y-78726430D01*
X142077510Y-78073570D01*
X142078983Y-78058610D01*
X142083347Y-78044225D01*
X142090433Y-78030967D01*
X142099970Y-78019347D01*
X142111590Y-78009810D01*
X142124848Y-78002724D01*
X142139233Y-77998360D01*
X142154193Y-77996887D01*
X142582281Y-77996887D01*
X142597241Y-77998360D01*
X142611626Y-78002724D01*
X142624884Y-78009810D01*
X142636504Y-78019347D01*
X142700030Y-78082873D01*
X142709567Y-78094493D01*
X142716653Y-78107751D01*
X142721017Y-78122136D01*
X142722490Y-78137096D01*
X142722490Y-78662904D01*
X142721017Y-78677864D01*
X142716653Y-78692249D01*
X142709567Y-78705507D01*
X142700030Y-78717127D01*
X142636504Y-78780653D01*
X142624884Y-78790190D01*
X142611626Y-78797276D01*
X142597241Y-78801640D01*
X142582281Y-78803113D01*
X142154193Y-78803113D01*
X142139233Y-78801640D01*
G37*
G36*
X142139233Y-79801640D02*
G01*
X142124848Y-79797276D01*
X142111590Y-79790190D01*
X142099970Y-79780653D01*
X142090433Y-79769033D01*
X142083347Y-79755775D01*
X142078983Y-79741390D01*
X142077510Y-79726430D01*
X142077510Y-79073570D01*
X142078983Y-79058610D01*
X142083347Y-79044225D01*
X142090433Y-79030967D01*
X142099970Y-79019347D01*
X142111590Y-79009810D01*
X142124848Y-79002724D01*
X142139233Y-78998360D01*
X142154193Y-78996887D01*
X142582281Y-78996887D01*
X142597241Y-78998360D01*
X142611626Y-79002724D01*
X142624884Y-79009810D01*
X142636504Y-79019347D01*
X142700030Y-79082873D01*
X142709567Y-79094493D01*
X142716653Y-79107751D01*
X142721017Y-79122136D01*
X142722490Y-79137096D01*
X142722490Y-79662904D01*
X142721017Y-79677864D01*
X142716653Y-79692249D01*
X142709567Y-79705507D01*
X142700030Y-79717127D01*
X142636504Y-79780653D01*
X142624884Y-79790190D01*
X142611626Y-79797276D01*
X142597241Y-79801640D01*
X142582281Y-79803113D01*
X142154193Y-79803113D01*
X142139233Y-79801640D01*
G37*
G36*
X145002759Y-78801640D02*
G01*
X144988374Y-78797276D01*
X144975116Y-78790190D01*
X144963496Y-78780653D01*
X144899970Y-78717127D01*
X144890433Y-78705507D01*
X144883347Y-78692249D01*
X144878983Y-78677864D01*
X144877510Y-78662904D01*
X144877510Y-78137096D01*
X144878983Y-78122136D01*
X144883347Y-78107751D01*
X144890433Y-78094493D01*
X144899970Y-78082873D01*
X144963496Y-78019347D01*
X144975116Y-78009810D01*
X144988374Y-78002724D01*
X145002759Y-77998360D01*
X145017719Y-77996887D01*
X145445807Y-77996887D01*
X145460767Y-77998360D01*
X145475152Y-78002724D01*
X145488410Y-78009810D01*
X145500030Y-78019347D01*
X145509567Y-78030967D01*
X145516653Y-78044225D01*
X145521017Y-78058610D01*
X145522490Y-78073570D01*
X145522490Y-78726430D01*
X145521017Y-78741390D01*
X145516653Y-78755775D01*
X145509567Y-78769033D01*
X145500030Y-78780653D01*
X145488410Y-78790190D01*
X145475152Y-78797276D01*
X145460767Y-78801640D01*
X145445807Y-78803113D01*
X145017719Y-78803113D01*
X145002759Y-78801640D01*
G37*
G36*
X145002759Y-79801640D02*
G01*
X144988374Y-79797276D01*
X144975116Y-79790190D01*
X144963496Y-79780653D01*
X144899970Y-79717127D01*
X144890433Y-79705507D01*
X144883347Y-79692249D01*
X144878983Y-79677864D01*
X144877510Y-79662904D01*
X144877510Y-79137096D01*
X144878983Y-79122136D01*
X144883347Y-79107751D01*
X144890433Y-79094493D01*
X144899970Y-79082873D01*
X144963496Y-79019347D01*
X144975116Y-79009810D01*
X144988374Y-79002724D01*
X145002759Y-78998360D01*
X145017719Y-78996887D01*
X145445807Y-78996887D01*
X145460767Y-78998360D01*
X145475152Y-79002724D01*
X145488410Y-79009810D01*
X145500030Y-79019347D01*
X145509567Y-79030967D01*
X145516653Y-79044225D01*
X145521017Y-79058610D01*
X145522490Y-79073570D01*
X145522490Y-79726430D01*
X145521017Y-79741390D01*
X145516653Y-79755775D01*
X145509567Y-79769033D01*
X145500030Y-79780653D01*
X145488410Y-79790190D01*
X145475152Y-79797276D01*
X145460767Y-79801640D01*
X145445807Y-79803113D01*
X145017719Y-79803113D01*
X145002759Y-79801640D01*
G37*
G36*
G01*
X143703113Y-78198443D02*
X143703113Y-78601557D01*
G75*
G02*
X143501557Y-78803113I-201556J0D01*
G01*
X143098443Y-78803113D01*
G75*
G02*
X142896887Y-78601557I0J201556D01*
G01*
X142896887Y-78198443D01*
G75*
G02*
X143098443Y-77996887I201556J0D01*
G01*
X143501557Y-77996887D01*
G75*
G02*
X143703113Y-78198443I0J-201556D01*
G01*
G37*
G36*
G01*
X143703113Y-79198443D02*
X143703113Y-79601557D01*
G75*
G02*
X143501557Y-79803113I-201556J0D01*
G01*
X143098443Y-79803113D01*
G75*
G02*
X142896887Y-79601557I0J201556D01*
G01*
X142896887Y-79198443D01*
G75*
G02*
X143098443Y-78996887I201556J0D01*
G01*
X143501557Y-78996887D01*
G75*
G02*
X143703113Y-79198443I0J-201556D01*
G01*
G37*
G36*
G01*
X144703113Y-78198443D02*
X144703113Y-78601557D01*
G75*
G02*
X144501557Y-78803113I-201556J0D01*
G01*
X144098443Y-78803113D01*
G75*
G02*
X143896887Y-78601557I0J201556D01*
G01*
X143896887Y-78198443D01*
G75*
G02*
X144098443Y-77996887I201556J0D01*
G01*
X144501557Y-77996887D01*
G75*
G02*
X144703113Y-78198443I0J-201556D01*
G01*
G37*
G36*
G01*
X144703113Y-79198443D02*
X144703113Y-79601557D01*
G75*
G02*
X144501557Y-79803113I-201556J0D01*
G01*
X144098443Y-79803113D01*
G75*
G02*
X143896887Y-79601557I0J201556D01*
G01*
X143896887Y-79198443D01*
G75*
G02*
X144098443Y-78996887I201556J0D01*
G01*
X144501557Y-78996887D01*
G75*
G02*
X144703113Y-79198443I0J-201556D01*
G01*
G37*
G36*
G01*
X146700000Y-82400000D02*
X146700000Y-83725000D01*
G75*
G02*
X146625000Y-83800000I-75000J0D01*
G01*
X146475000Y-83800000D01*
G75*
G02*
X146400000Y-83725000I0J75000D01*
G01*
X146400000Y-82400000D01*
G75*
G02*
X146475000Y-82325000I75000J0D01*
G01*
X146625000Y-82325000D01*
G75*
G02*
X146700000Y-82400000I0J-75000D01*
G01*
G37*
G36*
G01*
X146200000Y-82400000D02*
X146200000Y-83725000D01*
G75*
G02*
X146125000Y-83800000I-75000J0D01*
G01*
X145975000Y-83800000D01*
G75*
G02*
X145900000Y-83725000I0J75000D01*
G01*
X145900000Y-82400000D01*
G75*
G02*
X145975000Y-82325000I75000J0D01*
G01*
X146125000Y-82325000D01*
G75*
G02*
X146200000Y-82400000I0J-75000D01*
G01*
G37*
G36*
G01*
X145700000Y-82400000D02*
X145700000Y-83725000D01*
G75*
G02*
X145625000Y-83800000I-75000J0D01*
G01*
X145475000Y-83800000D01*
G75*
G02*
X145400000Y-83725000I0J75000D01*
G01*
X145400000Y-82400000D01*
G75*
G02*
X145475000Y-82325000I75000J0D01*
G01*
X145625000Y-82325000D01*
G75*
G02*
X145700000Y-82400000I0J-75000D01*
G01*
G37*
G36*
G01*
X145200000Y-82400000D02*
X145200000Y-83725000D01*
G75*
G02*
X145125000Y-83800000I-75000J0D01*
G01*
X144975000Y-83800000D01*
G75*
G02*
X144900000Y-83725000I0J75000D01*
G01*
X144900000Y-82400000D01*
G75*
G02*
X144975000Y-82325000I75000J0D01*
G01*
X145125000Y-82325000D01*
G75*
G02*
X145200000Y-82400000I0J-75000D01*
G01*
G37*
G36*
G01*
X144700000Y-82400000D02*
X144700000Y-83725000D01*
G75*
G02*
X144625000Y-83800000I-75000J0D01*
G01*
X144475000Y-83800000D01*
G75*
G02*
X144400000Y-83725000I0J75000D01*
G01*
X144400000Y-82400000D01*
G75*
G02*
X144475000Y-82325000I75000J0D01*
G01*
X144625000Y-82325000D01*
G75*
G02*
X144700000Y-82400000I0J-75000D01*
G01*
G37*
G36*
G01*
X144200000Y-82400000D02*
X144200000Y-83725000D01*
G75*
G02*
X144125000Y-83800000I-75000J0D01*
G01*
X143975000Y-83800000D01*
G75*
G02*
X143900000Y-83725000I0J75000D01*
G01*
X143900000Y-82400000D01*
G75*
G02*
X143975000Y-82325000I75000J0D01*
G01*
X144125000Y-82325000D01*
G75*
G02*
X144200000Y-82400000I0J-75000D01*
G01*
G37*
G36*
G01*
X143700000Y-82400000D02*
X143700000Y-83725000D01*
G75*
G02*
X143625000Y-83800000I-75000J0D01*
G01*
X143475000Y-83800000D01*
G75*
G02*
X143400000Y-83725000I0J75000D01*
G01*
X143400000Y-82400000D01*
G75*
G02*
X143475000Y-82325000I75000J0D01*
G01*
X143625000Y-82325000D01*
G75*
G02*
X143700000Y-82400000I0J-75000D01*
G01*
G37*
G36*
G01*
X143200000Y-82400000D02*
X143200000Y-83725000D01*
G75*
G02*
X143125000Y-83800000I-75000J0D01*
G01*
X142975000Y-83800000D01*
G75*
G02*
X142900000Y-83725000I0J75000D01*
G01*
X142900000Y-82400000D01*
G75*
G02*
X142975000Y-82325000I75000J0D01*
G01*
X143125000Y-82325000D01*
G75*
G02*
X143200000Y-82400000I0J-75000D01*
G01*
G37*
G36*
G01*
X142700000Y-82400000D02*
X142700000Y-83725000D01*
G75*
G02*
X142625000Y-83800000I-75000J0D01*
G01*
X142475000Y-83800000D01*
G75*
G02*
X142400000Y-83725000I0J75000D01*
G01*
X142400000Y-82400000D01*
G75*
G02*
X142475000Y-82325000I75000J0D01*
G01*
X142625000Y-82325000D01*
G75*
G02*
X142700000Y-82400000I0J-75000D01*
G01*
G37*
G36*
G01*
X142200000Y-82400000D02*
X142200000Y-83725000D01*
G75*
G02*
X142125000Y-83800000I-75000J0D01*
G01*
X141975000Y-83800000D01*
G75*
G02*
X141900000Y-83725000I0J75000D01*
G01*
X141900000Y-82400000D01*
G75*
G02*
X141975000Y-82325000I75000J0D01*
G01*
X142125000Y-82325000D01*
G75*
G02*
X142200000Y-82400000I0J-75000D01*
G01*
G37*
G36*
G01*
X141700000Y-82400000D02*
X141700000Y-83725000D01*
G75*
G02*
X141625000Y-83800000I-75000J0D01*
G01*
X141475000Y-83800000D01*
G75*
G02*
X141400000Y-83725000I0J75000D01*
G01*
X141400000Y-82400000D01*
G75*
G02*
X141475000Y-82325000I75000J0D01*
G01*
X141625000Y-82325000D01*
G75*
G02*
X141700000Y-82400000I0J-75000D01*
G01*
G37*
G36*
G01*
X141200000Y-82400000D02*
X141200000Y-83725000D01*
G75*
G02*
X141125000Y-83800000I-75000J0D01*
G01*
X140975000Y-83800000D01*
G75*
G02*
X140900000Y-83725000I0J75000D01*
G01*
X140900000Y-82400000D01*
G75*
G02*
X140975000Y-82325000I75000J0D01*
G01*
X141125000Y-82325000D01*
G75*
G02*
X141200000Y-82400000I0J-75000D01*
G01*
G37*
G36*
G01*
X140375000Y-81575000D02*
X140375000Y-81725000D01*
G75*
G02*
X140300000Y-81800000I-75000J0D01*
G01*
X138975000Y-81800000D01*
G75*
G02*
X138900000Y-81725000I0J75000D01*
G01*
X138900000Y-81575000D01*
G75*
G02*
X138975000Y-81500000I75000J0D01*
G01*
X140300000Y-81500000D01*
G75*
G02*
X140375000Y-81575000I0J-75000D01*
G01*
G37*
G36*
G01*
X140375000Y-81075000D02*
X140375000Y-81225000D01*
G75*
G02*
X140300000Y-81300000I-75000J0D01*
G01*
X138975000Y-81300000D01*
G75*
G02*
X138900000Y-81225000I0J75000D01*
G01*
X138900000Y-81075000D01*
G75*
G02*
X138975000Y-81000000I75000J0D01*
G01*
X140300000Y-81000000D01*
G75*
G02*
X140375000Y-81075000I0J-75000D01*
G01*
G37*
G36*
G01*
X140375000Y-80575000D02*
X140375000Y-80725000D01*
G75*
G02*
X140300000Y-80800000I-75000J0D01*
G01*
X138975000Y-80800000D01*
G75*
G02*
X138900000Y-80725000I0J75000D01*
G01*
X138900000Y-80575000D01*
G75*
G02*
X138975000Y-80500000I75000J0D01*
G01*
X140300000Y-80500000D01*
G75*
G02*
X140375000Y-80575000I0J-75000D01*
G01*
G37*
G36*
G01*
X140375000Y-80075000D02*
X140375000Y-80225000D01*
G75*
G02*
X140300000Y-80300000I-75000J0D01*
G01*
X138975000Y-80300000D01*
G75*
G02*
X138900000Y-80225000I0J75000D01*
G01*
X138900000Y-80075000D01*
G75*
G02*
X138975000Y-80000000I75000J0D01*
G01*
X140300000Y-80000000D01*
G75*
G02*
X140375000Y-80075000I0J-75000D01*
G01*
G37*
G36*
G01*
X140375000Y-79575000D02*
X140375000Y-79725000D01*
G75*
G02*
X140300000Y-79800000I-75000J0D01*
G01*
X138975000Y-79800000D01*
G75*
G02*
X138900000Y-79725000I0J75000D01*
G01*
X138900000Y-79575000D01*
G75*
G02*
X138975000Y-79500000I75000J0D01*
G01*
X140300000Y-79500000D01*
G75*
G02*
X140375000Y-79575000I0J-75000D01*
G01*
G37*
G36*
G01*
X140375000Y-79075000D02*
X140375000Y-79225000D01*
G75*
G02*
X140300000Y-79300000I-75000J0D01*
G01*
X138975000Y-79300000D01*
G75*
G02*
X138900000Y-79225000I0J75000D01*
G01*
X138900000Y-79075000D01*
G75*
G02*
X138975000Y-79000000I75000J0D01*
G01*
X140300000Y-79000000D01*
G75*
G02*
X140375000Y-79075000I0J-75000D01*
G01*
G37*
G36*
G01*
X140375000Y-78575000D02*
X140375000Y-78725000D01*
G75*
G02*
X140300000Y-78800000I-75000J0D01*
G01*
X138975000Y-78800000D01*
G75*
G02*
X138900000Y-78725000I0J75000D01*
G01*
X138900000Y-78575000D01*
G75*
G02*
X138975000Y-78500000I75000J0D01*
G01*
X140300000Y-78500000D01*
G75*
G02*
X140375000Y-78575000I0J-75000D01*
G01*
G37*
G36*
G01*
X140375000Y-78075000D02*
X140375000Y-78225000D01*
G75*
G02*
X140300000Y-78300000I-75000J0D01*
G01*
X138975000Y-78300000D01*
G75*
G02*
X138900000Y-78225000I0J75000D01*
G01*
X138900000Y-78075000D01*
G75*
G02*
X138975000Y-78000000I75000J0D01*
G01*
X140300000Y-78000000D01*
G75*
G02*
X140375000Y-78075000I0J-75000D01*
G01*
G37*
G36*
G01*
X140375000Y-77575000D02*
X140375000Y-77725000D01*
G75*
G02*
X140300000Y-77800000I-75000J0D01*
G01*
X138975000Y-77800000D01*
G75*
G02*
X138900000Y-77725000I0J75000D01*
G01*
X138900000Y-77575000D01*
G75*
G02*
X138975000Y-77500000I75000J0D01*
G01*
X140300000Y-77500000D01*
G75*
G02*
X140375000Y-77575000I0J-75000D01*
G01*
G37*
G36*
G01*
X140375000Y-77075000D02*
X140375000Y-77225000D01*
G75*
G02*
X140300000Y-77300000I-75000J0D01*
G01*
X138975000Y-77300000D01*
G75*
G02*
X138900000Y-77225000I0J75000D01*
G01*
X138900000Y-77075000D01*
G75*
G02*
X138975000Y-77000000I75000J0D01*
G01*
X140300000Y-77000000D01*
G75*
G02*
X140375000Y-77075000I0J-75000D01*
G01*
G37*
G36*
G01*
X140375000Y-76575000D02*
X140375000Y-76725000D01*
G75*
G02*
X140300000Y-76800000I-75000J0D01*
G01*
X138975000Y-76800000D01*
G75*
G02*
X138900000Y-76725000I0J75000D01*
G01*
X138900000Y-76575000D01*
G75*
G02*
X138975000Y-76500000I75000J0D01*
G01*
X140300000Y-76500000D01*
G75*
G02*
X140375000Y-76575000I0J-75000D01*
G01*
G37*
G36*
G01*
X140375000Y-76075000D02*
X140375000Y-76225000D01*
G75*
G02*
X140300000Y-76300000I-75000J0D01*
G01*
X138975000Y-76300000D01*
G75*
G02*
X138900000Y-76225000I0J75000D01*
G01*
X138900000Y-76075000D01*
G75*
G02*
X138975000Y-76000000I75000J0D01*
G01*
X140300000Y-76000000D01*
G75*
G02*
X140375000Y-76075000I0J-75000D01*
G01*
G37*
G36*
G01*
X141200000Y-74075000D02*
X141200000Y-75400000D01*
G75*
G02*
X141125000Y-75475000I-75000J0D01*
G01*
X140975000Y-75475000D01*
G75*
G02*
X140900000Y-75400000I0J75000D01*
G01*
X140900000Y-74075000D01*
G75*
G02*
X140975000Y-74000000I75000J0D01*
G01*
X141125000Y-74000000D01*
G75*
G02*
X141200000Y-74075000I0J-75000D01*
G01*
G37*
G36*
G01*
X141700000Y-74075000D02*
X141700000Y-75400000D01*
G75*
G02*
X141625000Y-75475000I-75000J0D01*
G01*
X141475000Y-75475000D01*
G75*
G02*
X141400000Y-75400000I0J75000D01*
G01*
X141400000Y-74075000D01*
G75*
G02*
X141475000Y-74000000I75000J0D01*
G01*
X141625000Y-74000000D01*
G75*
G02*
X141700000Y-74075000I0J-75000D01*
G01*
G37*
G36*
G01*
X142200000Y-74075000D02*
X142200000Y-75400000D01*
G75*
G02*
X142125000Y-75475000I-75000J0D01*
G01*
X141975000Y-75475000D01*
G75*
G02*
X141900000Y-75400000I0J75000D01*
G01*
X141900000Y-74075000D01*
G75*
G02*
X141975000Y-74000000I75000J0D01*
G01*
X142125000Y-74000000D01*
G75*
G02*
X142200000Y-74075000I0J-75000D01*
G01*
G37*
G36*
G01*
X142700000Y-74075000D02*
X142700000Y-75400000D01*
G75*
G02*
X142625000Y-75475000I-75000J0D01*
G01*
X142475000Y-75475000D01*
G75*
G02*
X142400000Y-75400000I0J75000D01*
G01*
X142400000Y-74075000D01*
G75*
G02*
X142475000Y-74000000I75000J0D01*
G01*
X142625000Y-74000000D01*
G75*
G02*
X142700000Y-74075000I0J-75000D01*
G01*
G37*
G36*
G01*
X143200000Y-74075000D02*
X143200000Y-75400000D01*
G75*
G02*
X143125000Y-75475000I-75000J0D01*
G01*
X142975000Y-75475000D01*
G75*
G02*
X142900000Y-75400000I0J75000D01*
G01*
X142900000Y-74075000D01*
G75*
G02*
X142975000Y-74000000I75000J0D01*
G01*
X143125000Y-74000000D01*
G75*
G02*
X143200000Y-74075000I0J-75000D01*
G01*
G37*
G36*
G01*
X143700000Y-74075000D02*
X143700000Y-75400000D01*
G75*
G02*
X143625000Y-75475000I-75000J0D01*
G01*
X143475000Y-75475000D01*
G75*
G02*
X143400000Y-75400000I0J75000D01*
G01*
X143400000Y-74075000D01*
G75*
G02*
X143475000Y-74000000I75000J0D01*
G01*
X143625000Y-74000000D01*
G75*
G02*
X143700000Y-74075000I0J-75000D01*
G01*
G37*
G36*
G01*
X144200000Y-74075000D02*
X144200000Y-75400000D01*
G75*
G02*
X144125000Y-75475000I-75000J0D01*
G01*
X143975000Y-75475000D01*
G75*
G02*
X143900000Y-75400000I0J75000D01*
G01*
X143900000Y-74075000D01*
G75*
G02*
X143975000Y-74000000I75000J0D01*
G01*
X144125000Y-74000000D01*
G75*
G02*
X144200000Y-74075000I0J-75000D01*
G01*
G37*
G36*
G01*
X144700000Y-74075000D02*
X144700000Y-75400000D01*
G75*
G02*
X144625000Y-75475000I-75000J0D01*
G01*
X144475000Y-75475000D01*
G75*
G02*
X144400000Y-75400000I0J75000D01*
G01*
X144400000Y-74075000D01*
G75*
G02*
X144475000Y-74000000I75000J0D01*
G01*
X144625000Y-74000000D01*
G75*
G02*
X144700000Y-74075000I0J-75000D01*
G01*
G37*
G36*
G01*
X145200000Y-74075000D02*
X145200000Y-75400000D01*
G75*
G02*
X145125000Y-75475000I-75000J0D01*
G01*
X144975000Y-75475000D01*
G75*
G02*
X144900000Y-75400000I0J75000D01*
G01*
X144900000Y-74075000D01*
G75*
G02*
X144975000Y-74000000I75000J0D01*
G01*
X145125000Y-74000000D01*
G75*
G02*
X145200000Y-74075000I0J-75000D01*
G01*
G37*
G36*
G01*
X145700000Y-74075000D02*
X145700000Y-75400000D01*
G75*
G02*
X145625000Y-75475000I-75000J0D01*
G01*
X145475000Y-75475000D01*
G75*
G02*
X145400000Y-75400000I0J75000D01*
G01*
X145400000Y-74075000D01*
G75*
G02*
X145475000Y-74000000I75000J0D01*
G01*
X145625000Y-74000000D01*
G75*
G02*
X145700000Y-74075000I0J-75000D01*
G01*
G37*
G36*
G01*
X146200000Y-74075000D02*
X146200000Y-75400000D01*
G75*
G02*
X146125000Y-75475000I-75000J0D01*
G01*
X145975000Y-75475000D01*
G75*
G02*
X145900000Y-75400000I0J75000D01*
G01*
X145900000Y-74075000D01*
G75*
G02*
X145975000Y-74000000I75000J0D01*
G01*
X146125000Y-74000000D01*
G75*
G02*
X146200000Y-74075000I0J-75000D01*
G01*
G37*
G36*
G01*
X146700000Y-74075000D02*
X146700000Y-75400000D01*
G75*
G02*
X146625000Y-75475000I-75000J0D01*
G01*
X146475000Y-75475000D01*
G75*
G02*
X146400000Y-75400000I0J75000D01*
G01*
X146400000Y-74075000D01*
G75*
G02*
X146475000Y-74000000I75000J0D01*
G01*
X146625000Y-74000000D01*
G75*
G02*
X146700000Y-74075000I0J-75000D01*
G01*
G37*
G36*
G01*
X148700000Y-76075000D02*
X148700000Y-76225000D01*
G75*
G02*
X148625000Y-76300000I-75000J0D01*
G01*
X147300000Y-76300000D01*
G75*
G02*
X147225000Y-76225000I0J75000D01*
G01*
X147225000Y-76075000D01*
G75*
G02*
X147300000Y-76000000I75000J0D01*
G01*
X148625000Y-76000000D01*
G75*
G02*
X148700000Y-76075000I0J-75000D01*
G01*
G37*
G36*
G01*
X148700000Y-76575000D02*
X148700000Y-76725000D01*
G75*
G02*
X148625000Y-76800000I-75000J0D01*
G01*
X147300000Y-76800000D01*
G75*
G02*
X147225000Y-76725000I0J75000D01*
G01*
X147225000Y-76575000D01*
G75*
G02*
X147300000Y-76500000I75000J0D01*
G01*
X148625000Y-76500000D01*
G75*
G02*
X148700000Y-76575000I0J-75000D01*
G01*
G37*
G36*
G01*
X148700000Y-77075000D02*
X148700000Y-77225000D01*
G75*
G02*
X148625000Y-77300000I-75000J0D01*
G01*
X147300000Y-77300000D01*
G75*
G02*
X147225000Y-77225000I0J75000D01*
G01*
X147225000Y-77075000D01*
G75*
G02*
X147300000Y-77000000I75000J0D01*
G01*
X148625000Y-77000000D01*
G75*
G02*
X148700000Y-77075000I0J-75000D01*
G01*
G37*
G36*
G01*
X148700000Y-77575000D02*
X148700000Y-77725000D01*
G75*
G02*
X148625000Y-77800000I-75000J0D01*
G01*
X147300000Y-77800000D01*
G75*
G02*
X147225000Y-77725000I0J75000D01*
G01*
X147225000Y-77575000D01*
G75*
G02*
X147300000Y-77500000I75000J0D01*
G01*
X148625000Y-77500000D01*
G75*
G02*
X148700000Y-77575000I0J-75000D01*
G01*
G37*
G36*
G01*
X148700000Y-78075000D02*
X148700000Y-78225000D01*
G75*
G02*
X148625000Y-78300000I-75000J0D01*
G01*
X147300000Y-78300000D01*
G75*
G02*
X147225000Y-78225000I0J75000D01*
G01*
X147225000Y-78075000D01*
G75*
G02*
X147300000Y-78000000I75000J0D01*
G01*
X148625000Y-78000000D01*
G75*
G02*
X148700000Y-78075000I0J-75000D01*
G01*
G37*
G36*
G01*
X148700000Y-78575000D02*
X148700000Y-78725000D01*
G75*
G02*
X148625000Y-78800000I-75000J0D01*
G01*
X147300000Y-78800000D01*
G75*
G02*
X147225000Y-78725000I0J75000D01*
G01*
X147225000Y-78575000D01*
G75*
G02*
X147300000Y-78500000I75000J0D01*
G01*
X148625000Y-78500000D01*
G75*
G02*
X148700000Y-78575000I0J-75000D01*
G01*
G37*
G36*
G01*
X148700000Y-79075000D02*
X148700000Y-79225000D01*
G75*
G02*
X148625000Y-79300000I-75000J0D01*
G01*
X147300000Y-79300000D01*
G75*
G02*
X147225000Y-79225000I0J75000D01*
G01*
X147225000Y-79075000D01*
G75*
G02*
X147300000Y-79000000I75000J0D01*
G01*
X148625000Y-79000000D01*
G75*
G02*
X148700000Y-79075000I0J-75000D01*
G01*
G37*
G36*
G01*
X148700000Y-79575000D02*
X148700000Y-79725000D01*
G75*
G02*
X148625000Y-79800000I-75000J0D01*
G01*
X147300000Y-79800000D01*
G75*
G02*
X147225000Y-79725000I0J75000D01*
G01*
X147225000Y-79575000D01*
G75*
G02*
X147300000Y-79500000I75000J0D01*
G01*
X148625000Y-79500000D01*
G75*
G02*
X148700000Y-79575000I0J-75000D01*
G01*
G37*
G36*
G01*
X148700000Y-80075000D02*
X148700000Y-80225000D01*
G75*
G02*
X148625000Y-80300000I-75000J0D01*
G01*
X147300000Y-80300000D01*
G75*
G02*
X147225000Y-80225000I0J75000D01*
G01*
X147225000Y-80075000D01*
G75*
G02*
X147300000Y-80000000I75000J0D01*
G01*
X148625000Y-80000000D01*
G75*
G02*
X148700000Y-80075000I0J-75000D01*
G01*
G37*
G36*
G01*
X148700000Y-80575000D02*
X148700000Y-80725000D01*
G75*
G02*
X148625000Y-80800000I-75000J0D01*
G01*
X147300000Y-80800000D01*
G75*
G02*
X147225000Y-80725000I0J75000D01*
G01*
X147225000Y-80575000D01*
G75*
G02*
X147300000Y-80500000I75000J0D01*
G01*
X148625000Y-80500000D01*
G75*
G02*
X148700000Y-80575000I0J-75000D01*
G01*
G37*
G36*
G01*
X148700000Y-81075000D02*
X148700000Y-81225000D01*
G75*
G02*
X148625000Y-81300000I-75000J0D01*
G01*
X147300000Y-81300000D01*
G75*
G02*
X147225000Y-81225000I0J75000D01*
G01*
X147225000Y-81075000D01*
G75*
G02*
X147300000Y-81000000I75000J0D01*
G01*
X148625000Y-81000000D01*
G75*
G02*
X148700000Y-81075000I0J-75000D01*
G01*
G37*
G36*
G01*
X148700000Y-81575000D02*
X148700000Y-81725000D01*
G75*
G02*
X148625000Y-81800000I-75000J0D01*
G01*
X147300000Y-81800000D01*
G75*
G02*
X147225000Y-81725000I0J75000D01*
G01*
X147225000Y-81575000D01*
G75*
G02*
X147300000Y-81500000I75000J0D01*
G01*
X148625000Y-81500000D01*
G75*
G02*
X148700000Y-81575000I0J-75000D01*
G01*
G37*
G36*
G01*
X135978000Y-77953000D02*
X135978000Y-78323000D01*
G75*
G02*
X135843000Y-78458000I-135000J0D01*
G01*
X135573000Y-78458000D01*
G75*
G02*
X135438000Y-78323000I0J135000D01*
G01*
X135438000Y-77953000D01*
G75*
G02*
X135573000Y-77818000I135000J0D01*
G01*
X135843000Y-77818000D01*
G75*
G02*
X135978000Y-77953000I0J-135000D01*
G01*
G37*
G36*
G01*
X136998000Y-77953000D02*
X136998000Y-78323000D01*
G75*
G02*
X136863000Y-78458000I-135000J0D01*
G01*
X136593000Y-78458000D01*
G75*
G02*
X136458000Y-78323000I0J135000D01*
G01*
X136458000Y-77953000D01*
G75*
G02*
X136593000Y-77818000I135000J0D01*
G01*
X136863000Y-77818000D01*
G75*
G02*
X136998000Y-77953000I0J-135000D01*
G01*
G37*
G36*
G01*
X142900000Y-73030000D02*
X142900000Y-73370000D01*
G75*
G02*
X142760000Y-73510000I-140000J0D01*
G01*
X142480000Y-73510000D01*
G75*
G02*
X142340000Y-73370000I0J140000D01*
G01*
X142340000Y-73030000D01*
G75*
G02*
X142480000Y-72890000I140000J0D01*
G01*
X142760000Y-72890000D01*
G75*
G02*
X142900000Y-73030000I0J-140000D01*
G01*
G37*
G36*
G01*
X143860000Y-73030000D02*
X143860000Y-73370000D01*
G75*
G02*
X143720000Y-73510000I-140000J0D01*
G01*
X143440000Y-73510000D01*
G75*
G02*
X143300000Y-73370000I0J140000D01*
G01*
X143300000Y-73030000D01*
G75*
G02*
X143440000Y-72890000I140000J0D01*
G01*
X143720000Y-72890000D01*
G75*
G02*
X143860000Y-73030000I0J-140000D01*
G01*
G37*
G36*
G01*
X137445000Y-78084000D02*
X137785000Y-78084000D01*
G75*
G02*
X137925000Y-78224000I0J-140000D01*
G01*
X137925000Y-78504000D01*
G75*
G02*
X137785000Y-78644000I-140000J0D01*
G01*
X137445000Y-78644000D01*
G75*
G02*
X137305000Y-78504000I0J140000D01*
G01*
X137305000Y-78224000D01*
G75*
G02*
X137445000Y-78084000I140000J0D01*
G01*
G37*
G36*
G01*
X137445000Y-77124000D02*
X137785000Y-77124000D01*
G75*
G02*
X137925000Y-77264000I0J-140000D01*
G01*
X137925000Y-77544000D01*
G75*
G02*
X137785000Y-77684000I-140000J0D01*
G01*
X137445000Y-77684000D01*
G75*
G02*
X137305000Y-77544000I0J140000D01*
G01*
X137305000Y-77264000D01*
G75*
G02*
X137445000Y-77124000I140000J0D01*
G01*
G37*
G36*
G01*
X150350000Y-78825000D02*
X150850000Y-78825000D01*
G75*
G02*
X151075000Y-79050000I0J-225000D01*
G01*
X151075000Y-79500000D01*
G75*
G02*
X150850000Y-79725000I-225000J0D01*
G01*
X150350000Y-79725000D01*
G75*
G02*
X150125000Y-79500000I0J225000D01*
G01*
X150125000Y-79050000D01*
G75*
G02*
X150350000Y-78825000I225000J0D01*
G01*
G37*
G36*
G01*
X150350000Y-77275000D02*
X150850000Y-77275000D01*
G75*
G02*
X151075000Y-77500000I0J-225000D01*
G01*
X151075000Y-77950000D01*
G75*
G02*
X150850000Y-78175000I-225000J0D01*
G01*
X150350000Y-78175000D01*
G75*
G02*
X150125000Y-77950000I0J225000D01*
G01*
X150125000Y-77500000D01*
G75*
G02*
X150350000Y-77275000I225000J0D01*
G01*
G37*
G36*
G01*
X149950000Y-81375000D02*
X149450000Y-81375000D01*
G75*
G02*
X149225000Y-81150000I0J225000D01*
G01*
X149225000Y-80700000D01*
G75*
G02*
X149450000Y-80475000I225000J0D01*
G01*
X149950000Y-80475000D01*
G75*
G02*
X150175000Y-80700000I0J-225000D01*
G01*
X150175000Y-81150000D01*
G75*
G02*
X149950000Y-81375000I-225000J0D01*
G01*
G37*
G36*
G01*
X149950000Y-82925000D02*
X149450000Y-82925000D01*
G75*
G02*
X149225000Y-82700000I0J225000D01*
G01*
X149225000Y-82250000D01*
G75*
G02*
X149450000Y-82025000I225000J0D01*
G01*
X149950000Y-82025000D01*
G75*
G02*
X150175000Y-82250000I0J-225000D01*
G01*
X150175000Y-82700000D01*
G75*
G02*
X149950000Y-82925000I-225000J0D01*
G01*
G37*
G36*
G01*
X136274000Y-79539000D02*
X136274000Y-80039000D01*
G75*
G02*
X136049000Y-80264000I-225000J0D01*
G01*
X135599000Y-80264000D01*
G75*
G02*
X135374000Y-80039000I0J225000D01*
G01*
X135374000Y-79539000D01*
G75*
G02*
X135599000Y-79314000I225000J0D01*
G01*
X136049000Y-79314000D01*
G75*
G02*
X136274000Y-79539000I0J-225000D01*
G01*
G37*
G36*
G01*
X137824000Y-79539000D02*
X137824000Y-80039000D01*
G75*
G02*
X137599000Y-80264000I-225000J0D01*
G01*
X137149000Y-80264000D01*
G75*
G02*
X136924000Y-80039000I0J225000D01*
G01*
X136924000Y-79539000D01*
G75*
G02*
X137149000Y-79314000I225000J0D01*
G01*
X137599000Y-79314000D01*
G75*
G02*
X137824000Y-79539000I0J-225000D01*
G01*
G37*
G36*
G01*
X150950000Y-81925000D02*
X151450000Y-81925000D01*
G75*
G02*
X151675000Y-82150000I0J-225000D01*
G01*
X151675000Y-82600000D01*
G75*
G02*
X151450000Y-82825000I-225000J0D01*
G01*
X150950000Y-82825000D01*
G75*
G02*
X150725000Y-82600000I0J225000D01*
G01*
X150725000Y-82150000D01*
G75*
G02*
X150950000Y-81925000I225000J0D01*
G01*
G37*
G36*
G01*
X150950000Y-80375000D02*
X151450000Y-80375000D01*
G75*
G02*
X151675000Y-80600000I0J-225000D01*
G01*
X151675000Y-81050000D01*
G75*
G02*
X151450000Y-81275000I-225000J0D01*
G01*
X150950000Y-81275000D01*
G75*
G02*
X150725000Y-81050000I0J225000D01*
G01*
X150725000Y-80600000D01*
G75*
G02*
X150950000Y-80375000I225000J0D01*
G01*
G37*
D12*
X155300000Y-80150000D03*
X155300000Y-84850000D03*
G36*
G01*
X154055000Y-92600000D02*
X154355000Y-92600000D01*
G75*
G02*
X154505000Y-92750000I0J-150000D01*
G01*
X154505000Y-94400000D01*
G75*
G02*
X154355000Y-94550000I-150000J0D01*
G01*
X154055000Y-94550000D01*
G75*
G02*
X153905000Y-94400000I0J150000D01*
G01*
X153905000Y-92750000D01*
G75*
G02*
X154055000Y-92600000I150000J0D01*
G01*
G37*
G36*
G01*
X152785000Y-92600000D02*
X153085000Y-92600000D01*
G75*
G02*
X153235000Y-92750000I0J-150000D01*
G01*
X153235000Y-94400000D01*
G75*
G02*
X153085000Y-94550000I-150000J0D01*
G01*
X152785000Y-94550000D01*
G75*
G02*
X152635000Y-94400000I0J150000D01*
G01*
X152635000Y-92750000D01*
G75*
G02*
X152785000Y-92600000I150000J0D01*
G01*
G37*
G36*
G01*
X151515000Y-92600000D02*
X151815000Y-92600000D01*
G75*
G02*
X151965000Y-92750000I0J-150000D01*
G01*
X151965000Y-94400000D01*
G75*
G02*
X151815000Y-94550000I-150000J0D01*
G01*
X151515000Y-94550000D01*
G75*
G02*
X151365000Y-94400000I0J150000D01*
G01*
X151365000Y-92750000D01*
G75*
G02*
X151515000Y-92600000I150000J0D01*
G01*
G37*
G36*
G01*
X150245000Y-92600000D02*
X150545000Y-92600000D01*
G75*
G02*
X150695000Y-92750000I0J-150000D01*
G01*
X150695000Y-94400000D01*
G75*
G02*
X150545000Y-94550000I-150000J0D01*
G01*
X150245000Y-94550000D01*
G75*
G02*
X150095000Y-94400000I0J150000D01*
G01*
X150095000Y-92750000D01*
G75*
G02*
X150245000Y-92600000I150000J0D01*
G01*
G37*
G36*
G01*
X150245000Y-87650000D02*
X150545000Y-87650000D01*
G75*
G02*
X150695000Y-87800000I0J-150000D01*
G01*
X150695000Y-89450000D01*
G75*
G02*
X150545000Y-89600000I-150000J0D01*
G01*
X150245000Y-89600000D01*
G75*
G02*
X150095000Y-89450000I0J150000D01*
G01*
X150095000Y-87800000D01*
G75*
G02*
X150245000Y-87650000I150000J0D01*
G01*
G37*
G36*
G01*
X151515000Y-87650000D02*
X151815000Y-87650000D01*
G75*
G02*
X151965000Y-87800000I0J-150000D01*
G01*
X151965000Y-89450000D01*
G75*
G02*
X151815000Y-89600000I-150000J0D01*
G01*
X151515000Y-89600000D01*
G75*
G02*
X151365000Y-89450000I0J150000D01*
G01*
X151365000Y-87800000D01*
G75*
G02*
X151515000Y-87650000I150000J0D01*
G01*
G37*
G36*
G01*
X152785000Y-87650000D02*
X153085000Y-87650000D01*
G75*
G02*
X153235000Y-87800000I0J-150000D01*
G01*
X153235000Y-89450000D01*
G75*
G02*
X153085000Y-89600000I-150000J0D01*
G01*
X152785000Y-89600000D01*
G75*
G02*
X152635000Y-89450000I0J150000D01*
G01*
X152635000Y-87800000D01*
G75*
G02*
X152785000Y-87650000I150000J0D01*
G01*
G37*
G36*
G01*
X154055000Y-87650000D02*
X154355000Y-87650000D01*
G75*
G02*
X154505000Y-87800000I0J-150000D01*
G01*
X154505000Y-89450000D01*
G75*
G02*
X154355000Y-89600000I-150000J0D01*
G01*
X154055000Y-89600000D01*
G75*
G02*
X153905000Y-89450000I0J150000D01*
G01*
X153905000Y-87800000D01*
G75*
G02*
X154055000Y-87650000I150000J0D01*
G01*
G37*
G36*
G01*
X156074999Y-101725000D02*
X158925001Y-101725000D01*
G75*
G02*
X159175000Y-101974999I0J-249999D01*
G01*
X159175000Y-103000001D01*
G75*
G02*
X158925001Y-103250000I-249999J0D01*
G01*
X156074999Y-103250000D01*
G75*
G02*
X155825000Y-103000001I0J249999D01*
G01*
X155825000Y-101974999D01*
G75*
G02*
X156074999Y-101725000I249999J0D01*
G01*
G37*
G36*
G01*
X156074999Y-95750000D02*
X158925001Y-95750000D01*
G75*
G02*
X159175000Y-95999999I0J-249999D01*
G01*
X159175000Y-97025001D01*
G75*
G02*
X158925001Y-97275000I-249999J0D01*
G01*
X156074999Y-97275000D01*
G75*
G02*
X155825000Y-97025001I0J249999D01*
G01*
X155825000Y-95999999D01*
G75*
G02*
X156074999Y-95750000I249999J0D01*
G01*
G37*
D13*
X162650000Y-78700000D03*
X159350000Y-78700000D03*
D14*
X159600000Y-55600000D03*
X161600000Y-54650000D03*
X161600000Y-56550000D03*
G36*
G01*
X167327500Y-75790000D02*
X167672500Y-75790000D01*
G75*
G02*
X167820000Y-75937500I0J-147500D01*
G01*
X167820000Y-76232500D01*
G75*
G02*
X167672500Y-76380000I-147500J0D01*
G01*
X167327500Y-76380000D01*
G75*
G02*
X167180000Y-76232500I0J147500D01*
G01*
X167180000Y-75937500D01*
G75*
G02*
X167327500Y-75790000I147500J0D01*
G01*
G37*
G36*
G01*
X167327500Y-74820000D02*
X167672500Y-74820000D01*
G75*
G02*
X167820000Y-74967500I0J-147500D01*
G01*
X167820000Y-75262500D01*
G75*
G02*
X167672500Y-75410000I-147500J0D01*
G01*
X167327500Y-75410000D01*
G75*
G02*
X167180000Y-75262500I0J147500D01*
G01*
X167180000Y-74967500D01*
G75*
G02*
X167327500Y-74820000I147500J0D01*
G01*
G37*
G36*
G01*
X165900000Y-70070000D02*
X165900000Y-69730000D01*
G75*
G02*
X166040000Y-69590000I140000J0D01*
G01*
X166320000Y-69590000D01*
G75*
G02*
X166460000Y-69730000I0J-140000D01*
G01*
X166460000Y-70070000D01*
G75*
G02*
X166320000Y-70210000I-140000J0D01*
G01*
X166040000Y-70210000D01*
G75*
G02*
X165900000Y-70070000I0J140000D01*
G01*
G37*
G36*
G01*
X164940000Y-70070000D02*
X164940000Y-69730000D01*
G75*
G02*
X165080000Y-69590000I140000J0D01*
G01*
X165360000Y-69590000D01*
G75*
G02*
X165500000Y-69730000I0J-140000D01*
G01*
X165500000Y-70070000D01*
G75*
G02*
X165360000Y-70210000I-140000J0D01*
G01*
X165080000Y-70210000D01*
G75*
G02*
X164940000Y-70070000I0J140000D01*
G01*
G37*
D15*
X157400000Y-51145000D03*
X157400000Y-52415000D03*
X157400000Y-53685000D03*
X157400000Y-54955000D03*
X157400000Y-56225000D03*
X157400000Y-57495000D03*
X157400000Y-58765000D03*
X157400000Y-60035000D03*
X157400000Y-61305000D03*
X157400000Y-62575000D03*
X157400000Y-63845000D03*
X157400000Y-65115000D03*
X157400000Y-66385000D03*
X157400000Y-67655000D03*
D16*
X154615000Y-68655000D03*
X153345000Y-68655000D03*
X152075000Y-68655000D03*
X150805000Y-68655000D03*
X149535000Y-68655000D03*
X148265000Y-68655000D03*
X146995000Y-68655000D03*
X145725000Y-68655000D03*
X144455000Y-68655000D03*
X143185000Y-68655000D03*
D15*
X140400000Y-67655000D03*
X140400000Y-66385000D03*
X140400000Y-65115000D03*
X140400000Y-63845000D03*
X140400000Y-62575000D03*
X140400000Y-61305000D03*
X140400000Y-60035000D03*
X140400000Y-58765000D03*
X140400000Y-57495000D03*
X140400000Y-56225000D03*
X140400000Y-54955000D03*
X140400000Y-53685000D03*
X140400000Y-52415000D03*
X140400000Y-51145000D03*
D17*
X147900000Y-58645000D03*
G36*
G01*
X160840000Y-98685000D02*
X160840000Y-98315000D01*
G75*
G02*
X160975000Y-98180000I135000J0D01*
G01*
X161245000Y-98180000D01*
G75*
G02*
X161380000Y-98315000I0J-135000D01*
G01*
X161380000Y-98685000D01*
G75*
G02*
X161245000Y-98820000I-135000J0D01*
G01*
X160975000Y-98820000D01*
G75*
G02*
X160840000Y-98685000I0J135000D01*
G01*
G37*
G36*
G01*
X159820000Y-98685000D02*
X159820000Y-98315000D01*
G75*
G02*
X159955000Y-98180000I135000J0D01*
G01*
X160225000Y-98180000D01*
G75*
G02*
X160360000Y-98315000I0J-135000D01*
G01*
X160360000Y-98685000D01*
G75*
G02*
X160225000Y-98820000I-135000J0D01*
G01*
X159955000Y-98820000D01*
G75*
G02*
X159820000Y-98685000I0J135000D01*
G01*
G37*
D18*
X167900000Y-69950000D03*
X167900000Y-66650000D03*
D19*
X163600000Y-68450000D03*
X163600000Y-66550000D03*
X165800000Y-66550000D03*
X165800000Y-67500000D03*
X165800000Y-68450000D03*
G36*
G01*
X163900000Y-70070000D02*
X163900000Y-69730000D01*
G75*
G02*
X164040000Y-69590000I140000J0D01*
G01*
X164320000Y-69590000D01*
G75*
G02*
X164460000Y-69730000I0J-140000D01*
G01*
X164460000Y-70070000D01*
G75*
G02*
X164320000Y-70210000I-140000J0D01*
G01*
X164040000Y-70210000D01*
G75*
G02*
X163900000Y-70070000I0J140000D01*
G01*
G37*
G36*
G01*
X162940000Y-70070000D02*
X162940000Y-69730000D01*
G75*
G02*
X163080000Y-69590000I140000J0D01*
G01*
X163360000Y-69590000D01*
G75*
G02*
X163500000Y-69730000I0J-140000D01*
G01*
X163500000Y-70070000D01*
G75*
G02*
X163360000Y-70210000I-140000J0D01*
G01*
X163080000Y-70210000D01*
G75*
G02*
X162940000Y-70070000I0J140000D01*
G01*
G37*
G36*
G01*
X157500000Y-70730000D02*
X157500000Y-71070000D01*
G75*
G02*
X157360000Y-71210000I-140000J0D01*
G01*
X157080000Y-71210000D01*
G75*
G02*
X156940000Y-71070000I0J140000D01*
G01*
X156940000Y-70730000D01*
G75*
G02*
X157080000Y-70590000I140000J0D01*
G01*
X157360000Y-70590000D01*
G75*
G02*
X157500000Y-70730000I0J-140000D01*
G01*
G37*
G36*
G01*
X158460000Y-70730000D02*
X158460000Y-71070000D01*
G75*
G02*
X158320000Y-71210000I-140000J0D01*
G01*
X158040000Y-71210000D01*
G75*
G02*
X157900000Y-71070000I0J140000D01*
G01*
X157900000Y-70730000D01*
G75*
G02*
X158040000Y-70590000I140000J0D01*
G01*
X158320000Y-70590000D01*
G75*
G02*
X158460000Y-70730000I0J-140000D01*
G01*
G37*
D20*
X161650000Y-69700000D03*
X159750000Y-69700000D03*
X159750000Y-67500000D03*
X160700000Y-67500000D03*
X161650000Y-67500000D03*
D21*
X157400000Y-72650000D03*
X154200000Y-72650000D03*
X157400000Y-77550000D03*
X154200000Y-77550000D03*
G36*
G01*
X166900000Y-94300000D02*
X166900000Y-92300000D01*
G75*
G02*
X167150000Y-92050000I250000J0D01*
G01*
X171050000Y-92050000D01*
G75*
G02*
X171300000Y-92300000I0J-250000D01*
G01*
X171300000Y-94300000D01*
G75*
G02*
X171050000Y-94550000I-250000J0D01*
G01*
X167150000Y-94550000D01*
G75*
G02*
X166900000Y-94300000I0J250000D01*
G01*
G37*
G36*
G01*
X159500000Y-94300000D02*
X159500000Y-92300000D01*
G75*
G02*
X159750000Y-92050000I250000J0D01*
G01*
X163650000Y-92050000D01*
G75*
G02*
X163900000Y-92300000I0J-250000D01*
G01*
X163900000Y-94300000D01*
G75*
G02*
X163650000Y-94550000I-250000J0D01*
G01*
X159750000Y-94550000D01*
G75*
G02*
X159500000Y-94300000I0J250000D01*
G01*
G37*
G36*
G01*
X164450000Y-78675000D02*
X163950000Y-78675000D01*
G75*
G02*
X163725000Y-78450000I0J225000D01*
G01*
X163725000Y-78000000D01*
G75*
G02*
X163950000Y-77775000I225000J0D01*
G01*
X164450000Y-77775000D01*
G75*
G02*
X164675000Y-78000000I0J-225000D01*
G01*
X164675000Y-78450000D01*
G75*
G02*
X164450000Y-78675000I-225000J0D01*
G01*
G37*
G36*
G01*
X164450000Y-80225000D02*
X163950000Y-80225000D01*
G75*
G02*
X163725000Y-80000000I0J225000D01*
G01*
X163725000Y-79550000D01*
G75*
G02*
X163950000Y-79325000I225000J0D01*
G01*
X164450000Y-79325000D01*
G75*
G02*
X164675000Y-79550000I0J-225000D01*
G01*
X164675000Y-80000000D01*
G75*
G02*
X164450000Y-80225000I-225000J0D01*
G01*
G37*
G36*
G01*
X161805000Y-60400000D02*
X161505000Y-60400000D01*
G75*
G02*
X161355000Y-60250000I0J150000D01*
G01*
X161355000Y-58600000D01*
G75*
G02*
X161505000Y-58450000I150000J0D01*
G01*
X161805000Y-58450000D01*
G75*
G02*
X161955000Y-58600000I0J-150000D01*
G01*
X161955000Y-60250000D01*
G75*
G02*
X161805000Y-60400000I-150000J0D01*
G01*
G37*
G36*
G01*
X163075000Y-60400000D02*
X162775000Y-60400000D01*
G75*
G02*
X162625000Y-60250000I0J150000D01*
G01*
X162625000Y-58600000D01*
G75*
G02*
X162775000Y-58450000I150000J0D01*
G01*
X163075000Y-58450000D01*
G75*
G02*
X163225000Y-58600000I0J-150000D01*
G01*
X163225000Y-60250000D01*
G75*
G02*
X163075000Y-60400000I-150000J0D01*
G01*
G37*
G36*
G01*
X164345000Y-60400000D02*
X164045000Y-60400000D01*
G75*
G02*
X163895000Y-60250000I0J150000D01*
G01*
X163895000Y-58600000D01*
G75*
G02*
X164045000Y-58450000I150000J0D01*
G01*
X164345000Y-58450000D01*
G75*
G02*
X164495000Y-58600000I0J-150000D01*
G01*
X164495000Y-60250000D01*
G75*
G02*
X164345000Y-60400000I-150000J0D01*
G01*
G37*
G36*
G01*
X165615000Y-60400000D02*
X165315000Y-60400000D01*
G75*
G02*
X165165000Y-60250000I0J150000D01*
G01*
X165165000Y-58600000D01*
G75*
G02*
X165315000Y-58450000I150000J0D01*
G01*
X165615000Y-58450000D01*
G75*
G02*
X165765000Y-58600000I0J-150000D01*
G01*
X165765000Y-60250000D01*
G75*
G02*
X165615000Y-60400000I-150000J0D01*
G01*
G37*
G36*
G01*
X166885000Y-60400000D02*
X166585000Y-60400000D01*
G75*
G02*
X166435000Y-60250000I0J150000D01*
G01*
X166435000Y-58600000D01*
G75*
G02*
X166585000Y-58450000I150000J0D01*
G01*
X166885000Y-58450000D01*
G75*
G02*
X167035000Y-58600000I0J-150000D01*
G01*
X167035000Y-60250000D01*
G75*
G02*
X166885000Y-60400000I-150000J0D01*
G01*
G37*
G36*
G01*
X168155000Y-60400000D02*
X167855000Y-60400000D01*
G75*
G02*
X167705000Y-60250000I0J150000D01*
G01*
X167705000Y-58600000D01*
G75*
G02*
X167855000Y-58450000I150000J0D01*
G01*
X168155000Y-58450000D01*
G75*
G02*
X168305000Y-58600000I0J-150000D01*
G01*
X168305000Y-60250000D01*
G75*
G02*
X168155000Y-60400000I-150000J0D01*
G01*
G37*
G36*
G01*
X169425000Y-60400000D02*
X169125000Y-60400000D01*
G75*
G02*
X168975000Y-60250000I0J150000D01*
G01*
X168975000Y-58600000D01*
G75*
G02*
X169125000Y-58450000I150000J0D01*
G01*
X169425000Y-58450000D01*
G75*
G02*
X169575000Y-58600000I0J-150000D01*
G01*
X169575000Y-60250000D01*
G75*
G02*
X169425000Y-60400000I-150000J0D01*
G01*
G37*
G36*
G01*
X170695000Y-60400000D02*
X170395000Y-60400000D01*
G75*
G02*
X170245000Y-60250000I0J150000D01*
G01*
X170245000Y-58600000D01*
G75*
G02*
X170395000Y-58450000I150000J0D01*
G01*
X170695000Y-58450000D01*
G75*
G02*
X170845000Y-58600000I0J-150000D01*
G01*
X170845000Y-60250000D01*
G75*
G02*
X170695000Y-60400000I-150000J0D01*
G01*
G37*
G36*
G01*
X170695000Y-65350000D02*
X170395000Y-65350000D01*
G75*
G02*
X170245000Y-65200000I0J150000D01*
G01*
X170245000Y-63550000D01*
G75*
G02*
X170395000Y-63400000I150000J0D01*
G01*
X170695000Y-63400000D01*
G75*
G02*
X170845000Y-63550000I0J-150000D01*
G01*
X170845000Y-65200000D01*
G75*
G02*
X170695000Y-65350000I-150000J0D01*
G01*
G37*
G36*
G01*
X169425000Y-65350000D02*
X169125000Y-65350000D01*
G75*
G02*
X168975000Y-65200000I0J150000D01*
G01*
X168975000Y-63550000D01*
G75*
G02*
X169125000Y-63400000I150000J0D01*
G01*
X169425000Y-63400000D01*
G75*
G02*
X169575000Y-63550000I0J-150000D01*
G01*
X169575000Y-65200000D01*
G75*
G02*
X169425000Y-65350000I-150000J0D01*
G01*
G37*
G36*
G01*
X168155000Y-65350000D02*
X167855000Y-65350000D01*
G75*
G02*
X167705000Y-65200000I0J150000D01*
G01*
X167705000Y-63550000D01*
G75*
G02*
X167855000Y-63400000I150000J0D01*
G01*
X168155000Y-63400000D01*
G75*
G02*
X168305000Y-63550000I0J-150000D01*
G01*
X168305000Y-65200000D01*
G75*
G02*
X168155000Y-65350000I-150000J0D01*
G01*
G37*
G36*
G01*
X166885000Y-65350000D02*
X166585000Y-65350000D01*
G75*
G02*
X166435000Y-65200000I0J150000D01*
G01*
X166435000Y-63550000D01*
G75*
G02*
X166585000Y-63400000I150000J0D01*
G01*
X166885000Y-63400000D01*
G75*
G02*
X167035000Y-63550000I0J-150000D01*
G01*
X167035000Y-65200000D01*
G75*
G02*
X166885000Y-65350000I-150000J0D01*
G01*
G37*
G36*
G01*
X165615000Y-65350000D02*
X165315000Y-65350000D01*
G75*
G02*
X165165000Y-65200000I0J150000D01*
G01*
X165165000Y-63550000D01*
G75*
G02*
X165315000Y-63400000I150000J0D01*
G01*
X165615000Y-63400000D01*
G75*
G02*
X165765000Y-63550000I0J-150000D01*
G01*
X165765000Y-65200000D01*
G75*
G02*
X165615000Y-65350000I-150000J0D01*
G01*
G37*
G36*
G01*
X164345000Y-65350000D02*
X164045000Y-65350000D01*
G75*
G02*
X163895000Y-65200000I0J150000D01*
G01*
X163895000Y-63550000D01*
G75*
G02*
X164045000Y-63400000I150000J0D01*
G01*
X164345000Y-63400000D01*
G75*
G02*
X164495000Y-63550000I0J-150000D01*
G01*
X164495000Y-65200000D01*
G75*
G02*
X164345000Y-65350000I-150000J0D01*
G01*
G37*
G36*
G01*
X163075000Y-65350000D02*
X162775000Y-65350000D01*
G75*
G02*
X162625000Y-65200000I0J150000D01*
G01*
X162625000Y-63550000D01*
G75*
G02*
X162775000Y-63400000I150000J0D01*
G01*
X163075000Y-63400000D01*
G75*
G02*
X163225000Y-63550000I0J-150000D01*
G01*
X163225000Y-65200000D01*
G75*
G02*
X163075000Y-65350000I-150000J0D01*
G01*
G37*
G36*
G01*
X161805000Y-65350000D02*
X161505000Y-65350000D01*
G75*
G02*
X161355000Y-65200000I0J150000D01*
G01*
X161355000Y-63550000D01*
G75*
G02*
X161505000Y-63400000I150000J0D01*
G01*
X161805000Y-63400000D01*
G75*
G02*
X161955000Y-63550000I0J-150000D01*
G01*
X161955000Y-65200000D01*
G75*
G02*
X161805000Y-65350000I-150000J0D01*
G01*
G37*
G36*
G01*
X163155000Y-86200000D02*
X163455000Y-86200000D01*
G75*
G02*
X163605000Y-86350000I0J-150000D01*
G01*
X163605000Y-88000000D01*
G75*
G02*
X163455000Y-88150000I-150000J0D01*
G01*
X163155000Y-88150000D01*
G75*
G02*
X163005000Y-88000000I0J150000D01*
G01*
X163005000Y-86350000D01*
G75*
G02*
X163155000Y-86200000I150000J0D01*
G01*
G37*
G36*
G01*
X161885000Y-86200000D02*
X162185000Y-86200000D01*
G75*
G02*
X162335000Y-86350000I0J-150000D01*
G01*
X162335000Y-88000000D01*
G75*
G02*
X162185000Y-88150000I-150000J0D01*
G01*
X161885000Y-88150000D01*
G75*
G02*
X161735000Y-88000000I0J150000D01*
G01*
X161735000Y-86350000D01*
G75*
G02*
X161885000Y-86200000I150000J0D01*
G01*
G37*
G36*
G01*
X160615000Y-86200000D02*
X160915000Y-86200000D01*
G75*
G02*
X161065000Y-86350000I0J-150000D01*
G01*
X161065000Y-88000000D01*
G75*
G02*
X160915000Y-88150000I-150000J0D01*
G01*
X160615000Y-88150000D01*
G75*
G02*
X160465000Y-88000000I0J150000D01*
G01*
X160465000Y-86350000D01*
G75*
G02*
X160615000Y-86200000I150000J0D01*
G01*
G37*
G36*
G01*
X159345000Y-86200000D02*
X159645000Y-86200000D01*
G75*
G02*
X159795000Y-86350000I0J-150000D01*
G01*
X159795000Y-88000000D01*
G75*
G02*
X159645000Y-88150000I-150000J0D01*
G01*
X159345000Y-88150000D01*
G75*
G02*
X159195000Y-88000000I0J150000D01*
G01*
X159195000Y-86350000D01*
G75*
G02*
X159345000Y-86200000I150000J0D01*
G01*
G37*
G36*
G01*
X159345000Y-81250000D02*
X159645000Y-81250000D01*
G75*
G02*
X159795000Y-81400000I0J-150000D01*
G01*
X159795000Y-83050000D01*
G75*
G02*
X159645000Y-83200000I-150000J0D01*
G01*
X159345000Y-83200000D01*
G75*
G02*
X159195000Y-83050000I0J150000D01*
G01*
X159195000Y-81400000D01*
G75*
G02*
X159345000Y-81250000I150000J0D01*
G01*
G37*
G36*
G01*
X160615000Y-81250000D02*
X160915000Y-81250000D01*
G75*
G02*
X161065000Y-81400000I0J-150000D01*
G01*
X161065000Y-83050000D01*
G75*
G02*
X160915000Y-83200000I-150000J0D01*
G01*
X160615000Y-83200000D01*
G75*
G02*
X160465000Y-83050000I0J150000D01*
G01*
X160465000Y-81400000D01*
G75*
G02*
X160615000Y-81250000I150000J0D01*
G01*
G37*
G36*
G01*
X161885000Y-81250000D02*
X162185000Y-81250000D01*
G75*
G02*
X162335000Y-81400000I0J-150000D01*
G01*
X162335000Y-83050000D01*
G75*
G02*
X162185000Y-83200000I-150000J0D01*
G01*
X161885000Y-83200000D01*
G75*
G02*
X161735000Y-83050000I0J150000D01*
G01*
X161735000Y-81400000D01*
G75*
G02*
X161885000Y-81250000I150000J0D01*
G01*
G37*
G36*
G01*
X163155000Y-81250000D02*
X163455000Y-81250000D01*
G75*
G02*
X163605000Y-81400000I0J-150000D01*
G01*
X163605000Y-83050000D01*
G75*
G02*
X163455000Y-83200000I-150000J0D01*
G01*
X163155000Y-83200000D01*
G75*
G02*
X163005000Y-83050000I0J150000D01*
G01*
X163005000Y-81400000D01*
G75*
G02*
X163155000Y-81250000I150000J0D01*
G01*
G37*
D13*
X159650000Y-90000000D03*
X156350000Y-90000000D03*
G36*
G01*
X167372500Y-71810000D02*
X167027500Y-71810000D01*
G75*
G02*
X166880000Y-71662500I0J147500D01*
G01*
X166880000Y-71367500D01*
G75*
G02*
X167027500Y-71220000I147500J0D01*
G01*
X167372500Y-71220000D01*
G75*
G02*
X167520000Y-71367500I0J-147500D01*
G01*
X167520000Y-71662500D01*
G75*
G02*
X167372500Y-71810000I-147500J0D01*
G01*
G37*
G36*
G01*
X167372500Y-72780000D02*
X167027500Y-72780000D01*
G75*
G02*
X166880000Y-72632500I0J147500D01*
G01*
X166880000Y-72337500D01*
G75*
G02*
X167027500Y-72190000I147500J0D01*
G01*
X167372500Y-72190000D01*
G75*
G02*
X167520000Y-72337500I0J-147500D01*
G01*
X167520000Y-72632500D01*
G75*
G02*
X167372500Y-72780000I-147500J0D01*
G01*
G37*
D22*
X170755000Y-68050000D03*
X170755000Y-68850000D03*
X170755000Y-73750000D03*
X170755000Y-74550000D03*
X170755000Y-74550000D03*
X170755000Y-73750000D03*
X170755000Y-68850000D03*
X170755000Y-68050000D03*
D23*
X170755000Y-73050000D03*
X170755000Y-72550000D03*
X170755000Y-72050000D03*
X170755000Y-71050000D03*
X170755000Y-70550000D03*
X170755000Y-70050000D03*
X170755000Y-69550000D03*
X170755000Y-71550000D03*
G36*
G01*
X172085000Y-64660000D02*
X171715000Y-64660000D01*
G75*
G02*
X171580000Y-64525000I0J135000D01*
G01*
X171580000Y-64255000D01*
G75*
G02*
X171715000Y-64120000I135000J0D01*
G01*
X172085000Y-64120000D01*
G75*
G02*
X172220000Y-64255000I0J-135000D01*
G01*
X172220000Y-64525000D01*
G75*
G02*
X172085000Y-64660000I-135000J0D01*
G01*
G37*
G36*
G01*
X172085000Y-65680000D02*
X171715000Y-65680000D01*
G75*
G02*
X171580000Y-65545000I0J135000D01*
G01*
X171580000Y-65275000D01*
G75*
G02*
X171715000Y-65140000I135000J0D01*
G01*
X172085000Y-65140000D01*
G75*
G02*
X172220000Y-65275000I0J-135000D01*
G01*
X172220000Y-65545000D01*
G75*
G02*
X172085000Y-65680000I-135000J0D01*
G01*
G37*
G36*
G01*
X168615000Y-75530000D02*
X168985000Y-75530000D01*
G75*
G02*
X169120000Y-75665000I0J-135000D01*
G01*
X169120000Y-75935000D01*
G75*
G02*
X168985000Y-76070000I-135000J0D01*
G01*
X168615000Y-76070000D01*
G75*
G02*
X168480000Y-75935000I0J135000D01*
G01*
X168480000Y-75665000D01*
G75*
G02*
X168615000Y-75530000I135000J0D01*
G01*
G37*
G36*
G01*
X168615000Y-74510000D02*
X168985000Y-74510000D01*
G75*
G02*
X169120000Y-74645000I0J-135000D01*
G01*
X169120000Y-74915000D01*
G75*
G02*
X168985000Y-75050000I-135000J0D01*
G01*
X168615000Y-75050000D01*
G75*
G02*
X168480000Y-74915000I0J135000D01*
G01*
X168480000Y-74645000D01*
G75*
G02*
X168615000Y-74510000I135000J0D01*
G01*
G37*
G36*
G01*
X135310000Y-56727500D02*
X135310000Y-57072500D01*
G75*
G02*
X135162500Y-57220000I-147500J0D01*
G01*
X134867500Y-57220000D01*
G75*
G02*
X134720000Y-57072500I0J147500D01*
G01*
X134720000Y-56727500D01*
G75*
G02*
X134867500Y-56580000I147500J0D01*
G01*
X135162500Y-56580000D01*
G75*
G02*
X135310000Y-56727500I0J-147500D01*
G01*
G37*
G36*
G01*
X136280000Y-56727500D02*
X136280000Y-57072500D01*
G75*
G02*
X136132500Y-57220000I-147500J0D01*
G01*
X135837500Y-57220000D01*
G75*
G02*
X135690000Y-57072500I0J147500D01*
G01*
X135690000Y-56727500D01*
G75*
G02*
X135837500Y-56580000I147500J0D01*
G01*
X136132500Y-56580000D01*
G75*
G02*
X136280000Y-56727500I0J-147500D01*
G01*
G37*
G36*
G01*
X159772500Y-60210000D02*
X159427500Y-60210000D01*
G75*
G02*
X159280000Y-60062500I0J147500D01*
G01*
X159280000Y-59767500D01*
G75*
G02*
X159427500Y-59620000I147500J0D01*
G01*
X159772500Y-59620000D01*
G75*
G02*
X159920000Y-59767500I0J-147500D01*
G01*
X159920000Y-60062500D01*
G75*
G02*
X159772500Y-60210000I-147500J0D01*
G01*
G37*
G36*
G01*
X159772500Y-61180000D02*
X159427500Y-61180000D01*
G75*
G02*
X159280000Y-61032500I0J147500D01*
G01*
X159280000Y-60737500D01*
G75*
G02*
X159427500Y-60590000I147500J0D01*
G01*
X159772500Y-60590000D01*
G75*
G02*
X159920000Y-60737500I0J-147500D01*
G01*
X159920000Y-61032500D01*
G75*
G02*
X159772500Y-61180000I-147500J0D01*
G01*
G37*
D24*
X165700000Y-75975000D03*
X165700000Y-72225000D03*
X159700000Y-72225000D03*
X159700000Y-75975000D03*
G36*
G01*
X163227500Y-57190000D02*
X163572500Y-57190000D01*
G75*
G02*
X163720000Y-57337500I0J-147500D01*
G01*
X163720000Y-57632500D01*
G75*
G02*
X163572500Y-57780000I-147500J0D01*
G01*
X163227500Y-57780000D01*
G75*
G02*
X163080000Y-57632500I0J147500D01*
G01*
X163080000Y-57337500D01*
G75*
G02*
X163227500Y-57190000I147500J0D01*
G01*
G37*
G36*
G01*
X163227500Y-56220000D02*
X163572500Y-56220000D01*
G75*
G02*
X163720000Y-56367500I0J-147500D01*
G01*
X163720000Y-56662500D01*
G75*
G02*
X163572500Y-56810000I-147500J0D01*
G01*
X163227500Y-56810000D01*
G75*
G02*
X163080000Y-56662500I0J147500D01*
G01*
X163080000Y-56367500D01*
G75*
G02*
X163227500Y-56220000I147500J0D01*
G01*
G37*
G36*
G01*
X165890000Y-57772500D02*
X165890000Y-57427500D01*
G75*
G02*
X166037500Y-57280000I147500J0D01*
G01*
X166332500Y-57280000D01*
G75*
G02*
X166480000Y-57427500I0J-147500D01*
G01*
X166480000Y-57772500D01*
G75*
G02*
X166332500Y-57920000I-147500J0D01*
G01*
X166037500Y-57920000D01*
G75*
G02*
X165890000Y-57772500I0J147500D01*
G01*
G37*
G36*
G01*
X164920000Y-57772500D02*
X164920000Y-57427500D01*
G75*
G02*
X165067500Y-57280000I147500J0D01*
G01*
X165362500Y-57280000D01*
G75*
G02*
X165510000Y-57427500I0J-147500D01*
G01*
X165510000Y-57772500D01*
G75*
G02*
X165362500Y-57920000I-147500J0D01*
G01*
X165067500Y-57920000D01*
G75*
G02*
X164920000Y-57772500I0J147500D01*
G01*
G37*
D14*
X159600000Y-52000000D03*
X161600000Y-51050000D03*
X161600000Y-52950000D03*
G36*
G01*
X160372500Y-58210000D02*
X160027500Y-58210000D01*
G75*
G02*
X159880000Y-58062500I0J147500D01*
G01*
X159880000Y-57767500D01*
G75*
G02*
X160027500Y-57620000I147500J0D01*
G01*
X160372500Y-57620000D01*
G75*
G02*
X160520000Y-57767500I0J-147500D01*
G01*
X160520000Y-58062500D01*
G75*
G02*
X160372500Y-58210000I-147500J0D01*
G01*
G37*
G36*
G01*
X160372500Y-59180000D02*
X160027500Y-59180000D01*
G75*
G02*
X159880000Y-59032500I0J147500D01*
G01*
X159880000Y-58737500D01*
G75*
G02*
X160027500Y-58590000I147500J0D01*
G01*
X160372500Y-58590000D01*
G75*
G02*
X160520000Y-58737500I0J-147500D01*
G01*
X160520000Y-59032500D01*
G75*
G02*
X160372500Y-59180000I-147500J0D01*
G01*
G37*
M02*
