G04 #@! TF.GenerationSoftware,KiCad,Pcbnew,(5.1.9)-1*
G04 #@! TF.CreationDate,2021-12-18T00:11:03+00:00*
G04 #@! TF.ProjectId,stepper_driver,73746570-7065-4725-9f64-72697665722e,rev?*
G04 #@! TF.SameCoordinates,Original*
G04 #@! TF.FileFunction,Legend,Top*
G04 #@! TF.FilePolarity,Positive*
%FSLAX46Y46*%
G04 Gerber Fmt 4.6, Leading zero omitted, Abs format (unit mm)*
G04 Created by KiCad (PCBNEW (5.1.9)-1) date 2021-12-18 00:11:03*
%MOMM*%
%LPD*%
G01*
G04 APERTURE LIST*
%ADD10C,0.150000*%
%ADD11C,0.120000*%
G04 APERTURE END LIST*
D10*
X144044952Y-50666380D02*
X144044952Y-51380666D01*
X143997333Y-51523523D01*
X143902095Y-51618761D01*
X143759238Y-51666380D01*
X143664000Y-51666380D01*
X144997333Y-51666380D02*
X144521142Y-51666380D01*
X144521142Y-50666380D01*
X145902095Y-51571142D02*
X145854476Y-51618761D01*
X145711619Y-51666380D01*
X145616380Y-51666380D01*
X145473523Y-51618761D01*
X145378285Y-51523523D01*
X145330666Y-51428285D01*
X145283047Y-51237809D01*
X145283047Y-51094952D01*
X145330666Y-50904476D01*
X145378285Y-50809238D01*
X145473523Y-50714000D01*
X145616380Y-50666380D01*
X145711619Y-50666380D01*
X145854476Y-50714000D01*
X145902095Y-50761619D01*
X146616380Y-50666380D02*
X146616380Y-51380666D01*
X146568761Y-51523523D01*
X146473523Y-51618761D01*
X146330666Y-51666380D01*
X146235428Y-51666380D01*
X147568761Y-51666380D02*
X147092571Y-51666380D01*
X147092571Y-50666380D01*
X148473523Y-51571142D02*
X148425904Y-51618761D01*
X148283047Y-51666380D01*
X148187809Y-51666380D01*
X148044952Y-51618761D01*
X147949714Y-51523523D01*
X147902095Y-51428285D01*
X147854476Y-51237809D01*
X147854476Y-51094952D01*
X147902095Y-50904476D01*
X147949714Y-50809238D01*
X148044952Y-50714000D01*
X148187809Y-50666380D01*
X148283047Y-50666380D01*
X148425904Y-50714000D01*
X148473523Y-50761619D01*
X149187809Y-50666380D02*
X149187809Y-51380666D01*
X149140190Y-51523523D01*
X149044952Y-51618761D01*
X148902095Y-51666380D01*
X148806857Y-51666380D01*
X150140190Y-51666380D02*
X149664000Y-51666380D01*
X149664000Y-50666380D01*
X151044952Y-51571142D02*
X150997333Y-51618761D01*
X150854476Y-51666380D01*
X150759238Y-51666380D01*
X150616380Y-51618761D01*
X150521142Y-51523523D01*
X150473523Y-51428285D01*
X150425904Y-51237809D01*
X150425904Y-51094952D01*
X150473523Y-50904476D01*
X150521142Y-50809238D01*
X150616380Y-50714000D01*
X150759238Y-50666380D01*
X150854476Y-50666380D01*
X150997333Y-50714000D01*
X151044952Y-50761619D01*
X151759238Y-50666380D02*
X151759238Y-51380666D01*
X151711619Y-51523523D01*
X151616380Y-51618761D01*
X151473523Y-51666380D01*
X151378285Y-51666380D01*
X152711619Y-51666380D02*
X152235428Y-51666380D01*
X152235428Y-50666380D01*
X153616380Y-51571142D02*
X153568761Y-51618761D01*
X153425904Y-51666380D01*
X153330666Y-51666380D01*
X153187809Y-51618761D01*
X153092571Y-51523523D01*
X153044952Y-51428285D01*
X152997333Y-51237809D01*
X152997333Y-51094952D01*
X153044952Y-50904476D01*
X153092571Y-50809238D01*
X153187809Y-50714000D01*
X153330666Y-50666380D01*
X153425904Y-50666380D01*
X153568761Y-50714000D01*
X153616380Y-50761619D01*
X126092857Y-69946285D02*
X124892857Y-69946285D01*
X124892857Y-69489142D01*
X124950000Y-69374857D01*
X125007142Y-69317714D01*
X125121428Y-69260571D01*
X125292857Y-69260571D01*
X125407142Y-69317714D01*
X125464285Y-69374857D01*
X125521428Y-69489142D01*
X125521428Y-69946285D01*
X125750000Y-68803428D02*
X125750000Y-68232000D01*
X126092857Y-68917714D02*
X124892857Y-68517714D01*
X126092857Y-68117714D01*
X126092857Y-67717714D02*
X124892857Y-67717714D01*
X126092857Y-66460571D02*
X125521428Y-66860571D01*
X126092857Y-67146285D02*
X124892857Y-67146285D01*
X124892857Y-66689142D01*
X124950000Y-66574857D01*
X125007142Y-66517714D01*
X125121428Y-66460571D01*
X125292857Y-66460571D01*
X125407142Y-66517714D01*
X125464285Y-66574857D01*
X125521428Y-66689142D01*
X125521428Y-67146285D01*
X136751523Y-60046904D02*
X137246761Y-60046904D01*
X136980095Y-60351666D01*
X137094380Y-60351666D01*
X137170571Y-60389761D01*
X137208666Y-60427857D01*
X137246761Y-60504047D01*
X137246761Y-60694523D01*
X137208666Y-60770714D01*
X137170571Y-60808809D01*
X137094380Y-60846904D01*
X136865809Y-60846904D01*
X136789619Y-60808809D01*
X136751523Y-60770714D01*
X137475333Y-60046904D02*
X137742000Y-60846904D01*
X138008666Y-60046904D01*
X138199142Y-60046904D02*
X138694380Y-60046904D01*
X138427714Y-60351666D01*
X138542000Y-60351666D01*
X138618190Y-60389761D01*
X138656285Y-60427857D01*
X138694380Y-60504047D01*
X138694380Y-60694523D01*
X138656285Y-60770714D01*
X138618190Y-60808809D01*
X138542000Y-60846904D01*
X138313428Y-60846904D01*
X138237238Y-60808809D01*
X138199142Y-60770714D01*
X136853095Y-63386904D02*
X136853095Y-62586904D01*
X137157857Y-62586904D02*
X137653095Y-62586904D01*
X137386428Y-62891666D01*
X137500714Y-62891666D01*
X137576904Y-62929761D01*
X137615000Y-62967857D01*
X137653095Y-63044047D01*
X137653095Y-63234523D01*
X137615000Y-63310714D01*
X137576904Y-63348809D01*
X137500714Y-63386904D01*
X137272142Y-63386904D01*
X137195952Y-63348809D01*
X137157857Y-63310714D01*
X138338809Y-62853571D02*
X138338809Y-63386904D01*
X138148333Y-62548809D02*
X137957857Y-63120238D01*
X138453095Y-63120238D01*
X136815047Y-65926904D02*
X136815047Y-65126904D01*
X137348380Y-65126904D02*
X137500761Y-65126904D01*
X137576952Y-65165000D01*
X137653142Y-65241190D01*
X137691238Y-65393571D01*
X137691238Y-65660238D01*
X137653142Y-65812619D01*
X137576952Y-65888809D01*
X137500761Y-65926904D01*
X137348380Y-65926904D01*
X137272190Y-65888809D01*
X137196000Y-65812619D01*
X137157904Y-65660238D01*
X137157904Y-65393571D01*
X137196000Y-65241190D01*
X137272190Y-65165000D01*
X137348380Y-65126904D01*
X137957904Y-65126904D02*
X138453142Y-65126904D01*
X138186476Y-65431666D01*
X138300761Y-65431666D01*
X138376952Y-65469761D01*
X138415047Y-65507857D01*
X138453142Y-65584047D01*
X138453142Y-65774523D01*
X138415047Y-65850714D01*
X138376952Y-65888809D01*
X138300761Y-65926904D01*
X138072190Y-65926904D01*
X137996000Y-65888809D01*
X137957904Y-65850714D01*
X138757904Y-65203095D02*
X138796000Y-65165000D01*
X138872190Y-65126904D01*
X139062666Y-65126904D01*
X139138857Y-65165000D01*
X139176952Y-65203095D01*
X139215047Y-65279285D01*
X139215047Y-65355476D01*
X139176952Y-65469761D01*
X138719809Y-65926904D01*
X139215047Y-65926904D01*
X136808666Y-68428809D02*
X136922952Y-68466904D01*
X137113428Y-68466904D01*
X137189619Y-68428809D01*
X137227714Y-68390714D01*
X137265809Y-68314523D01*
X137265809Y-68238333D01*
X137227714Y-68162142D01*
X137189619Y-68124047D01*
X137113428Y-68085952D01*
X136961047Y-68047857D01*
X136884857Y-68009761D01*
X136846761Y-67971666D01*
X136808666Y-67895476D01*
X136808666Y-67819285D01*
X136846761Y-67743095D01*
X136884857Y-67705000D01*
X136961047Y-67666904D01*
X137151523Y-67666904D01*
X137265809Y-67705000D01*
X137494380Y-67666904D02*
X137951523Y-67666904D01*
X137722952Y-68466904D02*
X137722952Y-67666904D01*
X138218190Y-68466904D02*
X138218190Y-67666904D01*
X138522952Y-67666904D01*
X138599142Y-67705000D01*
X138637238Y-67743095D01*
X138675333Y-67819285D01*
X138675333Y-67933571D01*
X138637238Y-68009761D01*
X138599142Y-68047857D01*
X138522952Y-68085952D01*
X138218190Y-68085952D01*
X136815047Y-71006904D02*
X136815047Y-70206904D01*
X137348380Y-70206904D02*
X137500761Y-70206904D01*
X137576952Y-70245000D01*
X137653142Y-70321190D01*
X137691238Y-70473571D01*
X137691238Y-70740238D01*
X137653142Y-70892619D01*
X137576952Y-70968809D01*
X137500761Y-71006904D01*
X137348380Y-71006904D01*
X137272190Y-70968809D01*
X137196000Y-70892619D01*
X137157904Y-70740238D01*
X137157904Y-70473571D01*
X137196000Y-70321190D01*
X137272190Y-70245000D01*
X137348380Y-70206904D01*
X137996000Y-70283095D02*
X138034095Y-70245000D01*
X138110285Y-70206904D01*
X138300761Y-70206904D01*
X138376952Y-70245000D01*
X138415047Y-70283095D01*
X138453142Y-70359285D01*
X138453142Y-70435476D01*
X138415047Y-70549761D01*
X137957904Y-71006904D01*
X138453142Y-71006904D01*
X138719809Y-70206904D02*
X139253142Y-70206904D01*
X138910285Y-71006904D01*
X136815047Y-73546904D02*
X136815047Y-72746904D01*
X137348380Y-72746904D02*
X137500761Y-72746904D01*
X137576952Y-72785000D01*
X137653142Y-72861190D01*
X137691238Y-73013571D01*
X137691238Y-73280238D01*
X137653142Y-73432619D01*
X137576952Y-73508809D01*
X137500761Y-73546904D01*
X137348380Y-73546904D01*
X137272190Y-73508809D01*
X137196000Y-73432619D01*
X137157904Y-73280238D01*
X137157904Y-73013571D01*
X137196000Y-72861190D01*
X137272190Y-72785000D01*
X137348380Y-72746904D01*
X138453142Y-73546904D02*
X137996000Y-73546904D01*
X138224571Y-73546904D02*
X138224571Y-72746904D01*
X138148380Y-72861190D01*
X138072190Y-72937380D01*
X137996000Y-72975476D01*
X138757904Y-72823095D02*
X138796000Y-72785000D01*
X138872190Y-72746904D01*
X139062666Y-72746904D01*
X139138857Y-72785000D01*
X139176952Y-72823095D01*
X139215047Y-72899285D01*
X139215047Y-72975476D01*
X139176952Y-73089761D01*
X138719809Y-73546904D01*
X139215047Y-73546904D01*
X137132476Y-75325000D02*
X137056285Y-75286904D01*
X136942000Y-75286904D01*
X136827714Y-75325000D01*
X136751523Y-75401190D01*
X136713428Y-75477380D01*
X136675333Y-75629761D01*
X136675333Y-75744047D01*
X136713428Y-75896428D01*
X136751523Y-75972619D01*
X136827714Y-76048809D01*
X136942000Y-76086904D01*
X137018190Y-76086904D01*
X137132476Y-76048809D01*
X137170571Y-76010714D01*
X137170571Y-75744047D01*
X137018190Y-75744047D01*
X137513428Y-76086904D02*
X137513428Y-75286904D01*
X137970571Y-76086904D01*
X137970571Y-75286904D01*
X138351523Y-76086904D02*
X138351523Y-75286904D01*
X138542000Y-75286904D01*
X138656285Y-75325000D01*
X138732476Y-75401190D01*
X138770571Y-75477380D01*
X138808666Y-75629761D01*
X138808666Y-75744047D01*
X138770571Y-75896428D01*
X138732476Y-75972619D01*
X138656285Y-76048809D01*
X138542000Y-76086904D01*
X138351523Y-76086904D01*
X129512476Y-75325000D02*
X129436285Y-75286904D01*
X129322000Y-75286904D01*
X129207714Y-75325000D01*
X129131523Y-75401190D01*
X129093428Y-75477380D01*
X129055333Y-75629761D01*
X129055333Y-75744047D01*
X129093428Y-75896428D01*
X129131523Y-75972619D01*
X129207714Y-76048809D01*
X129322000Y-76086904D01*
X129398190Y-76086904D01*
X129512476Y-76048809D01*
X129550571Y-76010714D01*
X129550571Y-75744047D01*
X129398190Y-75744047D01*
X129893428Y-76086904D02*
X129893428Y-75286904D01*
X130350571Y-76086904D01*
X130350571Y-75286904D01*
X130731523Y-76086904D02*
X130731523Y-75286904D01*
X130922000Y-75286904D01*
X131036285Y-75325000D01*
X131112476Y-75401190D01*
X131150571Y-75477380D01*
X131188666Y-75629761D01*
X131188666Y-75744047D01*
X131150571Y-75896428D01*
X131112476Y-75972619D01*
X131036285Y-76048809D01*
X130922000Y-76086904D01*
X130731523Y-76086904D01*
X128687047Y-73546904D02*
X128687047Y-72746904D01*
X129220380Y-72746904D02*
X129372761Y-72746904D01*
X129448952Y-72785000D01*
X129525142Y-72861190D01*
X129563238Y-73013571D01*
X129563238Y-73280238D01*
X129525142Y-73432619D01*
X129448952Y-73508809D01*
X129372761Y-73546904D01*
X129220380Y-73546904D01*
X129144190Y-73508809D01*
X129068000Y-73432619D01*
X129029904Y-73280238D01*
X129029904Y-73013571D01*
X129068000Y-72861190D01*
X129144190Y-72785000D01*
X129220380Y-72746904D01*
X130325142Y-73546904D02*
X129868000Y-73546904D01*
X130096571Y-73546904D02*
X130096571Y-72746904D01*
X130020380Y-72861190D01*
X129944190Y-72937380D01*
X129868000Y-72975476D01*
X131010857Y-73013571D02*
X131010857Y-73546904D01*
X130820380Y-72708809D02*
X130629904Y-73280238D01*
X131125142Y-73280238D01*
X129449000Y-71006904D02*
X129449000Y-70206904D01*
X129639476Y-70206904D01*
X129753761Y-70245000D01*
X129829952Y-70321190D01*
X129868047Y-70397380D01*
X129906142Y-70549761D01*
X129906142Y-70664047D01*
X129868047Y-70816428D01*
X129829952Y-70892619D01*
X129753761Y-70968809D01*
X129639476Y-71006904D01*
X129449000Y-71006904D01*
X130249000Y-71006904D02*
X130249000Y-70206904D01*
X131087095Y-71006904D02*
X130820428Y-70625952D01*
X130629952Y-71006904D02*
X130629952Y-70206904D01*
X130934714Y-70206904D01*
X131010904Y-70245000D01*
X131049000Y-70283095D01*
X131087095Y-70359285D01*
X131087095Y-70473571D01*
X131049000Y-70549761D01*
X131010904Y-70587857D01*
X130934714Y-70625952D01*
X130629952Y-70625952D01*
X128687047Y-68466904D02*
X128687047Y-67666904D01*
X129220380Y-67666904D02*
X129372761Y-67666904D01*
X129448952Y-67705000D01*
X129525142Y-67781190D01*
X129563238Y-67933571D01*
X129563238Y-68200238D01*
X129525142Y-68352619D01*
X129448952Y-68428809D01*
X129372761Y-68466904D01*
X129220380Y-68466904D01*
X129144190Y-68428809D01*
X129068000Y-68352619D01*
X129029904Y-68200238D01*
X129029904Y-67933571D01*
X129068000Y-67781190D01*
X129144190Y-67705000D01*
X129220380Y-67666904D01*
X129829904Y-67666904D02*
X130325142Y-67666904D01*
X130058476Y-67971666D01*
X130172761Y-67971666D01*
X130248952Y-68009761D01*
X130287047Y-68047857D01*
X130325142Y-68124047D01*
X130325142Y-68314523D01*
X130287047Y-68390714D01*
X130248952Y-68428809D01*
X130172761Y-68466904D01*
X129944190Y-68466904D01*
X129868000Y-68428809D01*
X129829904Y-68390714D01*
X130591809Y-67666904D02*
X131087047Y-67666904D01*
X130820380Y-67971666D01*
X130934666Y-67971666D01*
X131010857Y-68009761D01*
X131048952Y-68047857D01*
X131087047Y-68124047D01*
X131087047Y-68314523D01*
X131048952Y-68390714D01*
X131010857Y-68428809D01*
X130934666Y-68466904D01*
X130706095Y-68466904D01*
X130629904Y-68428809D01*
X130591809Y-68390714D01*
X129614095Y-65926904D02*
X129614095Y-65126904D01*
X129918857Y-65126904D02*
X130414095Y-65126904D01*
X130147428Y-65431666D01*
X130261714Y-65431666D01*
X130337904Y-65469761D01*
X130376000Y-65507857D01*
X130414095Y-65584047D01*
X130414095Y-65774523D01*
X130376000Y-65850714D01*
X130337904Y-65888809D01*
X130261714Y-65926904D01*
X130033142Y-65926904D01*
X129956952Y-65888809D01*
X129918857Y-65850714D01*
X131137904Y-65126904D02*
X130756952Y-65126904D01*
X130718857Y-65507857D01*
X130756952Y-65469761D01*
X130833142Y-65431666D01*
X131023619Y-65431666D01*
X131099809Y-65469761D01*
X131137904Y-65507857D01*
X131176000Y-65584047D01*
X131176000Y-65774523D01*
X131137904Y-65850714D01*
X131099809Y-65888809D01*
X131023619Y-65926904D01*
X130833142Y-65926904D01*
X130756952Y-65888809D01*
X130718857Y-65850714D01*
X129614095Y-63386904D02*
X129614095Y-62586904D01*
X129918857Y-62586904D02*
X130414095Y-62586904D01*
X130147428Y-62891666D01*
X130261714Y-62891666D01*
X130337904Y-62929761D01*
X130376000Y-62967857D01*
X130414095Y-63044047D01*
X130414095Y-63234523D01*
X130376000Y-63310714D01*
X130337904Y-63348809D01*
X130261714Y-63386904D01*
X130033142Y-63386904D01*
X129956952Y-63348809D01*
X129918857Y-63310714D01*
X130795047Y-63386904D02*
X130947428Y-63386904D01*
X131023619Y-63348809D01*
X131061714Y-63310714D01*
X131137904Y-63196428D01*
X131176000Y-63044047D01*
X131176000Y-62739285D01*
X131137904Y-62663095D01*
X131099809Y-62625000D01*
X131023619Y-62586904D01*
X130871238Y-62586904D01*
X130795047Y-62625000D01*
X130756952Y-62663095D01*
X130718857Y-62739285D01*
X130718857Y-62929761D01*
X130756952Y-63005952D01*
X130795047Y-63044047D01*
X130871238Y-63082142D01*
X131023619Y-63082142D01*
X131099809Y-63044047D01*
X131137904Y-63005952D01*
X131176000Y-62929761D01*
X129982380Y-60046904D02*
X130249047Y-60846904D01*
X130515714Y-60046904D01*
X130744285Y-60808809D02*
X130858571Y-60846904D01*
X131049047Y-60846904D01*
X131125238Y-60808809D01*
X131163333Y-60770714D01*
X131201428Y-60694523D01*
X131201428Y-60618333D01*
X131163333Y-60542142D01*
X131125238Y-60504047D01*
X131049047Y-60465952D01*
X130896666Y-60427857D01*
X130820476Y-60389761D01*
X130782380Y-60351666D01*
X130744285Y-60275476D01*
X130744285Y-60199285D01*
X130782380Y-60123095D01*
X130820476Y-60085000D01*
X130896666Y-60046904D01*
X131087142Y-60046904D01*
X131201428Y-60085000D01*
X156800000Y-104400000D02*
X156800000Y-105800000D01*
X158800000Y-104400000D02*
X158800000Y-105800000D01*
X160900000Y-104400000D02*
X160900000Y-105800000D01*
X163000000Y-104400000D02*
X163000000Y-105800000D01*
X154800000Y-104400000D02*
X163000000Y-104400000D01*
X155200000Y-105216666D02*
X155533333Y-105216666D01*
X155133333Y-105416666D02*
X155366666Y-104716666D01*
X155600000Y-105416666D01*
X155833333Y-105150000D02*
X156366666Y-105150000D01*
X156100000Y-105416666D02*
X156100000Y-104883333D01*
X157200000Y-105216666D02*
X157533333Y-105216666D01*
X157133333Y-105416666D02*
X157366666Y-104716666D01*
X157600000Y-105416666D01*
X157833333Y-105150000D02*
X158366666Y-105150000D01*
X159466666Y-105050000D02*
X159566666Y-105083333D01*
X159600000Y-105116666D01*
X159633333Y-105183333D01*
X159633333Y-105283333D01*
X159600000Y-105350000D01*
X159566666Y-105383333D01*
X159500000Y-105416666D01*
X159233333Y-105416666D01*
X159233333Y-104716666D01*
X159466666Y-104716666D01*
X159533333Y-104750000D01*
X159566666Y-104783333D01*
X159600000Y-104850000D01*
X159600000Y-104916666D01*
X159566666Y-104983333D01*
X159533333Y-105016666D01*
X159466666Y-105050000D01*
X159233333Y-105050000D01*
X159933333Y-105150000D02*
X160466666Y-105150000D01*
X160200000Y-105416666D02*
X160200000Y-104883333D01*
X161566666Y-105050000D02*
X161666666Y-105083333D01*
X161700000Y-105116666D01*
X161733333Y-105183333D01*
X161733333Y-105283333D01*
X161700000Y-105350000D01*
X161666666Y-105383333D01*
X161600000Y-105416666D01*
X161333333Y-105416666D01*
X161333333Y-104716666D01*
X161566666Y-104716666D01*
X161633333Y-104750000D01*
X161666666Y-104783333D01*
X161700000Y-104850000D01*
X161700000Y-104916666D01*
X161666666Y-104983333D01*
X161633333Y-105016666D01*
X161566666Y-105050000D01*
X161333333Y-105050000D01*
X162033333Y-105150000D02*
X162566666Y-105150000D01*
X166852380Y-74747619D02*
X166376190Y-75080952D01*
X166852380Y-75319047D02*
X165852380Y-75319047D01*
X165852380Y-74938095D01*
X165900000Y-74842857D01*
X165947619Y-74795238D01*
X166042857Y-74747619D01*
X166185714Y-74747619D01*
X166280952Y-74795238D01*
X166328571Y-74842857D01*
X166376190Y-74938095D01*
X166376190Y-75319047D01*
X166804761Y-74366666D02*
X166852380Y-74223809D01*
X166852380Y-73985714D01*
X166804761Y-73890476D01*
X166757142Y-73842857D01*
X166661904Y-73795238D01*
X166566666Y-73795238D01*
X166471428Y-73842857D01*
X166423809Y-73890476D01*
X166376190Y-73985714D01*
X166328571Y-74176190D01*
X166280952Y-74271428D01*
X166233333Y-74319047D01*
X166138095Y-74366666D01*
X166042857Y-74366666D01*
X165947619Y-74319047D01*
X165900000Y-74271428D01*
X165852380Y-74176190D01*
X165852380Y-73938095D01*
X165900000Y-73795238D01*
X165852380Y-73509523D02*
X165852380Y-72938095D01*
X166852380Y-73223809D02*
X165852380Y-73223809D01*
D11*
X157038748Y-93659000D02*
X157561252Y-93659000D01*
X157038748Y-95129000D02*
X157561252Y-95129000D01*
X136860252Y-98685000D02*
X136337748Y-98685000D01*
X136860252Y-97215000D02*
X136337748Y-97215000D01*
X134039836Y-97548000D02*
X133824164Y-97548000D01*
X134039836Y-96828000D02*
X133824164Y-96828000D01*
X140555164Y-94923000D02*
X140770836Y-94923000D01*
X140555164Y-95643000D02*
X140770836Y-95643000D01*
X145215836Y-95643000D02*
X145000164Y-95643000D01*
X145215836Y-94923000D02*
X145000164Y-94923000D01*
X151858164Y-94923000D02*
X152073836Y-94923000D01*
X151858164Y-95643000D02*
X152073836Y-95643000D01*
X136982000Y-81934420D02*
X136982000Y-82215580D01*
X135962000Y-81934420D02*
X135962000Y-82215580D01*
X138124000Y-83498641D02*
X138124000Y-83191359D01*
X138884000Y-83498641D02*
X138884000Y-83191359D01*
X127000000Y-76780000D02*
X124400000Y-76780000D01*
X128480000Y-71220000D02*
X128480000Y-76780000D01*
X127000000Y-71220000D02*
X124400000Y-71220000D01*
X122920000Y-71220000D02*
X122920000Y-76780000D01*
X123320000Y-69253641D02*
X123320000Y-68946359D01*
X124080000Y-69253641D02*
X124080000Y-68946359D01*
X131370000Y-76970000D02*
X136570000Y-76970000D01*
X131370000Y-61670000D02*
X131370000Y-76970000D01*
X136570000Y-59070000D02*
X136570000Y-76970000D01*
X131370000Y-61670000D02*
X133970000Y-61670000D01*
X133970000Y-61670000D02*
X133970000Y-59070000D01*
X133970000Y-59070000D02*
X136570000Y-59070000D01*
X131370000Y-60400000D02*
X131370000Y-59070000D01*
X131370000Y-59070000D02*
X132700000Y-59070000D01*
X135346359Y-57520000D02*
X135653641Y-57520000D01*
X135346359Y-58280000D02*
X135653641Y-58280000D01*
X133153641Y-58280000D02*
X132846359Y-58280000D01*
X133153641Y-57520000D02*
X132846359Y-57520000D01*
X133591000Y-83131000D02*
G75*
G03*
X133591000Y-83131000I-5120000J0D01*
G01*
X123391000Y-83131000D02*
X133551000Y-83131000D01*
X123391000Y-83091000D02*
X133551000Y-83091000D01*
X123391000Y-83051000D02*
X133551000Y-83051000D01*
X123392000Y-83011000D02*
X133550000Y-83011000D01*
X123393000Y-82971000D02*
X133549000Y-82971000D01*
X123394000Y-82931000D02*
X133548000Y-82931000D01*
X123396000Y-82891000D02*
X133546000Y-82891000D01*
X123398000Y-82851000D02*
X133544000Y-82851000D01*
X123401000Y-82811000D02*
X133541000Y-82811000D01*
X123403000Y-82771000D02*
X133539000Y-82771000D01*
X123406000Y-82731000D02*
X133536000Y-82731000D01*
X123409000Y-82691000D02*
X133533000Y-82691000D01*
X123413000Y-82651000D02*
X133529000Y-82651000D01*
X123417000Y-82611000D02*
X133525000Y-82611000D01*
X123421000Y-82571000D02*
X133521000Y-82571000D01*
X123426000Y-82531000D02*
X133516000Y-82531000D01*
X123431000Y-82491000D02*
X133511000Y-82491000D01*
X123436000Y-82451000D02*
X133506000Y-82451000D01*
X123441000Y-82410000D02*
X133501000Y-82410000D01*
X123447000Y-82370000D02*
X133495000Y-82370000D01*
X123453000Y-82330000D02*
X133489000Y-82330000D01*
X123460000Y-82290000D02*
X133482000Y-82290000D01*
X123467000Y-82250000D02*
X133475000Y-82250000D01*
X123474000Y-82210000D02*
X133468000Y-82210000D01*
X123481000Y-82170000D02*
X133461000Y-82170000D01*
X123489000Y-82130000D02*
X133453000Y-82130000D01*
X123497000Y-82090000D02*
X133445000Y-82090000D01*
X123506000Y-82050000D02*
X133436000Y-82050000D01*
X123515000Y-82010000D02*
X133427000Y-82010000D01*
X123524000Y-81970000D02*
X133418000Y-81970000D01*
X123533000Y-81930000D02*
X133409000Y-81930000D01*
X123543000Y-81890000D02*
X133399000Y-81890000D01*
X123553000Y-81850000D02*
X127230000Y-81850000D01*
X129712000Y-81850000D02*
X133389000Y-81850000D01*
X123564000Y-81810000D02*
X127230000Y-81810000D01*
X129712000Y-81810000D02*
X133378000Y-81810000D01*
X123574000Y-81770000D02*
X127230000Y-81770000D01*
X129712000Y-81770000D02*
X133368000Y-81770000D01*
X123586000Y-81730000D02*
X127230000Y-81730000D01*
X129712000Y-81730000D02*
X133356000Y-81730000D01*
X123597000Y-81690000D02*
X127230000Y-81690000D01*
X129712000Y-81690000D02*
X133345000Y-81690000D01*
X123609000Y-81650000D02*
X127230000Y-81650000D01*
X129712000Y-81650000D02*
X133333000Y-81650000D01*
X123621000Y-81610000D02*
X127230000Y-81610000D01*
X129712000Y-81610000D02*
X133321000Y-81610000D01*
X123634000Y-81570000D02*
X127230000Y-81570000D01*
X129712000Y-81570000D02*
X133308000Y-81570000D01*
X123647000Y-81530000D02*
X127230000Y-81530000D01*
X129712000Y-81530000D02*
X133295000Y-81530000D01*
X123660000Y-81490000D02*
X127230000Y-81490000D01*
X129712000Y-81490000D02*
X133282000Y-81490000D01*
X123674000Y-81450000D02*
X127230000Y-81450000D01*
X129712000Y-81450000D02*
X133268000Y-81450000D01*
X123688000Y-81410000D02*
X127230000Y-81410000D01*
X129712000Y-81410000D02*
X133254000Y-81410000D01*
X123703000Y-81370000D02*
X127230000Y-81370000D01*
X129712000Y-81370000D02*
X133239000Y-81370000D01*
X123717000Y-81330000D02*
X127230000Y-81330000D01*
X129712000Y-81330000D02*
X133225000Y-81330000D01*
X123733000Y-81290000D02*
X127230000Y-81290000D01*
X129712000Y-81290000D02*
X133209000Y-81290000D01*
X123748000Y-81250000D02*
X127230000Y-81250000D01*
X129712000Y-81250000D02*
X133194000Y-81250000D01*
X123764000Y-81210000D02*
X127230000Y-81210000D01*
X129712000Y-81210000D02*
X133178000Y-81210000D01*
X123781000Y-81170000D02*
X127230000Y-81170000D01*
X129712000Y-81170000D02*
X133161000Y-81170000D01*
X123797000Y-81130000D02*
X127230000Y-81130000D01*
X129712000Y-81130000D02*
X133145000Y-81130000D01*
X123814000Y-81090000D02*
X127230000Y-81090000D01*
X129712000Y-81090000D02*
X133128000Y-81090000D01*
X123832000Y-81050000D02*
X127230000Y-81050000D01*
X129712000Y-81050000D02*
X133110000Y-81050000D01*
X123850000Y-81010000D02*
X127230000Y-81010000D01*
X129712000Y-81010000D02*
X133092000Y-81010000D01*
X123868000Y-80970000D02*
X127230000Y-80970000D01*
X129712000Y-80970000D02*
X133074000Y-80970000D01*
X123887000Y-80930000D02*
X127230000Y-80930000D01*
X129712000Y-80930000D02*
X133055000Y-80930000D01*
X123907000Y-80890000D02*
X127230000Y-80890000D01*
X129712000Y-80890000D02*
X133035000Y-80890000D01*
X123926000Y-80850000D02*
X127230000Y-80850000D01*
X129712000Y-80850000D02*
X133016000Y-80850000D01*
X123946000Y-80810000D02*
X127230000Y-80810000D01*
X129712000Y-80810000D02*
X132996000Y-80810000D01*
X123967000Y-80770000D02*
X127230000Y-80770000D01*
X129712000Y-80770000D02*
X132975000Y-80770000D01*
X123988000Y-80730000D02*
X127230000Y-80730000D01*
X129712000Y-80730000D02*
X132954000Y-80730000D01*
X124009000Y-80690000D02*
X127230000Y-80690000D01*
X129712000Y-80690000D02*
X132933000Y-80690000D01*
X124031000Y-80650000D02*
X127230000Y-80650000D01*
X129712000Y-80650000D02*
X132911000Y-80650000D01*
X124054000Y-80610000D02*
X127230000Y-80610000D01*
X129712000Y-80610000D02*
X132888000Y-80610000D01*
X124076000Y-80570000D02*
X127230000Y-80570000D01*
X129712000Y-80570000D02*
X132866000Y-80570000D01*
X124100000Y-80530000D02*
X127230000Y-80530000D01*
X129712000Y-80530000D02*
X132842000Y-80530000D01*
X124124000Y-80490000D02*
X127230000Y-80490000D01*
X129712000Y-80490000D02*
X132818000Y-80490000D01*
X124148000Y-80450000D02*
X127230000Y-80450000D01*
X129712000Y-80450000D02*
X132794000Y-80450000D01*
X124173000Y-80410000D02*
X127230000Y-80410000D01*
X129712000Y-80410000D02*
X132769000Y-80410000D01*
X124198000Y-80370000D02*
X127230000Y-80370000D01*
X129712000Y-80370000D02*
X132744000Y-80370000D01*
X124224000Y-80330000D02*
X127230000Y-80330000D01*
X129712000Y-80330000D02*
X132718000Y-80330000D01*
X124250000Y-80290000D02*
X127230000Y-80290000D01*
X129712000Y-80290000D02*
X132692000Y-80290000D01*
X124277000Y-80250000D02*
X127230000Y-80250000D01*
X129712000Y-80250000D02*
X132665000Y-80250000D01*
X124305000Y-80210000D02*
X127230000Y-80210000D01*
X129712000Y-80210000D02*
X132637000Y-80210000D01*
X124333000Y-80170000D02*
X127230000Y-80170000D01*
X129712000Y-80170000D02*
X132609000Y-80170000D01*
X124361000Y-80130000D02*
X127230000Y-80130000D01*
X129712000Y-80130000D02*
X132581000Y-80130000D01*
X124391000Y-80090000D02*
X127230000Y-80090000D01*
X129712000Y-80090000D02*
X132551000Y-80090000D01*
X124421000Y-80050000D02*
X127230000Y-80050000D01*
X129712000Y-80050000D02*
X132521000Y-80050000D01*
X124451000Y-80010000D02*
X127230000Y-80010000D01*
X129712000Y-80010000D02*
X132491000Y-80010000D01*
X124482000Y-79970000D02*
X127230000Y-79970000D01*
X129712000Y-79970000D02*
X132460000Y-79970000D01*
X124514000Y-79930000D02*
X127230000Y-79930000D01*
X129712000Y-79930000D02*
X132428000Y-79930000D01*
X124546000Y-79890000D02*
X127230000Y-79890000D01*
X129712000Y-79890000D02*
X132396000Y-79890000D01*
X124579000Y-79850000D02*
X127230000Y-79850000D01*
X129712000Y-79850000D02*
X132363000Y-79850000D01*
X124613000Y-79810000D02*
X127230000Y-79810000D01*
X129712000Y-79810000D02*
X132329000Y-79810000D01*
X124647000Y-79770000D02*
X127230000Y-79770000D01*
X129712000Y-79770000D02*
X132295000Y-79770000D01*
X124682000Y-79730000D02*
X127230000Y-79730000D01*
X129712000Y-79730000D02*
X132260000Y-79730000D01*
X124718000Y-79690000D02*
X127230000Y-79690000D01*
X129712000Y-79690000D02*
X132224000Y-79690000D01*
X124755000Y-79650000D02*
X127230000Y-79650000D01*
X129712000Y-79650000D02*
X132187000Y-79650000D01*
X124792000Y-79610000D02*
X127230000Y-79610000D01*
X129712000Y-79610000D02*
X132150000Y-79610000D01*
X124831000Y-79570000D02*
X127230000Y-79570000D01*
X129712000Y-79570000D02*
X132111000Y-79570000D01*
X124870000Y-79530000D02*
X127230000Y-79530000D01*
X129712000Y-79530000D02*
X132072000Y-79530000D01*
X124910000Y-79490000D02*
X127230000Y-79490000D01*
X129712000Y-79490000D02*
X132032000Y-79490000D01*
X124951000Y-79450000D02*
X127230000Y-79450000D01*
X129712000Y-79450000D02*
X131991000Y-79450000D01*
X124993000Y-79410000D02*
X127230000Y-79410000D01*
X129712000Y-79410000D02*
X131949000Y-79410000D01*
X125035000Y-79370000D02*
X131907000Y-79370000D01*
X125079000Y-79330000D02*
X131863000Y-79330000D01*
X125124000Y-79290000D02*
X131818000Y-79290000D01*
X125170000Y-79250000D02*
X131772000Y-79250000D01*
X125217000Y-79210000D02*
X131725000Y-79210000D01*
X125265000Y-79170000D02*
X131677000Y-79170000D01*
X125315000Y-79130000D02*
X131627000Y-79130000D01*
X125365000Y-79090000D02*
X131577000Y-79090000D01*
X125417000Y-79050000D02*
X131525000Y-79050000D01*
X125471000Y-79010000D02*
X131471000Y-79010000D01*
X125526000Y-78970000D02*
X131416000Y-78970000D01*
X125582000Y-78930000D02*
X131360000Y-78930000D01*
X125641000Y-78890000D02*
X131301000Y-78890000D01*
X125701000Y-78850000D02*
X131241000Y-78850000D01*
X125762000Y-78810000D02*
X131180000Y-78810000D01*
X125826000Y-78770000D02*
X131116000Y-78770000D01*
X125892000Y-78730000D02*
X131050000Y-78730000D01*
X125961000Y-78690000D02*
X130981000Y-78690000D01*
X126032000Y-78650000D02*
X130910000Y-78650000D01*
X126106000Y-78610000D02*
X130836000Y-78610000D01*
X126182000Y-78570000D02*
X130760000Y-78570000D01*
X126262000Y-78530000D02*
X130680000Y-78530000D01*
X126346000Y-78490000D02*
X130596000Y-78490000D01*
X126434000Y-78450000D02*
X130508000Y-78450000D01*
X126527000Y-78410000D02*
X130415000Y-78410000D01*
X126625000Y-78370000D02*
X130317000Y-78370000D01*
X126729000Y-78330000D02*
X130213000Y-78330000D01*
X126841000Y-78290000D02*
X130101000Y-78290000D01*
X126961000Y-78250000D02*
X129981000Y-78250000D01*
X127093000Y-78210000D02*
X129849000Y-78210000D01*
X127241000Y-78170000D02*
X129701000Y-78170000D01*
X127409000Y-78130000D02*
X129533000Y-78130000D01*
X127609000Y-78090000D02*
X129333000Y-78090000D01*
X127872000Y-78050000D02*
X129070000Y-78050000D01*
X125596000Y-88610646D02*
X125596000Y-87610646D01*
X125096000Y-88110646D02*
X126096000Y-88110646D01*
X127125800Y-89594641D02*
X127125800Y-89287359D01*
X127885800Y-89594641D02*
X127885800Y-89287359D01*
X128120000Y-89594641D02*
X128120000Y-89287359D01*
X128880000Y-89594641D02*
X128880000Y-89287359D01*
X140890359Y-84489000D02*
X141197641Y-84489000D01*
X140890359Y-85249000D02*
X141197641Y-85249000D01*
X142188000Y-86546641D02*
X142188000Y-86239359D01*
X142948000Y-86546641D02*
X142948000Y-86239359D01*
X139160000Y-83452836D02*
X139160000Y-83237164D01*
X139880000Y-83452836D02*
X139880000Y-83237164D01*
X145002000Y-86500836D02*
X145002000Y-86285164D01*
X145722000Y-86500836D02*
X145722000Y-86285164D01*
X133240000Y-91100000D02*
X133240000Y-93050000D01*
X133240000Y-91100000D02*
X133240000Y-89150000D01*
X138360000Y-91100000D02*
X138360000Y-93050000D01*
X138360000Y-91100000D02*
X138360000Y-87650000D01*
X138740000Y-91100000D02*
X138740000Y-93050000D01*
X138740000Y-91100000D02*
X138740000Y-89150000D01*
X143860000Y-91100000D02*
X143860000Y-93050000D01*
X143860000Y-91100000D02*
X143860000Y-87650000D01*
X144345000Y-86553641D02*
X144345000Y-86246359D01*
X143585000Y-86553641D02*
X143585000Y-86246359D01*
X129390000Y-90747936D02*
X129390000Y-94852064D01*
X132810000Y-90747936D02*
X132810000Y-94852064D01*
X146633000Y-86546641D02*
X146633000Y-86239359D01*
X147393000Y-86546641D02*
X147393000Y-86239359D01*
X147649000Y-86546641D02*
X147649000Y-86239359D01*
X148409000Y-86546641D02*
X148409000Y-86239359D01*
X148685000Y-86500836D02*
X148685000Y-86285164D01*
X149405000Y-86500836D02*
X149405000Y-86285164D01*
X160446359Y-99120000D02*
X160753641Y-99120000D01*
X160446359Y-99880000D02*
X160753641Y-99880000D01*
X149935000Y-86453641D02*
X149935000Y-86146359D01*
X150695000Y-86453641D02*
X150695000Y-86146359D01*
X150920000Y-86463641D02*
X150920000Y-86156359D01*
X151680000Y-86463641D02*
X151680000Y-86156359D01*
X153407836Y-86960000D02*
X153192164Y-86960000D01*
X153407836Y-86240000D02*
X153192164Y-86240000D01*
X144240000Y-91100000D02*
X144240000Y-93050000D01*
X144240000Y-91100000D02*
X144240000Y-89150000D01*
X149360000Y-91100000D02*
X149360000Y-93050000D01*
X149360000Y-91100000D02*
X149360000Y-87650000D01*
X137382000Y-81547836D02*
X137382000Y-81332164D01*
X138102000Y-81547836D02*
X138102000Y-81332164D01*
X140640000Y-75290000D02*
X140190000Y-75290000D01*
X140190000Y-75290000D02*
X140190000Y-75740000D01*
X146960000Y-75290000D02*
X147410000Y-75290000D01*
X147410000Y-75290000D02*
X147410000Y-75740000D01*
X140640000Y-82510000D02*
X140190000Y-82510000D01*
X140190000Y-82510000D02*
X140190000Y-82060000D01*
X146960000Y-82510000D02*
X147410000Y-82510000D01*
X147410000Y-82510000D02*
X147410000Y-82060000D01*
X147410000Y-82060000D02*
X148700000Y-82060000D01*
X136371641Y-78518000D02*
X136064359Y-78518000D01*
X136371641Y-77758000D02*
X136064359Y-77758000D01*
X143207836Y-73560000D02*
X142992164Y-73560000D01*
X143207836Y-72840000D02*
X142992164Y-72840000D01*
X137975000Y-77776164D02*
X137975000Y-77991836D01*
X137255000Y-77776164D02*
X137255000Y-77991836D01*
X151110000Y-78359420D02*
X151110000Y-78640580D01*
X150090000Y-78359420D02*
X150090000Y-78640580D01*
X149190000Y-81840580D02*
X149190000Y-81559420D01*
X150210000Y-81840580D02*
X150210000Y-81559420D01*
X136739580Y-80299000D02*
X136458420Y-80299000D01*
X136739580Y-79279000D02*
X136458420Y-79279000D01*
X151710000Y-81459420D02*
X151710000Y-81740580D01*
X150690000Y-81459420D02*
X150690000Y-81740580D01*
X158400000Y-85650000D02*
X158400000Y-79350000D01*
X152200000Y-85650000D02*
X152200000Y-79350000D01*
X149740000Y-91100000D02*
X149740000Y-93050000D01*
X149740000Y-91100000D02*
X149740000Y-89150000D01*
X154860000Y-91100000D02*
X154860000Y-93050000D01*
X154860000Y-91100000D02*
X154860000Y-87650000D01*
X155790000Y-97447936D02*
X155790000Y-101552064D01*
X159210000Y-97447936D02*
X159210000Y-101552064D01*
X138800000Y-96700000D02*
X154800000Y-96700000D01*
X154800000Y-96700000D02*
X154800000Y-105900000D01*
X154800000Y-105900000D02*
X138800000Y-105900000D01*
X138800000Y-105900000D02*
X138800000Y-96700000D01*
X158750000Y-77700000D02*
X162650000Y-77700000D01*
X158750000Y-79700000D02*
X162650000Y-79700000D01*
X158750000Y-77700000D02*
X158750000Y-79700000D01*
X159840000Y-54020000D02*
X161300000Y-54020000D01*
X159840000Y-57180000D02*
X162000000Y-57180000D01*
X159840000Y-57180000D02*
X159840000Y-56250000D01*
X159840000Y-54020000D02*
X159840000Y-54950000D01*
X165592164Y-69540000D02*
X165807836Y-69540000D01*
X165592164Y-70260000D02*
X165807836Y-70260000D01*
X139780000Y-49955000D02*
X139400000Y-49955000D01*
X139780000Y-43535000D02*
X139780000Y-49955000D01*
X158020000Y-43535000D02*
X158020000Y-49955000D01*
X139780000Y-43535000D02*
X158020000Y-43535000D01*
X158020000Y-69280000D02*
X157020000Y-69280000D01*
X158020000Y-68500000D02*
X158020000Y-69280000D01*
X139780000Y-69280000D02*
X140780000Y-69280000D01*
X139780000Y-68500000D02*
X139780000Y-69280000D01*
X160446359Y-98880000D02*
X160753641Y-98880000D01*
X160446359Y-98120000D02*
X160753641Y-98120000D01*
X168900000Y-66050000D02*
X168900000Y-69950000D01*
X166900000Y-66050000D02*
X166900000Y-69950000D01*
X168900000Y-66050000D02*
X166900000Y-66050000D01*
X163800000Y-69110000D02*
X166250000Y-69110000D01*
X165600000Y-65890000D02*
X163800000Y-65890000D01*
X163592164Y-70260000D02*
X163807836Y-70260000D01*
X163592164Y-69540000D02*
X163807836Y-69540000D01*
X169400000Y-77600000D02*
X178900000Y-77600000D01*
X165400000Y-77600000D02*
X166400000Y-77600000D01*
X165400000Y-81100000D02*
X165400000Y-77600000D01*
X165400000Y-87600000D02*
X165400000Y-84100000D01*
X178900000Y-87600000D02*
X165400000Y-87600000D01*
X178900000Y-87600000D02*
X178900000Y-77600000D01*
X157807836Y-70540000D02*
X157592164Y-70540000D01*
X157807836Y-71260000D02*
X157592164Y-71260000D01*
X162310000Y-69500000D02*
X162310000Y-67050000D01*
X159090000Y-67700000D02*
X159090000Y-69500000D01*
X153050000Y-78750000D02*
X154200000Y-78750000D01*
X153050000Y-71450000D02*
X153050000Y-78750000D01*
X158550000Y-71450000D02*
X158550000Y-78750000D01*
X160300000Y-90290000D02*
X160300000Y-91290000D01*
X159800000Y-90790000D02*
X160800000Y-90790000D01*
X161040000Y-96595563D02*
X162104437Y-97660000D01*
X161040000Y-90004437D02*
X162104437Y-88940000D01*
X161040000Y-90004437D02*
X161040000Y-91790000D01*
X161040000Y-96595563D02*
X161040000Y-94810000D01*
X162104437Y-97660000D02*
X169760000Y-97660000D01*
X162104437Y-88940000D02*
X169760000Y-88940000D01*
X169760000Y-88940000D02*
X169760000Y-91790000D01*
X169760000Y-97660000D02*
X169760000Y-94810000D01*
X164710000Y-79140580D02*
X164710000Y-78859420D01*
X163690000Y-79140580D02*
X163690000Y-78859420D01*
X161040000Y-61900000D02*
X161040000Y-65350000D01*
X161040000Y-61900000D02*
X161040000Y-59950000D01*
X171160000Y-61900000D02*
X171160000Y-63850000D01*
X171160000Y-61900000D02*
X171160000Y-59950000D01*
X163960000Y-84700000D02*
X163960000Y-81250000D01*
X163960000Y-84700000D02*
X163960000Y-86650000D01*
X158840000Y-84700000D02*
X158840000Y-82750000D01*
X158840000Y-84700000D02*
X158840000Y-86650000D01*
X155750000Y-89000000D02*
X159650000Y-89000000D01*
X155750000Y-91000000D02*
X159650000Y-91000000D01*
X155750000Y-89000000D02*
X155750000Y-91000000D01*
X176800000Y-76000000D02*
X178700000Y-76000000D01*
X172900000Y-76000000D02*
X174900000Y-76000000D01*
X176800000Y-66600000D02*
X178700000Y-66600000D01*
X172900000Y-66600000D02*
X174900000Y-66600000D01*
X178700000Y-76000000D02*
X178700000Y-66600000D01*
X171520000Y-65053641D02*
X171520000Y-64746359D01*
X172280000Y-65053641D02*
X172280000Y-64746359D01*
X169180000Y-75136359D02*
X169180000Y-75443641D01*
X168420000Y-75136359D02*
X168420000Y-75443641D01*
X159920000Y-76880000D02*
X165480000Y-76880000D01*
X159920000Y-72800000D02*
X159920000Y-75400000D01*
X159920000Y-71320000D02*
X165480000Y-71320000D01*
X165480000Y-72800000D02*
X165480000Y-75400000D01*
X159840000Y-50420000D02*
X161300000Y-50420000D01*
X159840000Y-53580000D02*
X162000000Y-53580000D01*
X159840000Y-53580000D02*
X159840000Y-52650000D01*
X159840000Y-50420000D02*
X159840000Y-51350000D01*
D10*
X156652380Y-71714285D02*
X156652380Y-72285714D01*
X156652380Y-72000000D02*
X155652380Y-72000000D01*
X155795238Y-72095238D01*
X155890476Y-72190476D01*
X155938095Y-72285714D01*
M02*
