M48
; DRILL file {KiCad (5.1.9)-1} date 12/18/21 00:05:08
; FORMAT={-:-/ absolute / inch / decimal}
; #@! TF.CreationDate,2021-12-18T00:05:08+00:00
; #@! TF.GenerationSoftware,Kicad,Pcbnew,(5.1.9)-1
; #@! TF.FileFunction,Plated,1,4,PTH
FMAT,2
INCH
T1C0.0079
T2C0.0236
T3C0.0256
T4C0.0315
T5C0.0394
T6C0.0433
T7C0.0500
T8C0.0551
T9C0.1000
%
G90
G05
T1
X4.8679Y-2.6713
X4.8701Y-2.6024
X5.0433Y-3.4685
X5.0945Y-3.4843
X5.3179Y-3.0763
X5.4529Y-3.0513
X5.4879Y-3.3413
X5.5827Y-2.4646
X5.5866Y-2.1102
X5.5866Y-2.5197
X5.5906Y-1.9921
X5.6142Y-2.8543
X5.622Y-3.0669
X5.622Y-3.1063
X5.622Y-3.1457
X5.6329Y-3.3213
X5.6378Y-2.0118
X5.6479Y-3.3713
X5.6535Y-2.8543
X5.6614Y-3.0669
X5.6614Y-3.1063
X5.6614Y-3.1457
X5.6732Y-3.3268
X5.6779Y-2.8663
X5.7008Y-3.0669
X5.7008Y-3.1063
X5.7008Y-3.1457
X5.7029Y-2.8563
X5.7103Y-3.3166
X5.7129Y-3.3513
X5.7362Y-2.8898
X5.7579Y-3.3513
X5.7638Y-2.8543
X5.7829Y-3.3413
X5.7835Y-3.0197
X5.7835Y-3.0984
X5.7835Y-3.1339
X5.8229Y-3.3313
X5.878Y-3.0827
X5.8858Y-3.0276
X5.8898Y-3.0551
X5.8979Y-2.8063
X5.9079Y-3.3413
X5.9329Y-2.7836
X5.9685Y-2.7756
X5.9764Y-3.0039
X6.0Y-2.7756
X6.0551Y-2.7598
X6.0787Y-3.4055
X6.0879Y-2.5163
X6.0879Y-2.5513
X6.1102Y-2.0197
X6.126Y-2.7677
X6.1378Y-2.3661
X6.1417Y-2.0709
X6.1457Y-2.4213
X6.1496Y-2.6181
X6.189Y-2.7126
X6.2441Y-2.8583
X6.2559Y-2.1339
X6.2795Y-2.0906
X6.3031Y-2.2244
X6.315Y-2.7441
X6.3465Y-2.7992
X6.3701Y-2.0394
X6.3701Y-3.878
X6.374Y-3.9173
X6.3898Y-2.2717
X6.4803Y-2.2598
X6.5Y-2.6575
X6.5512Y-2.8071
X6.5591Y-2.6575
X6.5591Y-2.7756
X6.5709Y-2.2638
X6.5748Y-2.5866
X6.6181Y-2.5866
X6.6181Y-2.9331
X6.6535Y-2.7598
X6.6614Y-2.7874
X6.6614Y-2.8425
X6.6614Y-2.8701
X6.6654Y-2.6811
X6.6693Y-2.738
T2
X4.875Y-2.9242
X4.8929Y-3.3063
X4.8929Y-3.3563
X4.8929Y-3.4063
X4.8929Y-3.4563
X4.8929Y-3.5063
X4.9429Y-3.1063
X4.9429Y-3.1563
X4.9429Y-3.2063
X4.9429Y-3.3063
X4.9429Y-3.3563
X4.9429Y-3.4063
X4.9429Y-3.4563
X4.9429Y-3.5063
X4.9929Y-2.6563
X4.9929Y-2.7063
X4.9929Y-3.1063
X4.9929Y-3.1563
X4.9929Y-3.2063
X4.9929Y-3.2063
X4.9929Y-3.3063
X4.9929Y-3.3563
X4.9929Y-3.4063
X5.0179Y-3.7813
X5.0429Y-2.6063
X5.0429Y-2.6563
X5.0429Y-2.7063
X5.0429Y-3.1063
X5.0429Y-3.3063
X5.0679Y-3.7813
X5.0929Y-3.0563
X5.0929Y-3.1063
X5.0929Y-3.1063
X5.0929Y-3.3063
X5.1429Y-3.0563
X5.1429Y-3.1063
X5.1429Y-3.1563
X5.1429Y-3.2063
X5.1429Y-3.3063
X5.1429Y-3.3563
X5.1429Y-3.4063
X5.1929Y-3.0563
X5.1929Y-3.1063
X5.1929Y-3.1063
X5.1929Y-3.1063
X5.1929Y-3.1563
X5.1929Y-3.2063
X5.1929Y-3.2063
X5.1929Y-3.2063
X5.1929Y-3.3063
X5.1929Y-3.3563
X5.1929Y-3.4063
X5.1929Y-3.8563
X5.2429Y-2.1563
X5.2429Y-3.0563
X5.2429Y-3.1063
X5.2429Y-3.1563
X5.2429Y-3.2063
X5.2429Y-3.3063
X5.2429Y-3.3563
X5.2429Y-3.4063
X5.2429Y-3.8563
X5.2429Y-3.9063
X5.2429Y-3.9563
X5.2629Y-3.7763
X5.2835Y-2.2362
X5.2929Y-2.1563
X5.2929Y-3.9063
X5.2929Y-3.9563
X5.3279Y-3.2013
X5.3279Y-3.2563
X5.3429Y-2.1563
X5.3979Y-3.9413
X5.4179Y-2.0063
X5.4179Y-2.0563
X5.4429Y-4.0563
X5.4429Y-4.1063
X5.4929Y-4.0563
X5.4929Y-4.1063
X5.5429Y-4.0563
X5.5429Y-4.1063
X5.5479Y-3.7813
X5.5929Y-4.0563
X5.5929Y-4.1063
X5.6138Y-2.0613
X5.6429Y-4.0563
X5.6429Y-4.1063
X5.6929Y-2.1063
X5.6929Y-2.2063
X5.6929Y-2.3063
X5.6929Y-2.4063
X5.6929Y-2.5063
X5.6929Y-2.6063
X5.6929Y-4.0563
X5.6929Y-4.1063
X5.6979Y-3.7813
X5.7429Y-4.0563
X5.7429Y-4.1063
X5.7929Y-2.1063
X5.7929Y-2.2063
X5.7929Y-2.5063
X5.7929Y-2.6063
X5.7929Y-4.0563
X5.7929Y-4.1063
X5.8429Y-2.9563
X5.8429Y-4.0563
X5.8429Y-4.1063
X5.8929Y-2.1063
X5.8929Y-2.2063
X5.8929Y-2.5063
X5.8929Y-2.6063
X5.8929Y-2.9563
X5.8929Y-4.0563
X5.8929Y-4.1063
X5.9055Y-3.2835
X5.9429Y-2.9563
X5.9429Y-4.0563
X5.9429Y-4.1063
X5.9488Y-3.2835
X5.9685Y-3.1535
X5.9764Y-3.0906
X5.9929Y-2.1063
X5.9929Y-2.2063
X5.9929Y-2.3063
X5.9929Y-2.4063
X5.9929Y-2.5063
X5.9929Y-2.6063
X5.9929Y-3.2563
X5.9929Y-4.0563
X5.9929Y-4.1063
X6.0379Y-3.7713
X6.0429Y-3.2563
X6.0429Y-4.0563
X6.0429Y-4.1063
X6.0929Y-4.0563
X6.1102Y-3.0551
X6.1535Y-2.7992
X6.2008Y-3.1142
X6.2244Y-3.4055
X6.2598Y-2.0
X6.2835Y-2.6181
X6.2929Y-4.0563
X6.3228Y-2.3583
X6.3429Y-4.0563
X6.3465Y-2.2717
X6.3529Y-3.6063
X6.3543Y-3.0512
X6.3622Y-2.4803
X6.374Y-3.3031
X6.3929Y-4.0563
X6.4409Y-2.7913
X6.4429Y-3.9063
X6.4429Y-3.9563
X6.4429Y-4.0063
X6.4429Y-4.0563
X6.4449Y-2.6654
X6.4929Y-3.5063
X6.4929Y-3.8063
X6.4929Y-3.9063
X6.5079Y-2.4567
X6.5079Y-2.7953
X6.5429Y-3.9063
X6.5929Y-2.4063
X6.5929Y-3.2063
X6.5929Y-3.3063
X6.5929Y-3.4063
X6.5929Y-3.5063
X6.5929Y-3.8063
X6.5929Y-3.9063
X6.6929Y-2.4063
X6.6929Y-3.1063
X6.6929Y-3.2063
X6.6929Y-3.3063
X6.6929Y-3.4063
X6.6929Y-3.5063
X6.7929Y-2.4063
X6.7929Y-2.5063
X6.7929Y-2.8063
X6.7929Y-3.1063
X6.7929Y-3.4063
X6.7929Y-3.5063
X6.8929Y-2.7063
X6.8929Y-2.8063
X6.8929Y-2.9063
X6.8929Y-3.1063
X6.8929Y-3.2063
X6.8929Y-3.3063
X6.8929Y-3.4063
X6.8929Y-3.5063
X6.9929Y-2.6063
X6.9929Y-2.7063
X6.9929Y-2.8063
X6.9929Y-2.9063
X6.9929Y-3.0063
X6.9929Y-3.1063
X6.9929Y-3.2063
X6.9929Y-3.3063
X6.9929Y-3.4063
X6.9929Y-3.5063
T3
X5.4229Y-3.3913
X5.4729Y-3.3913
X5.5229Y-3.3913
X5.5729Y-3.3913
T5
X5.0579Y-3.1744
X5.0579Y-3.3713
X5.2244Y-2.378
X5.2244Y-2.478
X5.2244Y-2.578
X5.2244Y-2.678
X5.2244Y-2.778
X5.2244Y-2.878
X5.2244Y-2.978
X5.3244Y-2.378
X5.3244Y-2.478
X5.3244Y-2.578
X5.3244Y-2.678
X5.3244Y-2.778
X5.3244Y-2.878
X5.3244Y-2.978
T6
X5.252Y-3.5709
X5.4843Y-3.5709
X5.5787Y-2.7323
X5.7008Y-3.5748
X5.9331Y-3.5748
X6.2279Y-3.6463
X6.4279Y-3.7763
T7
X5.1811Y-3.7008
X5.378Y-3.7677
X5.4679Y-3.7663
X5.6181Y-3.7638
X5.8661Y-3.7559
X6.1229Y-3.6463
X6.2129Y-3.8613
X6.3504Y-3.5157
X6.7323Y-3.5787
T8
X5.5545Y-3.8583
X5.7045Y-3.8583
X5.8545Y-3.8583
X6.0045Y-3.8583
T9
X5.8268Y-2.311
T2
G00X6.737Y-2.637
M15
G01X6.7803Y-2.637
M16
G05
G00X6.737Y-2.9772
M15
G01X6.7803Y-2.9772
M16
G05
G00X6.9114Y-2.637
M15
G01X6.935Y-2.637
M16
G05
G00X6.9114Y-2.9772
M15
G01X6.935Y-2.9772
M16
G05
T4
G00X6.5098Y-3.2657
M15
G01X6.5098Y-3.2382
M16
G05
G00X6.5965Y-3.0669
M15
G01X6.624Y-3.0669
M16
G05
G00X6.7717Y-3.2657
M15
G01X6.7717Y-3.2382
M16
G05
T0
M30
