M48
; DRILL file {KiCad (5.1.9)-1} date 10/30/21 12:26:00
; FORMAT={-:-/ absolute / inch / decimal}
; #@! TF.CreationDate,2021-10-30T12:26:00+01:00
; #@! TF.GenerationSoftware,Kicad,Pcbnew,(5.1.9)-1
; #@! TF.FileFunction,Plated,1,4,PTH
FMAT,2
INCH
T1C0.0118
T2C0.0138
T3C0.0236
T4C0.0250
T5C0.0315
T6C0.0394
T7C0.0433
T8C0.0500
T9C0.1000
%
G90
G05
T1
X4.3346Y-4.4685
X4.378Y-4.9606
X4.5512Y-4.1378
X4.5591Y-4.0984
X4.5669Y-4.7008
X4.5787Y-4.2756
X4.5787Y-5.1339
X4.5945Y-4.8268
X4.5945Y-4.9382
X4.6024Y-4.252
X4.6102Y-4.2126
X4.622Y-4.3661
X4.6339Y-4.8268
X4.6496Y-4.9449
X4.6535Y-4.685
X4.6732Y-4.8307
X4.7441Y-4.4882
X4.748Y-4.5394
X4.7795Y-4.4882
X4.7913Y-5.374
X4.8071Y-5.0914
X4.8071Y-5.1339
X4.811Y-4.752
X4.811Y-5.0591
X4.8425Y-4.6142
X4.85Y-4.7524
X4.8661Y-5.0827
X4.8959Y-4.7398
X4.9094Y-5.0748
X4.9272Y-4.7408
X4.9724Y-4.7638
X4.9795Y-5.0837
X4.9843Y-5.0039
X5.0236Y-5.0787
X5.0312Y-5.167
X5.0551Y-5.3228
X5.0644Y-5.1637
X5.0827Y-4.8228
X5.0945Y-5.2598
X5.095Y-5.068
X5.1142Y-4.5748
X5.1229Y-5.2402
X5.1299Y-5.063
X5.1417Y-4.5079
X5.1457Y-5.3031
X5.1535Y-4.4764
X5.1535Y-4.5827
X5.1575Y-4.9646
X5.1811Y-4.4291
X5.185Y-5.063
X5.1929Y-4.1772
X5.2047Y-4.0866
X5.2047Y-4.3858
X5.2283Y-4.2047
X5.2795Y-4.0866
X5.2953Y-4.3425
X5.2953Y-4.6339
X5.5553Y-4.5591
X5.6772Y-3.7441
X5.8071Y-3.8858
X5.9173Y-3.8858
T2
X4.7362Y-4.0866
X5.2677Y-4.1575
X5.2677Y-4.2441
X5.2953Y-4.189
X5.4173Y-4.0236
X5.4488Y-4.2441
X5.4646Y-4.0866
X5.4882Y-4.3228
X5.4921Y-4.7677
X5.5039Y-4.0945
X5.5039Y-4.2205
X5.5039Y-4.4724
X5.5863Y-4.4037
X5.6772Y-4.4803
X5.6969Y-4.2795
X5.7559Y-4.1929
X5.7598Y-4.2323
X5.878Y-4.311
X5.937Y-4.0
X5.937Y-4.2677
X5.9409Y-4.1969
T4
X4.5512Y-4.7992
X4.5551Y-4.5787
X4.5591Y-4.0472
X4.5669Y-3.9882
X4.5906Y-5.0
X4.6535Y-5.2047
X4.7247Y-5.2089
X4.7913Y-4.6142
X4.8031Y-5.2442
X4.9961Y-5.2047
X5.1969Y-4.7559
X5.2874Y-3.9882
X5.4331Y-4.6535
X5.5195Y-5.0455
X5.5669Y-4.5157
X5.5866Y-4.685
X5.6217Y-4.5034
X5.689Y-4.5984
X6.0236Y-4.378
T6
X4.0079Y-3.9882
X4.0079Y-4.0882
X4.0079Y-4.1882
X4.0079Y-4.2882
X4.0079Y-4.3882
X4.0079Y-4.4882
X4.0079Y-4.5882
X4.0079Y-4.6882
X4.0079Y-4.7882
X4.0079Y-4.8882
X4.0079Y-4.9882
X4.0079Y-5.0882
X4.0079Y-5.1882
X4.0079Y-5.2882
X4.2165Y-4.1102
X4.4134Y-4.1102
T7
X4.185Y-5.0945
X4.285Y-5.0945
X4.385Y-5.0945
X4.485Y-5.0945
T8
X4.2165Y-4.2008
X4.4094Y-4.189
X4.8833Y-4.9055
X4.8976Y-5.2874
T9
X4.9803Y-4.2835
X5.2866Y-5.3031
T3
G00X6.0008Y-3.9324
M15
G01X6.0441Y-3.9324
M16
G05
G00X6.0008Y-4.2725
M15
G01X6.0441Y-4.2725
M16
G05
G00X6.1752Y-3.9324
M15
G01X6.1988Y-3.9324
M16
G05
G00X6.1752Y-4.2725
M15
G01X6.1988Y-4.2725
M16
G05
T5
G00X5.7776Y-4.8248
M15
G01X5.7776Y-4.7972
M16
G05
G00X5.8642Y-4.626
M15
G01X5.8917Y-4.626
M16
G05
G00X6.0394Y-4.8248
M15
G01X6.0394Y-4.7972
M16
G05
T0
M30
